<svg width="83" height="83" viewBox="0 0 83 83" fill="none" xmlns="http://www.w3.org/2000/svg">
<path d="M67.4175 72.2903L64.3112 62.9916C63.2257 59.7453 60.4562 57.349 57.0803 56.7359L48.113 55.108V54.4145C49.6735 53.5109 51.0314 52.302 52.1129 50.871H54.822C57.0413 50.871 58.8474 49.0691 58.8474 46.8548V30.7903C58.8474 21.1944 51.022 13.3871 41.404 13.3871C31.7859 13.3871 23.9605 21.1944 23.9605 30.7903V40.1613C23.9605 42.7423 25.8001 44.9017 28.2395 45.405C28.9923 49.2525 31.4022 52.5082 34.6949 54.4145V55.108L25.7263 56.7359C22.3517 57.349 19.5809 59.7453 18.4967 62.9916L17.96 64.5994L13.3898 60.0398C12.8665 59.5177 12.8665 58.6676 13.3898 58.1455L18.6899 52.859L8.74179 42.9338L2.75197 48.9098C0.978111 50.6795 0.00127763 53.033 0.00127763 55.5364C0.00127763 58.0398 0.978111 60.3919 2.75197 62.1616L20.8864 80.2543C22.6603 82.0241 25.0192 83 27.5284 83C30.0375 83 32.3951 82.0241 34.1274 80.2945L40.6633 74.3198L38.6251 72.2903H67.4175ZM56.1638 46.8548C56.1638 47.5938 55.5613 48.1935 54.822 48.1935H53.6936C54.0827 47.3087 54.3779 46.3756 54.5684 45.405C55.1427 45.2859 55.6714 45.0583 56.1638 44.7718V46.8548ZM54.822 42.4665V37.856C55.6204 38.3206 56.1638 39.1747 56.1638 40.1613C56.1638 41.1479 55.6204 42.002 54.822 42.4665ZM27.9859 42.4665C27.1876 42.002 26.6441 41.1479 26.6441 40.1613C26.6441 39.1747 27.1876 38.3206 27.9859 37.856V42.4665ZM27.9859 33.4677V34.9965C27.5082 35.121 27.0601 35.3085 26.6441 35.5508V30.7903C26.6441 22.671 33.2659 16.0645 41.404 16.0645C49.542 16.0645 56.1638 22.671 56.1638 30.7903V35.5508C55.7478 35.3085 55.2997 35.1197 54.822 34.9965V33.4677H53.4802C49.5125 33.4677 45.7823 31.9255 42.9752 29.1263L41.404 27.5587L39.8327 29.1263C37.0257 31.9255 33.2954 33.4677 29.3277 33.4677H27.9859ZM30.6695 42.8387V36.0943C34.699 35.7917 38.456 34.1331 41.404 31.3365C44.3519 34.1331 48.109 35.7931 52.1384 36.0943V42.8387C52.1384 44.7905 51.6044 46.6165 50.6866 48.1935H41.404V50.871H48.4806C46.5887 52.5323 44.1157 53.5484 41.404 53.5484C35.4853 53.5484 30.6695 48.7438 30.6695 42.8387ZM45.4294 55.6087V55.6716L41.404 59.6877L37.3786 55.6716V55.6087C38.6506 56.0076 40.0018 56.2258 41.404 56.2258C42.8061 56.2258 44.1573 56.0076 45.4294 55.6087ZM21.0408 63.8377C21.815 61.5191 23.7941 59.8069 26.2054 59.3678L35.5846 57.6676L41.404 63.4736L47.222 57.6689L56.5999 59.3691C59.0111 59.8082 60.9903 61.5191 61.7645 63.839L63.6953 69.6129H35.9415L30.7152 64.3986L24.9078 69.6397C24.402 70.147 23.5177 70.147 23.0105 69.6397L20.08 66.7159L21.0408 63.8377ZM8.74044 46.7196L14.894 52.859L13.4368 54.3128L7.28324 48.1735L8.74044 46.7196ZM32.269 78.364C31.0023 79.6251 29.317 80.3226 27.5257 80.3226C25.7344 80.3226 24.0491 79.6251 22.7811 78.3614L4.6466 60.27C3.37994 59.0063 2.6822 57.3249 2.6822 55.5377C2.6822 53.7492 3.37994 52.0678 4.6466 50.804L5.38459 50.0677L11.5381 56.2071L11.4898 56.2553C9.92123 57.8215 9.92123 60.3691 11.4898 61.9354L21.1119 71.5353C21.8727 72.293 22.8831 72.712 23.9592 72.712C25.0353 72.712 26.0457 72.2943 26.7568 71.5821L26.8575 71.4924L33.0392 77.6599L32.269 78.364ZM35.0197 75.8473L28.8514 69.6932L30.6239 68.0948L36.7815 74.2381L35.0197 75.8473Z" fill="#FF3E54"/>
<path d="M78.9746 0H60.1893C57.97 0 56.1639 1.8019 56.1639 4.01613V14.7258C56.1639 16.94 57.97 18.7419 60.1893 18.7419H63.7733L62.3859 26.8157L75.3343 18.7419H78.9746C81.1939 18.7419 83 16.94 83 14.7258V4.01613C83 1.8019 81.1939 0 78.9746 0ZM80.3164 14.7258C80.3164 15.4634 79.7139 16.0645 78.9746 16.0645H74.5641L66.0423 21.3779L66.9561 16.0645H60.1893C59.45 16.0645 58.8475 15.4634 58.8475 14.7258V4.01613C58.8475 3.2785 59.45 2.67742 60.1893 2.67742H78.9746C79.7139 2.67742 80.3164 3.2785 80.3164 4.01613V14.7258Z" fill="#FF3E54"/>
<path d="M77.6328 5.35484H61.5311V8.03226H77.6328V5.35484Z" fill="#FF3E54"/>
<path d="M72.2656 10.7097H61.5311V13.3871H72.2656V10.7097Z" fill="#FF3E54"/>
<path d="M77.6328 10.7097H74.9492V13.3871H77.6328V10.7097Z" fill="#FF3E54"/>
<path d="M41.404 4.01613C23.872 4.01613 8.77003 16.1154 4.84391 32.9925L2.30119 28.7635L0 30.141L4.71644 37.9819L12.5754 33.2763L11.1947 30.9804L7.55838 33.1572C11.3611 17.7178 25.2769 6.69355 41.404 6.69355C44.9289 6.69355 48.4069 7.21564 51.7413 8.24645L52.5356 5.68952C48.9436 4.57839 45.1986 4.01613 41.404 4.01613Z" fill="#FF3E54"/>
<path d="M82.3477 29.6416L74.4888 24.936L69.7737 32.7782L72.0749 34.1557L74.423 30.2507C75.6588 33.8585 76.2908 37.6324 76.2908 41.4999C76.2908 49.4612 73.5267 57.2445 68.5097 63.4146L70.5935 65.1013C75.9983 58.456 78.9744 50.073 78.9744 41.4999C78.9744 37.4048 78.3129 33.406 77.0234 29.5773L80.967 31.9375L82.3477 29.6416Z" fill="#FF3E54"/>
</svg>
