<svg width="85" height="91" viewBox="0 0 85 91" fill="none" xmlns="http://www.w3.org/2000/svg">
<g filter="url(#filter0_d_288_4569)">
<path d="M5.55996 0.275581C4.90626 0.648438 4.59427 0.988869 4.28228 1.65351C4.01486 2.22089 4 2.73965 4 10.9424C4 19.1451 4.01486 19.6639 4.28228 20.2312C4.60913 20.9121 4.92112 21.2525 5.58968 21.6254C5.99081 21.8361 6.62965 21.8848 9.49702 21.8848H12.9141V30.7846V39.7006L13.3004 40.0248C13.6866 40.3652 13.8352 40.3652 21.1745 40.3652H28.6623V42.8779V45.3906H27.9195C27.3549 45.3906 27.1766 45.3258 27.1766 45.1475C27.1766 44.7098 25.8098 43.3643 25.1561 43.1535C23.8041 42.7158 22.6453 43.0238 21.6796 44.0938C20.2831 45.6014 20.2831 47.7736 21.6796 49.2812C22.6453 50.3512 23.8041 50.6592 25.1561 50.2215C25.8098 50.0107 27.1766 48.6652 27.1766 48.2275C27.1766 48.0492 27.34 47.9844 27.9046 47.9844H28.6326L28.692 50.7078C28.7366 53.4312 28.7366 53.4475 29.1823 54.2418C29.4646 54.7281 29.9103 55.2145 30.356 55.5225L31.084 56.0088L34.1147 56.0574L37.1307 56.1061V63.2389V70.3555H30.5937H24.0567V66.8701C24.0567 63.7576 24.027 63.3037 23.7744 62.7687C23.4476 62.0879 23.1356 61.7475 22.467 61.3746C22.051 61.1477 21.0705 61.1152 14.0283 61.1152C6.98622 61.1152 6.00567 61.1477 5.58968 61.3746C4.92112 61.7475 4.60913 62.0879 4.28228 62.7687C4.01486 63.3361 4 63.8549 4 72.0576C4 80.2604 4.01486 80.7791 4.28228 81.3465C4.60913 82.0273 4.92112 82.3678 5.58968 82.7406C6.00567 82.9676 6.98622 83 14.0283 83C21.0705 83 22.051 82.9676 22.467 82.7406C23.1356 82.3678 23.4476 82.0273 23.7744 81.3465C24.027 80.8115 24.0567 80.3576 24.0567 76.8398V72.9492H31.4108H38.7798L39.1363 72.5439L39.5078 72.1549V64.1143V56.0898H42.4791H45.4505V58.7646C45.4505 61.0666 45.4208 61.4395 45.2276 61.4395C44.8265 61.4395 43.5934 62.9309 43.4002 63.6441C42.9991 65.1193 43.2814 66.3838 44.2619 67.4375C45.6436 68.9613 47.6344 68.9613 49.0161 67.4375C49.9967 66.3838 50.2789 65.1193 49.8778 63.6441C49.6847 62.9309 48.4516 61.4395 48.0504 61.4395C47.8573 61.4395 47.8276 61.0666 47.8276 58.7809V56.1223L50.3978 56.0574C52.864 56.0088 52.9829 55.9926 53.6366 55.5711C54.3794 55.101 55.0331 54.1932 55.256 53.3178C55.3451 53.0098 55.4045 50.7727 55.4045 48.3572V43.9316H62.1644H68.9242V52.5234V61.1152H65.5072C62.4318 61.1152 62.0158 61.1477 61.5255 61.4232C60.2479 62.1365 60.0101 62.8012 60.0101 65.7191C60.0101 68.0535 60.0101 68.0697 60.3964 68.3939C60.9016 68.8154 61.3473 68.8316 61.8375 68.4102C62.1941 68.1021 62.209 68.0049 62.2684 66.0596C62.2981 64.6816 62.3724 63.9846 62.5061 63.8387C62.7884 63.5307 77.2886 63.5307 77.5709 63.8387C77.8532 64.1467 77.8532 79.9686 77.5709 80.2766C77.2886 80.5846 62.7884 80.5846 62.5061 80.2766C62.3575 80.1145 62.2981 79.0121 62.2387 75.932C62.1644 72.0738 62.1495 71.7658 61.8821 71.5551C61.4513 71.2146 60.6638 71.2633 60.3073 71.6523C60.025 71.9604 60.0101 72.1873 60.0101 76.3535C60.0101 80.3414 60.0399 80.7953 60.2924 81.3465C60.6193 82.0273 60.9313 82.3678 61.5998 82.7406C62.0158 82.9676 62.9964 83 70.0385 83C77.556 83 78.0314 82.9838 78.5514 82.692C79.1754 82.3354 79.4874 81.9949 79.8291 81.2654C80.0371 80.8115 80.0668 79.7416 80.0668 72.0576C80.0668 63.8549 80.052 63.3361 79.7845 62.7687C79.4577 62.0879 79.1457 61.7475 78.4771 61.3746C78.076 61.1639 77.452 61.1152 74.659 61.1152H71.3162L71.2716 51.6318L71.227 42.1646L70.8853 41.7918L70.5436 41.4189L62.9815 41.3703L55.4045 41.3217V39.3926V37.4473H57.9748L60.5301 37.4635L60.9164 38.1605C61.169 38.5982 61.5998 39.0521 62.0307 39.3277C62.6398 39.733 62.9221 39.7979 63.7986 39.7979C65.0615 39.7979 65.9529 39.3115 66.6363 38.2416C67.0374 37.6094 67.0671 37.4473 67.0671 36.1504C67.0671 34.8535 67.0374 34.6914 66.6363 34.0592C65.9529 32.9893 65.0615 32.5029 63.7986 32.5029C62.9221 32.5029 62.6398 32.5678 62.0307 32.973C61.5998 33.2486 61.169 33.7025 60.9164 34.1402L60.5301 34.8373L57.9748 34.8535H55.4342L55.3748 32.2111C55.3303 29.585 55.3303 29.5525 54.8845 28.7582C54.6023 28.2719 54.1566 27.7855 53.7109 27.4775C52.9829 26.9912 52.968 26.9912 50.3978 26.9426L47.8276 26.8777V19.518V12.1582H53.9189H60.0101V15.8867C60.0101 19.0154 60.0547 19.7125 60.2479 20.1502C60.5896 20.8797 60.9016 21.2201 61.5255 21.5768C62.0455 21.8686 62.5209 21.8848 70.0385 21.8848C77.556 21.8848 78.0314 21.8686 78.5514 21.5768C79.1754 21.2201 79.4874 20.8797 79.8291 20.1502C80.0371 19.6963 80.0668 18.6264 80.0668 10.9424C80.0668 3.2584 80.0371 2.18848 79.8291 1.73457C79.4874 1.00507 79.1754 0.66465 78.5514 0.308006C78.0314 0.0162125 77.556 0 70.0385 0C62.5209 0 62.0455 0.0162125 61.5255 0.308006C60.9016 0.66465 60.5896 1.00507 60.2479 1.73457C60.0547 2.17226 60.0101 2.86933 60.0101 5.99805V9.72656H53.0274H46.0596L45.7476 10.0832C45.4505 10.4236 45.4505 10.602 45.4505 18.675V26.9102H42.4791H39.5078V24.5596C39.5078 22.5494 39.5375 22.209 39.7306 22.209C40.1317 22.209 41.3649 20.7176 41.558 20.0043C41.9591 18.5291 41.6768 17.2646 40.6963 16.2109C39.3146 14.6871 37.3238 14.6871 35.9421 16.2109C34.9616 17.2646 34.6793 18.5291 35.0804 20.0043C35.2736 20.7176 36.5067 22.209 36.9078 22.209C37.101 22.209 37.1307 22.5494 37.1307 24.5434V26.8939L34.1147 26.9426L31.084 26.9912L30.356 27.4775C29.9103 27.7855 29.4646 28.2719 29.1823 28.7582L28.7366 29.5525L28.692 33.6701L28.6474 37.7715H21.8876H15.1426V29.8281V21.8848H18.5597C21.635 21.8848 22.051 21.8523 22.5413 21.5768C23.819 20.8635 24.0567 20.1988 24.0567 17.2971C24.0567 15.0762 24.0418 14.9627 23.715 14.6223C23.3138 14.217 22.6304 14.1684 22.1996 14.525C21.9322 14.7357 21.8876 15.0113 21.8282 16.8594C21.7836 18.2697 21.6945 19.0154 21.5607 19.1613C21.2785 19.4693 6.77822 19.4693 6.49594 19.1613C6.21366 18.8533 6.21366 3.03144 6.49594 2.72343C6.77822 2.41543 21.2785 2.41543 21.5607 2.72343C21.7093 2.88554 21.7687 3.92304 21.7984 6.9707L21.843 11.0072L22.2293 11.3477C22.7196 11.7691 23.1653 11.7529 23.6704 11.3314L24.0567 11.0072V6.63027C24.0567 2.91797 24.027 2.17226 23.819 1.73457C23.4773 1.00507 23.1653 0.66465 22.5413 0.308006C22.0213 0.0162125 21.5459 0 13.9986 0C7.00107 0.0162125 5.94624 0.0486298 5.55996 0.275581ZM77.5709 2.72343C77.8532 3.03144 77.8532 18.8533 77.5709 19.1613C77.2886 19.4693 62.7884 19.4693 62.5061 19.1613C62.3575 18.9992 62.2981 17.3295 62.2684 11.3801C62.2535 7.21387 62.2684 3.56641 62.313 3.2746C62.3724 2.93418 62.5209 2.69102 62.7289 2.59375C62.9072 2.5127 66.25 2.46406 70.2168 2.48027C75.8624 2.5127 77.4223 2.56133 77.5709 2.72343ZM38.9878 18.0752C39.1958 18.2859 39.3592 18.6102 39.3592 18.8047C39.3592 19.2424 38.7203 19.9395 38.3192 19.9395C37.9181 19.9395 37.2792 19.2424 37.2792 18.8047C37.2792 18.367 37.9181 17.6699 38.3192 17.6699C38.4975 17.6699 38.7946 17.8482 38.9878 18.0752ZM52.3292 29.6822C52.5372 29.7795 52.7749 30.0389 52.864 30.2658C53.1017 30.817 53.1017 52.183 52.864 52.7342C52.7749 52.9611 52.5372 53.2205 52.3292 53.3178C51.824 53.5771 32.2428 53.5771 31.7376 53.3178C31.5297 53.2205 31.2919 52.9611 31.2028 52.7342C30.9651 52.183 30.9651 30.817 31.2028 30.2496C31.2919 30.0389 31.5148 29.7795 31.6931 29.6984C32.1536 29.4553 51.8538 29.4391 52.3292 29.6822ZM64.4375 35.3398C65.0763 36.0045 64.6306 37.2852 63.7689 37.2852C63.2935 37.2852 62.8329 36.734 62.8329 36.1504C62.8329 35.1615 63.7986 34.6914 64.4375 35.3398ZM24.7252 45.958C24.9332 46.1688 25.0967 46.493 25.0967 46.6875C25.0967 46.8658 24.9332 47.2062 24.7252 47.417C24.5321 47.6439 24.235 47.8223 24.0567 47.8223C23.8933 47.8223 23.5813 47.6439 23.3881 47.417C23.1801 47.2062 23.0167 46.8658 23.0167 46.6875C23.0167 46.493 23.1801 46.1688 23.3881 45.958C23.5813 45.7311 23.8933 45.5527 24.0567 45.5527C24.235 45.5527 24.5321 45.7311 24.7252 45.958ZM21.5607 63.8387C21.843 64.1467 21.843 79.9686 21.5607 80.2766C21.2785 80.5846 6.77822 80.5846 6.49594 80.2766C6.34737 80.1145 6.28795 78.4447 6.25823 72.4953C6.22852 68.3291 6.25823 64.6816 6.3028 64.3898C6.36223 64.0494 6.5108 63.8062 6.71879 63.709C6.89708 63.6279 10.2399 63.5793 14.2066 63.5955C19.8522 63.6279 21.4122 63.6766 21.5607 63.8387ZM47.3076 64.1143C47.5156 64.325 47.679 64.6492 47.679 64.8438C47.679 65.2814 47.0402 65.9785 46.639 65.9785C46.2379 65.9785 45.599 65.2814 45.599 64.8438C45.599 64.4061 46.2379 63.709 46.639 63.709C46.8173 63.709 47.1144 63.8873 47.3076 64.1143Z" fill="#FF3E54"/>
</g>
<path d="M64.9274 5.36582L64.4668 5.86836V10.9424V16.0164L64.9274 16.5189L65.3879 17.0215H70.0381H74.6883L75.1488 16.5189L75.6094 16.0164V10.9424V5.86836L75.1488 5.36582L74.6883 4.86328H70.0381H65.3879L64.9274 5.36582ZM73.3809 10.9424V14.5898H70.0381H66.6953V10.9424V7.29492H70.0381H73.3809V10.9424Z" fill="#FF3E54"/>
<path d="M33.9809 32.0328C33.1043 32.5354 33.1192 32.4543 33.1192 41.5324C33.1192 49.4758 33.134 49.8648 33.4014 50.3187C33.966 51.2428 33.758 51.2104 42.0035 51.2266C48.8079 51.2266 49.6845 51.1941 50.0559 50.9672C50.977 50.3674 50.9473 50.6105 50.9473 41.5C50.9473 32.4057 50.9622 32.5191 50.0559 32.0166C49.7439 31.8383 49.1645 31.7734 47.976 31.7734C46.4309 31.7734 46.312 31.7896 45.9703 32.1787C45.7326 32.4219 45.5989 32.7623 45.5989 33.0703C45.5989 33.3783 45.7326 33.7188 45.9703 33.9619C46.2823 34.3186 46.4606 34.3672 47.456 34.3672H48.5702V41.5V48.6328H42.0332H35.4962V41.5V34.3672H38.9876H42.4938L42.8504 33.9619C43.0881 33.7188 43.2218 33.3783 43.2218 33.0703C43.2218 32.7623 43.0881 32.4219 42.8504 32.1787L42.4938 31.7734H38.4379C35.1397 31.7896 34.3077 31.8383 33.9809 32.0328Z" fill="#FF3E54"/>
<path d="M8.91759 66.4811L8.45703 66.9836V72.0576V77.1316L8.91759 77.6342L9.37815 78.1367H14.0283H18.6785L19.1391 77.6342L19.5996 77.1316V72.0576V66.9836L19.1391 66.4811L18.6785 65.9785H14.0283H9.37815L8.91759 66.4811ZM17.3711 72.0576V75.7051H14.0283H10.6856V72.0576V68.4102H14.0283H17.3711V72.0576Z" fill="#FF3E54"/>
<path d="M8.91759 5.36582L8.45703 5.86836V10.9424V16.0164L8.91759 16.5189L9.37815 17.0215H14.0283H18.6785L19.1391 16.5189L19.5996 16.0164V10.9424V5.86836L19.1391 5.36582L18.6785 4.86328H14.0283H9.37815L8.91759 5.36582ZM17.3711 10.9424V14.5898H14.0283H10.6856V10.9424V7.29492H14.0283H17.3711V10.9424Z" fill="#FF3E54"/>
<path d="M64.9274 66.4811L64.4668 66.9836V72.0576V77.1316L64.9274 77.6342L65.3879 78.1367H70.0381H74.6883L75.1488 77.6342L75.6094 77.1316V72.0576V66.9836L75.1488 66.4811L74.6883 65.9785H70.0381H65.3879L64.9274 66.4811ZM73.3809 72.0576V75.7051H70.0381H66.6953V72.0576V68.4102H70.0381H73.3809V72.0576Z" fill="#FF3E54"/>
<defs>
<filter id="filter0_d_288_4569" x="0" y="0" width="84.0664" height="91" filterUnits="userSpaceOnUse" color-interpolation-filters="sRGB">
<feFlood flood-opacity="0" result="BackgroundImageFix"/>
<feColorMatrix in="SourceAlpha" type="matrix" values="0 0 0 0 0 0 0 0 0 0 0 0 0 0 0 0 0 0 127 0" result="hardAlpha"/>
<feOffset dy="4"/>
<feGaussianBlur stdDeviation="2"/>
<feComposite in2="hardAlpha" operator="out"/>
<feColorMatrix type="matrix" values="0 0 0 0 0 0 0 0 0 0 0 0 0 0 0 0 0 0 0.25 0"/>
<feBlend mode="normal" in2="BackgroundImageFix" result="effect1_dropShadow_288_4569"/>
<feBlend mode="normal" in="SourceGraphic" in2="effect1_dropShadow_288_4569" result="shape"/>
</filter>
</defs>
</svg>
