<svg width="21" height="21" viewBox="0 0 21 21" fill="none" xmlns="http://www.w3.org/2000/svg">
<path d="M10.1909 12.0937C9.57286 12.0937 8.96867 11.9105 8.45477 11.5671C7.94087 11.2237 7.54033 10.7357 7.3038 10.1646C7.06728 9.59362 7.00539 8.96528 7.12597 8.35909C7.24655 7.7529 7.54418 7.19608 7.98122 6.75904C8.41826 6.322 8.97508 6.02437 9.58127 5.90379C10.1875 5.78322 10.8158 5.8451 11.3868 6.08163C11.9578 6.31815 12.4459 6.71869 12.7893 7.23259C13.1326 7.7465 13.3159 8.35068 13.3159 8.96875C13.315 9.79726 12.9854 10.5916 12.3996 11.1774C11.8137 11.7633 11.0194 12.0928 10.1909 12.0937ZM10.1909 7.09375C9.82009 7.09375 9.45757 7.20372 9.14923 7.40974C8.84089 7.61577 8.60057 7.90861 8.45865 8.25122C8.31674 8.59383 8.27961 8.97083 8.35195 9.33454C8.4243 9.69826 8.60288 10.0324 8.8651 10.2946C9.12732 10.5568 9.46142 10.7354 9.82513 10.8077C10.1888 10.8801 10.5658 10.8429 10.9085 10.701C11.2511 10.5591 11.5439 10.3188 11.7499 10.0104C11.956 9.7021 12.0659 9.33959 12.0659 8.96875C12.0654 8.47164 11.8677 7.99504 11.5161 7.64353C11.1646 7.29201 10.688 7.0943 10.1909 7.09375Z" fill="#0DC5AE"/>
<path d="M10.1909 19.5938L4.91874 13.3758C4.8888 13.3401 4.70111 13.0936 4.70111 13.0936C3.80043 11.9073 3.31381 10.4582 3.31592 8.96875C3.31592 7.14539 4.04025 5.3967 5.32957 4.10739C6.61888 2.81808 8.36756 2.09375 10.1909 2.09375C12.0143 2.09375 13.763 2.81808 15.0523 4.10739C16.3416 5.3967 17.0659 7.14539 17.0659 8.96875C17.0682 10.4576 16.5819 11.9061 15.6817 13.0921L15.6807 13.0936C15.6807 13.0936 15.4932 13.3401 15.4653 13.3732L10.1909 19.5938ZM5.69874 12.3406C5.69936 12.3411 5.84461 12.5332 5.87786 12.5746L10.1909 17.6612L14.5097 12.5674C14.5371 12.5329 14.6836 12.3394 14.6839 12.3389C15.4197 11.3696 15.8174 10.1857 15.8159 8.96875C15.8159 7.47691 15.2233 6.04617 14.1684 4.99127C13.1135 3.93638 11.6828 3.34375 10.1909 3.34375C8.69908 3.34375 7.26834 3.93638 6.21345 4.99127C5.15856 6.04617 4.56592 7.47691 4.56592 8.96875C4.56454 10.1864 4.96248 11.3708 5.69874 12.3406Z" fill="#0DC5AE"/>
</svg>
