<svg width="82" height="82" viewBox="0 0 82 82" fill="none" xmlns="http://www.w3.org/2000/svg">
<g clip-path="url(#clip0_288_4586)">
<g filter="url(#filter0_d_288_4586)">
<path d="M68.8123 36.2502C68.6933 36.1313 68.552 36.0369 68.3966 35.9725C68.2411 35.9081 68.0745 35.875 67.9062 35.875H49.9688C48.2703 35.8769 46.6419 36.5525 45.441 37.7535C44.24 38.9544 43.5644 40.5828 43.5625 42.2812V73.0312C43.5644 74.7297 44.24 76.3581 45.441 77.559C46.6419 78.76 48.2703 79.4356 49.9688 79.4375H73.0312C74.7297 79.4356 76.3581 78.76 77.559 77.559C78.76 76.3581 79.4356 74.7297 79.4375 73.0312V47.4062C79.4375 47.238 79.4044 47.0714 79.34 46.9159C79.2756 46.7605 79.1812 46.6192 79.0623 46.5002L68.8123 36.2502ZM69.1875 40.2493L75.0632 46.125H73.0312C72.0122 46.1238 71.0352 45.7185 70.3146 44.9979C69.594 44.2773 69.1887 43.3003 69.1875 42.2812V40.2493ZM76.875 73.0312C76.8738 74.0503 76.4685 75.0273 75.7479 75.7479C75.0273 76.4685 74.0503 76.8738 73.0312 76.875H49.9688C48.9497 76.8738 47.9727 76.4685 47.2521 75.7479C46.5315 75.0273 46.1262 74.0503 46.125 73.0312V42.2812C46.1262 41.2622 46.5315 40.2852 47.2521 39.5646C47.9727 38.844 48.9497 38.4387 49.9688 38.4375H66.625V42.2812C66.6269 43.9797 67.3025 45.6081 68.5035 46.809C69.7044 48.01 71.3328 48.6856 73.0312 48.6875H76.875V73.0312Z" fill="#FF3E54"/>
<path d="M70.4688 53.8125H60.2188C59.8789 53.8125 59.5531 53.9475 59.3128 54.1878C59.0725 54.4281 58.9375 54.7539 58.9375 55.0938C58.9375 55.4336 59.0725 55.7594 59.3128 55.9997C59.5531 56.24 59.8789 56.375 60.2188 56.375H70.4688C70.8086 56.375 71.1345 56.24 71.3747 55.9997C71.615 55.7594 71.75 55.4336 71.75 55.0938C71.75 54.7539 71.615 54.4281 71.3747 54.1878C71.1345 53.9475 70.8086 53.8125 70.4688 53.8125Z" fill="#FF3E54"/>
<path d="M52.5312 64.0625H62.7812C63.1211 64.0625 63.4469 63.9275 63.6872 63.6872C63.9275 63.4469 64.0625 63.1211 64.0625 62.7812C64.0625 62.4414 63.9275 62.1156 63.6872 61.8753C63.4469 61.635 63.1211 61.5 62.7812 61.5H52.5312C52.1914 61.5 51.8656 61.635 51.6253 61.8753C51.385 62.1156 51.25 62.4414 51.25 62.7812C51.25 63.1211 51.385 63.4469 51.6253 63.6872C51.8656 63.9275 52.1914 64.0625 52.5312 64.0625Z" fill="#FF3E54"/>
<path d="M70.4688 69.1875H62.7812C62.4414 69.1875 62.1156 69.3225 61.8753 69.5628C61.635 69.803 61.5 70.1289 61.5 70.4688C61.5 70.8086 61.635 71.1345 61.8753 71.3747C62.1156 71.615 62.4414 71.75 62.7812 71.75H70.4688C70.8086 71.75 71.1345 71.615 71.3747 71.3747C71.615 71.1345 71.75 70.8086 71.75 70.4688C71.75 70.1289 71.615 69.803 71.3747 69.5628C71.1345 69.3225 70.8086 69.1875 70.4688 69.1875Z" fill="#FF3E54"/>
<path d="M52.5312 56.375H55.0938C55.4336 56.375 55.7594 56.24 55.9997 55.9997C56.24 55.7594 56.375 55.4336 56.375 55.0938C56.375 54.7539 56.24 54.4281 55.9997 54.1878C55.7594 53.9475 55.4336 53.8125 55.0938 53.8125H52.5312C52.1914 53.8125 51.8656 53.9475 51.6253 54.1878C51.385 54.4281 51.25 54.7539 51.25 55.0938C51.25 55.4336 51.385 55.7594 51.6253 55.9997C51.8656 56.24 52.1914 56.375 52.5312 56.375Z" fill="#FF3E54"/>
<path d="M70.4688 61.5H67.9062C67.5664 61.5 67.2405 61.635 67.0003 61.8753C66.76 62.1156 66.625 62.4414 66.625 62.7812C66.625 63.1211 66.76 63.4469 67.0003 63.6872C67.2405 63.9275 67.5664 64.0625 67.9062 64.0625H70.4688C70.8086 64.0625 71.1345 63.9275 71.3747 63.6872C71.615 63.4469 71.75 63.1211 71.75 62.7812C71.75 62.4414 71.615 62.1156 71.3747 61.8753C71.1345 61.635 70.8086 61.5 70.4688 61.5Z" fill="#FF3E54"/>
<path d="M57.6562 69.1875H52.5312C52.1914 69.1875 51.8656 69.3225 51.6253 69.5628C51.385 69.803 51.25 70.1289 51.25 70.4688C51.25 70.8086 51.385 71.1345 51.6253 71.3747C51.8656 71.615 52.1914 71.75 52.5312 71.75H57.6562C57.9961 71.75 58.3219 71.615 58.5622 71.3747C58.8025 71.1345 58.9375 70.8086 58.9375 70.4688C58.9375 70.1289 58.8025 69.803 58.5622 69.5628C58.3219 69.3225 57.9961 69.1875 57.6562 69.1875Z" fill="#FF3E54"/>
<path d="M52.5312 48.6875H57.6562C57.9961 48.6875 58.3219 48.5525 58.5622 48.3122C58.8025 48.0719 58.9375 47.7461 58.9375 47.4062C58.9375 47.0664 58.8025 46.7406 58.5622 46.5003C58.3219 46.26 57.9961 46.125 57.6562 46.125H52.5312C52.1914 46.125 51.8656 46.26 51.6253 46.5003C51.385 46.7406 51.25 47.0664 51.25 47.4062C51.25 47.7461 51.385 48.0719 51.6253 48.3122C51.8656 48.5525 52.1914 48.6875 52.5312 48.6875Z" fill="#FF3E54"/>
<path d="M8.96875 46.125H32.0312C33.7297 46.1231 35.3581 45.4475 36.559 44.2465C37.76 43.0456 38.4356 41.4172 38.4375 39.7188V14.0938C38.4375 13.9255 38.4044 13.7589 38.34 13.6034C38.2756 13.448 38.1812 13.3067 38.0623 13.1877L27.8123 2.93775C27.6933 2.81877 27.552 2.7244 27.3966 2.66001C27.2411 2.59563 27.0745 2.56249 26.9062 2.5625H8.96875C7.27029 2.56441 5.64195 3.23996 4.44095 4.44095C3.23996 5.64195 2.56441 7.27029 2.5625 8.96875V39.7188C2.56441 41.4172 3.23996 43.0456 4.44095 44.2465C5.64195 45.4475 7.27029 46.1231 8.96875 46.125ZM28.1875 6.93685L34.0632 12.8125H32.0312C31.0122 12.8113 30.0352 12.406 29.3146 11.6854C28.594 10.9648 28.1887 9.98781 28.1875 8.96875V6.93685ZM5.125 8.96875C5.12619 7.94969 5.53153 6.9727 6.25212 6.25212C6.9727 5.53153 7.94969 5.12619 8.96875 5.125H25.625V8.96875C25.6269 10.6672 26.3025 12.2956 27.5035 13.4965C28.7044 14.6975 30.3328 15.3731 32.0312 15.375H35.875V39.7188C35.8738 40.7378 35.4685 41.7148 34.7479 42.4354C34.0273 43.156 33.0503 43.5613 32.0312 43.5625H8.96875C7.94969 43.5613 6.9727 43.156 6.25212 42.4354C5.53153 41.7148 5.12619 40.7378 5.125 39.7188V8.96875Z" fill="#FF3E54"/>
<path d="M19.2188 23.0625H29.4688C29.8086 23.0625 30.1345 22.9275 30.3747 22.6872C30.615 22.447 30.75 22.1211 30.75 21.7812C30.75 21.4414 30.615 21.1155 30.3747 20.8753C30.1345 20.635 29.8086 20.5 29.4688 20.5H19.2188C18.8789 20.5 18.5531 20.635 18.3128 20.8753C18.0725 21.1155 17.9375 21.4414 17.9375 21.7812C17.9375 22.1211 18.0725 22.447 18.3128 22.6872C18.5531 22.9275 18.8789 23.0625 19.2188 23.0625Z" fill="#FF3E54"/>
<path d="M11.5312 30.75H21.7812C22.1211 30.75 22.447 30.615 22.6872 30.3747C22.9275 30.1345 23.0625 29.8086 23.0625 29.4688C23.0625 29.1289 22.9275 28.803 22.6872 28.5628C22.447 28.3225 22.1211 28.1875 21.7812 28.1875H11.5312C11.1914 28.1875 10.8656 28.3225 10.6253 28.5628C10.385 28.803 10.25 29.1289 10.25 29.4688C10.25 29.8086 10.385 30.1345 10.6253 30.3747C10.8656 30.615 11.1914 30.75 11.5312 30.75Z" fill="#FF3E54"/>
<path d="M29.4688 35.875H21.7812C21.4414 35.875 21.1155 36.01 20.8753 36.2503C20.635 36.4906 20.5 36.8164 20.5 37.1562C20.5 37.4961 20.635 37.8219 20.8753 38.0622C21.1155 38.3025 21.4414 38.4375 21.7812 38.4375H29.4688C29.8086 38.4375 30.1345 38.3025 30.3747 38.0622C30.615 37.8219 30.75 37.4961 30.75 37.1562C30.75 36.8164 30.615 36.4906 30.3747 36.2503C30.1345 36.01 29.8086 35.875 29.4688 35.875Z" fill="#FF3E54"/>
<path d="M11.5312 23.0625H14.0938C14.4336 23.0625 14.7594 22.9275 14.9997 22.6872C15.24 22.447 15.375 22.1211 15.375 21.7812C15.375 21.4414 15.24 21.1155 14.9997 20.8753C14.7594 20.635 14.4336 20.5 14.0938 20.5H11.5312C11.1914 20.5 10.8656 20.635 10.6253 20.8753C10.385 21.1155 10.25 21.4414 10.25 21.7812C10.25 22.1211 10.385 22.447 10.6253 22.6872C10.8656 22.9275 11.1914 23.0625 11.5312 23.0625Z" fill="#FF3E54"/>
<path d="M29.4688 28.1875H26.9062C26.5664 28.1875 26.2405 28.3225 26.0003 28.5628C25.76 28.803 25.625 29.1289 25.625 29.4688C25.625 29.8086 25.76 30.1345 26.0003 30.3747C26.2405 30.615 26.5664 30.75 26.9062 30.75H29.4688C29.8086 30.75 30.1345 30.615 30.3747 30.3747C30.615 30.1345 30.75 29.8086 30.75 29.4688C30.75 29.1289 30.615 28.803 30.3747 28.5628C30.1345 28.3225 29.8086 28.1875 29.4688 28.1875Z" fill="#FF3E54"/>
<path d="M11.5312 38.4375H16.6562C16.9961 38.4375 17.3219 38.3025 17.5622 38.0622C17.8025 37.8219 17.9375 37.4961 17.9375 37.1562C17.9375 36.8164 17.8025 36.4906 17.5622 36.2503C17.3219 36.01 16.9961 35.875 16.6562 35.875H11.5312C11.1914 35.875 10.8656 36.01 10.6253 36.2503C10.385 36.4906 10.25 36.8164 10.25 37.1562C10.25 37.4961 10.385 37.8219 10.6253 38.0622C10.8656 38.3025 11.1914 38.4375 11.5312 38.4375Z" fill="#FF3E54"/>
<path d="M11.5312 15.375H16.6562C16.9961 15.375 17.3219 15.24 17.5622 14.9997C17.8025 14.7594 17.9375 14.4336 17.9375 14.0938C17.9375 13.7539 17.8025 13.4281 17.5622 13.1878C17.3219 12.9475 16.9961 12.8125 16.6562 12.8125H11.5312C11.1914 12.8125 10.8656 12.9475 10.6253 13.1878C10.385 13.4281 10.25 13.7539 10.25 14.0938C10.25 14.4336 10.385 14.7594 10.6253 14.9997C10.8656 15.24 11.1914 15.375 11.5312 15.375Z" fill="#FF3E54"/>
<path d="M37.1563 66.6247H21.7813C19.4035 66.622 17.1238 65.6762 15.4424 63.9948C13.761 62.3134 12.8152 60.0337 12.8125 57.6559V55.6242L15.7503 58.5619C15.8693 58.6809 16.0105 58.7753 16.166 58.8397C16.3214 58.9041 16.488 58.9372 16.6563 58.9372C16.8246 58.9372 16.9912 58.9041 17.1466 58.8397C17.3021 58.7753 17.4433 58.6809 17.5623 58.5619C17.6813 58.4429 17.7757 58.3017 17.84 58.1462C17.9044 57.9908 17.9376 57.8242 17.9376 57.6559C17.9376 57.4876 17.9044 57.321 17.84 57.1656C17.7757 57.0101 17.6813 56.8689 17.5623 56.7499L12.4373 51.6249C12.3183 51.5059 12.1771 51.4115 12.0216 51.3471C11.8662 51.2828 11.6996 51.2496 11.5313 51.2496C11.363 51.2496 11.1964 51.2828 11.041 51.3471C10.8855 51.4115 10.7443 51.5059 10.6253 51.6249L5.50029 56.7499C5.26 56.9902 5.12501 57.3161 5.12501 57.6559C5.12501 57.9957 5.26 58.3216 5.50029 58.5619C5.74058 58.8022 6.06648 58.9372 6.40629 58.9372C6.74611 58.9372 7.07201 58.8022 7.3123 58.5619L10.25 55.6242V57.6559C10.2535 60.7131 11.4695 63.6442 13.6313 65.8059C15.793 67.9677 18.7241 69.1837 21.7813 69.1872H37.1563C37.4961 69.1872 37.822 69.0522 38.0623 68.8119C38.3026 68.5716 38.4375 68.2457 38.4375 67.9059C38.4375 67.5661 38.3026 67.2402 38.0623 66.9999C37.822 66.7596 37.4961 66.6247 37.1563 66.6247Z" fill="#FF3E54"/>
<path d="M76.4998 23.4377C76.3808 23.3188 76.2395 23.2244 76.0841 23.16C75.9286 23.0956 75.762 23.0625 75.5938 23.0625C75.4255 23.0625 75.2589 23.0956 75.1034 23.16C74.948 23.2244 74.8067 23.3188 74.6877 23.4377L71.75 26.3755V24.3438C71.7466 21.2865 70.5306 18.3555 68.3688 16.1937C66.207 14.0319 63.276 12.8159 60.2188 12.8125H44.8438C44.5039 12.8125 44.1781 12.9475 43.9378 13.1878C43.6975 13.4281 43.5625 13.7539 43.5625 14.0938C43.5625 14.4336 43.6975 14.7594 43.9378 14.9997C44.1781 15.24 44.5039 15.375 44.8438 15.375H60.2188C62.5966 15.3777 64.8763 16.3234 66.5577 18.0048C68.2391 19.6862 69.1848 21.9659 69.1875 24.3438V26.3755L66.2498 23.4377C66.0095 23.1975 65.6836 23.0625 65.3438 23.0625C65.0039 23.0625 64.678 23.1975 64.4377 23.4377C64.1975 23.678 64.0625 24.0039 64.0625 24.3438C64.0625 24.6836 64.1975 25.0095 64.4377 25.2498L69.5627 30.3748C69.6817 30.4937 69.823 30.5881 69.9784 30.6525C70.1339 30.7169 70.3005 30.75 70.4688 30.75C70.637 30.75 70.8036 30.7169 70.9591 30.6525C71.1145 30.5881 71.2558 30.4937 71.3748 30.3748L76.4998 25.2498C76.6187 25.1308 76.7131 24.9895 76.7775 24.8341C76.8419 24.6786 76.875 24.512 76.875 24.3438C76.875 24.1755 76.8419 24.0089 76.7775 23.8534C76.7131 23.698 76.6187 23.5567 76.4998 23.4377Z" fill="#FF3E54"/>
</g>
</g>
<defs>
<filter id="filter0_d_288_4586" x="-1.4375" y="2.5625" width="84.875" height="84.875" filterUnits="userSpaceOnUse" color-interpolation-filters="sRGB">
<feFlood flood-opacity="0" result="BackgroundImageFix"/>
<feColorMatrix in="SourceAlpha" type="matrix" values="0 0 0 0 0 0 0 0 0 0 0 0 0 0 0 0 0 0 127 0" result="hardAlpha"/>
<feOffset dy="4"/>
<feGaussianBlur stdDeviation="2"/>
<feComposite in2="hardAlpha" operator="out"/>
<feColorMatrix type="matrix" values="0 0 0 0 0 0 0 0 0 0 0 0 0 0 0 0 0 0 0.25 0"/>
<feBlend mode="normal" in2="BackgroundImageFix" result="effect1_dropShadow_288_4586"/>
<feBlend mode="normal" in="SourceGraphic" in2="effect1_dropShadow_288_4586" result="shape"/>
</filter>
<clipPath id="clip0_288_4586">
<rect width="82" height="82" fill="white"/>
</clipPath>
</defs>
</svg>
