<svg width="16" height="16" viewBox="0 0 16 16" fill="none" xmlns="http://www.w3.org/2000/svg">
<path d="M15.02 6.004C15.14 6.004 15.236 6.052 15.308 6.148C15.404 6.22 15.452 6.316 15.452 6.436V9.928C15.452 10.048 15.404 10.156 15.308 10.252C15.236 10.324 15.14 10.36 15.02 10.36H10.088C9.968 10.36 9.908 10.42 9.908 10.54V15.4C9.908 15.52 9.86 15.628 9.764 15.724C9.692 15.796 9.596 15.832 9.476 15.832H6.02C5.9 15.832 5.792 15.796 5.696 15.724C5.624 15.628 5.588 15.52 5.588 15.4V10.54C5.588 10.42 5.528 10.36 5.408 10.36H0.476C0.356 10.36 0.248 10.324 0.152 10.252C0.08 10.156 0.044 10.048 0.044 9.928V6.436C0.044 6.316 0.08 6.22 0.152 6.148C0.248 6.052 0.356 6.004 0.476 6.004H5.408C5.528 6.004 5.588 5.944 5.588 5.824V0.856C5.588 0.736 5.624 0.64 5.696 0.567999C5.792 0.471999 5.9 0.423999 6.02 0.423999H9.476C9.596 0.423999 9.692 0.471999 9.764 0.567999C9.86 0.64 9.908 0.736 9.908 0.856V5.824C9.908 5.944 9.968 6.004 10.088 6.004H15.02Z" fill="#FA541C"/>
</svg>
