<svg width="88" height="90" viewBox="0 0 88 90" fill="none" xmlns="http://www.w3.org/2000/svg">
<g clip-path="url(#clip0_1597_4668)" filter="url(#filter0_d_1597_4668)">
<path d="M77.7258 25.129H70.0806C69.3776 25.129 68.8064 25.7199 68.8064 26.4516V27.7742H53.5161V15.871C53.5161 15.1393 52.945 14.5484 52.2419 14.5484H47.1452C46.4421 14.5484 45.871 15.1393 45.871 15.871V27.7742H45.2146C44.57 27.7742 43.9379 27.851 43.3226 27.9886V18.5161C43.3226 17.7844 42.7514 17.1935 42.0484 17.1935H36.9516C36.2486 17.1935 35.6774 17.7844 35.6774 18.5161V28.5491L35.3041 28.1617C35.0658 27.913 34.7411 27.7742 34.4032 27.7742H33.129V21.1613C33.129 20.4296 32.5579 19.8387 31.8548 19.8387H26.7581C26.055 19.8387 25.4839 20.4296 25.4839 21.1613V27.7742H10.1935V26.4516C10.1935 25.7199 9.6224 25.129 8.91935 25.129H1.27419C0.571147 25.129 0 25.7199 0 26.4516V58.1935C0 58.9252 0.571147 59.5161 1.27419 59.5161H8.91935C9.6224 59.5161 10.1935 58.9252 10.1935 58.1935V54.2258L13.2515 56.6062C13.4724 56.7786 13.7411 56.871 14.0161 56.871H16.0382L15.4459 57.4858C14.5232 58.4422 14.0161 59.7118 14.0161 61.066C14.0161 63.9346 16.381 66.2614 19.1179 66.1239C19.1141 66.202 19.1129 66.2782 19.1129 66.3563C19.1129 69.225 21.4728 71.5466 24.2147 71.4142C24.2109 71.4923 24.2097 71.5685 24.2097 71.6467C24.2097 74.5153 26.5646 76.855 29.3114 76.7045C29.3077 76.7826 29.3065 76.8589 29.3065 76.937C29.3065 79.7281 31.494 82 34.1855 82C35.4877 82 36.7121 81.4737 37.6348 80.5173L39.5 78.5799L41.3665 80.5173C42.2879 81.4737 43.5123 82 44.8145 82C47.506 82 49.6935 79.7281 49.6935 76.937C49.6935 76.8511 49.6743 76.7704 49.6693 76.6858C49.7508 76.6897 49.8298 76.7097 49.9113 76.7097C52.6028 76.7097 54.7903 74.4378 54.7903 71.6467C54.7903 71.5608 54.771 71.4801 54.7661 71.3955C54.8476 71.3993 54.9266 71.4194 55.0081 71.4194C57.6996 71.4194 59.8871 69.1475 59.8871 66.3563C59.8871 66.2705 59.8678 66.1897 59.8628 66.1051C59.9443 66.109 60.0233 66.129 60.1049 66.129C62.7963 66.129 64.9839 63.8571 64.9839 61.066C64.9839 59.7131 64.4768 58.4422 63.5541 57.4858L62.9631 56.871H64.9839C65.2589 56.871 65.5276 56.7786 65.7485 56.6062L68.8064 54.2258V58.1935C68.8064 58.9252 69.3776 59.5161 70.0806 59.5161H77.7258C78.4288 59.5161 79 58.9252 79 58.1935V26.4516C79 25.7199 78.4288 25.129 77.7258 25.129ZM48.4194 17.1935H50.9677V27.7742H48.4194V17.1935ZM38.2258 19.8387H40.7742V29.0096C40.1016 29.4113 39.472 29.9008 38.9089 30.4852L38.2258 31.1943V19.8387ZM28.0323 22.4839H30.5806V27.7742H28.0323V22.4839ZM7.64516 56.871H2.54839V27.7742H7.64516V56.871ZM14.4404 54.2258L10.1935 50.9194V30.4194H33.8756L44.924 41.8886C45.5344 42.5221 45.871 43.3649 45.871 44.26C45.871 46.1076 44.4207 47.6129 42.6394 47.6129C41.7759 47.6129 40.9652 47.2635 40.3549 46.6313L34.0299 40.0649C33.5521 39.5689 32.706 39.5689 32.2281 40.0649L18.5866 54.2258H14.4404ZM35.833 78.647C35.3918 79.1036 34.807 79.3548 34.1855 79.3548C32.8995 79.3548 31.8548 78.2706 31.8548 76.937C31.8548 76.3009 32.1031 75.6783 32.538 75.2269L34.42 73.2734C34.4692 73.3302 34.5065 73.3955 34.5588 73.4497L37.6982 76.7097L35.833 78.647ZM47.1452 76.937C47.1452 78.2706 46.1005 79.3548 44.8145 79.3548C44.193 79.3548 43.6069 79.1036 43.167 78.647L36.3593 71.5795C35.9257 71.1281 35.6774 70.5069 35.6774 69.8695C35.6774 68.5359 36.722 67.4516 38.008 67.4516C38.6296 67.4516 39.2157 67.7028 39.6555 68.1594L46.4633 75.2269C46.8969 75.6783 47.1452 76.2996 47.1452 76.937ZM52.2419 71.6467C52.2419 72.9802 51.1973 74.0645 49.9113 74.0645C49.2898 74.0645 48.7037 73.8133 48.2638 73.3567L41.4561 66.2892C41.0224 65.8378 40.7742 65.2165 40.7742 64.5791C40.7742 63.2456 41.8188 62.1613 43.1048 62.1613C43.7264 62.1613 44.3124 62.4125 44.7523 62.8691L51.56 69.9366C51.9937 70.388 52.2419 71.0093 52.2419 71.6467ZM57.3387 66.3563C57.3387 67.6899 56.2941 68.7742 55.0081 68.7742C54.3865 68.7742 53.8005 68.523 53.3606 68.0664L46.5529 60.9989C46.1192 60.5475 45.871 59.9262 45.871 59.2888C45.871 57.9552 46.9156 56.871 48.2016 56.871C48.8231 56.871 49.4092 57.1222 49.8491 57.5788L56.6568 64.6463C57.0905 65.0977 57.3387 65.719 57.3387 66.3563ZM60.1049 63.4839C59.4833 63.4839 58.8972 63.2327 58.4574 62.7761L51.6496 55.7085C51.216 55.2571 50.9677 54.6359 50.9677 53.9985C50.9677 52.6649 52.0124 51.5806 53.2984 51.5806C53.9199 51.5806 54.506 51.8319 54.9459 52.2884L61.7536 59.356C62.1872 59.8074 62.4355 60.4286 62.4355 61.066C62.4355 62.3996 61.3909 63.4839 60.1049 63.4839ZM64.5596 54.2258H60.4147L56.7464 50.4182C55.825 49.4618 54.6006 48.9355 53.2984 48.9355C50.6069 48.9355 48.4194 51.2074 48.4194 53.9985C48.4194 54.0844 48.4386 54.1651 48.4436 54.2497C48.3621 54.2458 48.2831 54.2258 48.2016 54.2258C45.5101 54.2258 43.3226 56.4977 43.3226 59.2888C43.3226 59.3747 43.3419 59.4554 43.3468 59.54C43.2653 59.5361 43.1863 59.5161 43.1048 59.5161C40.4133 59.5161 38.2258 61.788 38.2258 64.5791C38.2258 64.665 38.2451 64.7457 38.2501 64.8303C38.1686 64.8265 38.0896 64.8064 38.008 64.8064C35.3166 64.8064 33.129 67.0783 33.129 69.8695C33.129 70.1801 33.162 70.4842 33.2143 70.782L30.7362 73.3554C30.2951 73.8133 29.7102 74.0645 29.0887 74.0645C27.8027 74.0645 26.7581 72.9802 26.7581 71.6467C26.7581 71.0106 27.0063 70.388 27.4412 69.9366L30.2073 67.0641C30.4556 66.8065 30.5806 66.4674 30.5806 66.129C30.5806 65.7906 30.4556 65.4516 30.2073 65.1939C29.709 64.6767 28.9039 64.6767 28.4056 65.1939L25.6394 68.0664C25.1983 68.523 24.6135 68.7742 23.9919 68.7742C22.7059 68.7742 21.6613 67.6899 21.6613 66.3563C21.6613 65.7202 21.9095 65.0977 22.3444 64.6463L25.1106 61.7738C25.3588 61.5161 25.4839 61.1771 25.4839 60.8387C25.4839 60.5003 25.3588 60.1613 25.1106 59.9036C24.6122 59.3863 23.8071 59.3863 23.3088 59.9036L20.5426 62.7761C20.1015 63.2327 19.5167 63.4839 18.8951 63.4839C17.6091 63.4839 16.5645 62.3996 16.5645 61.066C16.5645 60.4299 16.8128 59.8074 17.2477 59.356L33.129 42.8702L38.5531 48.5015C39.645 49.6336 41.0952 50.2581 42.6394 50.2581C45.8262 50.2581 48.4194 47.5677 48.4194 44.26C48.4194 42.6584 47.8177 41.1505 46.7258 40.0184L40.0276 33.0645L40.7107 32.3554C41.9134 31.1084 43.5123 30.4194 45.2146 30.4194H68.8064V50.9194L64.5596 54.2258ZM76.4516 56.871H71.3548V27.7742H76.4516V56.871Z" fill="#FF3E54"/>
<path d="M24.7373 17.1935H31.8548C32.1927 17.1935 32.5174 17.0547 32.7557 16.8061L37.4792 11.9032H52.2419C52.5798 11.9032 52.9045 11.7644 53.1428 11.5157L59.8871 4.51537V9.25806H62.4355V1.32258C62.4355 0.590899 61.8643 0 61.1613 0H53.5161V2.64516H58.0853L51.7143 9.25806H36.9516C36.6138 9.25806 36.289 9.39691 36.0507 9.64554L31.3272 14.5484H24.2097C23.8718 14.5484 23.5471 14.6872 23.3088 14.9359L16.9378 21.5488L18.7396 23.419L24.7373 17.1935Z" fill="#FF3E54"/>
</g>
<defs>
<filter id="filter0_d_1597_4668" x="0" y="0" width="88" height="90" filterUnits="userSpaceOnUse" color-interpolation-filters="sRGB">
<feFlood flood-opacity="0" result="BackgroundImageFix"/>
<feColorMatrix in="SourceAlpha" type="matrix" values="0 0 0 0 0 0 0 0 0 0 0 0 0 0 0 0 0 0 127 0" result="hardAlpha"/>
<feOffset dx="5" dy="4"/>
<feGaussianBlur stdDeviation="2"/>
<feComposite in2="hardAlpha" operator="out"/>
<feColorMatrix type="matrix" values="0 0 0 0 0 0 0 0 0 0 0 0 0 0 0 0 0 0 0.25 0"/>
<feBlend mode="normal" in2="BackgroundImageFix" result="effect1_dropShadow_1597_4668"/>
<feBlend mode="normal" in="SourceGraphic" in2="effect1_dropShadow_1597_4668" result="shape"/>
</filter>
<clipPath id="clip0_1597_4668">
<rect width="79" height="82" fill="white"/>
</clipPath>
</defs>
</svg>
