<svg width="91" height="91" viewBox="0 0 91 91" fill="none" xmlns="http://www.w3.org/2000/svg">
<g filter="url(#filter0_d_288_4544)">
<path d="M16.1836 0.173897C15.0667 0.495781 14.0012 1.37673 13.4513 2.42709L12.9358 3.44357L12.8843 7.30619L12.8155 11.1688H10.2894C6.62919 11.1688 5.47785 11.6601 4.48116 13.6761L4 14.6418V43.3573V72.0728L4.39524 72.8691C4.61863 73.2926 5.13416 73.9533 5.54658 74.343C6.92132 75.5966 6.23395 75.5458 23.1948 75.5458H38.2826V78.9341C38.2826 82.1021 38.2998 82.3393 38.6263 82.6612C38.97 83 39.1934 83 49.9679 83C60.7424 83 60.9658 83 61.3095 82.6612C61.636 82.3393 61.6532 82.1021 61.6532 78.9341V75.5458H67.8052C74.8679 75.5458 75.246 75.495 76.552 74.3091C77.9267 73.0724 78.047 72.6489 78.1157 68.2272L78.1845 64.3984L80.9683 64.3307C83.4257 64.2798 83.8209 64.229 84.4395 63.9071C85.4019 63.3989 86.2095 62.5857 86.6391 61.6539L87 60.8916V32.1591V3.44357L86.4845 2.42709C85.9174 1.34284 84.852 0.478836 83.6834 0.156952C82.8758 -0.0632858 16.9569 -0.0463409 16.1836 0.173897ZM83.3054 2.61344C83.5631 2.74898 83.9584 3.07086 84.1474 3.30804C84.4911 3.74851 84.5083 3.95181 84.5083 8.89867V14.0488H63.3888H42.2694L39.5542 11.3382C37.5265 9.30527 36.6845 8.57679 36.2377 8.4582C35.4128 8.23796 24.982 8.23796 24.1571 8.4582C23.8135 8.55984 23.3323 8.86479 23.0917 9.15279C22.6621 9.64409 22.6449 9.76268 22.6449 11.8634V14.0488H18.9331H15.2385L15.2901 9.00032C15.3416 3.40968 15.3588 3.39275 16.5101 2.69815C17.0429 2.35932 17.6443 2.35932 49.9335 2.35932C78.6141 2.35932 82.8758 2.39321 83.3054 2.61344ZM38.0592 13.3034C39.4511 14.7604 40.8087 16.0479 41.0665 16.1834C41.4617 16.3867 44.9157 16.4206 63.028 16.4206H84.5083V38.5121V60.5866L84.1474 61.0441C83.3569 62.0266 83.7694 61.9928 71.8435 61.9758H60.8799L61.7907 61.5692C62.564 61.2135 62.753 61.0441 63.0623 60.3495C63.3545 59.7057 63.3888 59.4346 63.2513 58.9433C63.1654 58.6045 60.4331 53.6238 57.1853 47.8637C51.652 38.0377 51.2567 37.377 50.6725 37.1399C50.1398 36.9196 49.9679 36.9027 49.3665 37.106C48.6963 37.3431 48.6104 37.4617 45.7062 42.595C37.1313 57.7405 36.6501 58.6384 36.6673 59.4516C36.6845 60.468 37.1313 61.1118 38.1967 61.5862L39.0559 61.9758H28.058C17.4553 61.9928 17.0429 61.9758 16.5101 61.6539C16.2008 61.4845 15.8228 61.1288 15.6509 60.8577C15.3588 60.4172 15.3416 59.2822 15.2901 38.4104L15.2557 16.4206H19.4487H23.6416L24.1743 15.9801C24.8617 15.4211 25.0507 14.6757 25.0507 12.4733V10.6606H30.2747H35.4988L38.0592 13.3034ZM12.8843 37.2246L12.9358 60.9085L13.4513 61.925C14.0184 63.0092 15.0839 63.8733 16.2524 64.1951C16.6648 64.2968 21.3733 64.3645 29.2952 64.3645C41.7023 64.3645 41.7023 64.3645 41.8913 64.7203C42.0116 64.9067 42.1319 65.4827 42.1834 65.9909L42.2865 66.9057H41.4445C40.2416 66.9057 39.4511 67.1768 38.8669 67.7698C38.3685 68.278 38.3685 68.278 38.317 70.7345L38.2654 73.174H23.3151C7.09317 73.174 7.62588 73.2079 6.86977 72.2423L6.49172 71.7679V43.4081C6.49172 17.0136 6.5089 14.9976 6.78385 14.5401C7.28219 13.71 7.86646 13.5406 10.4785 13.5406H12.8499L12.8843 37.2246ZM48.765 44.8482V47.3385L48.1292 47.6774C46.8919 48.3381 46.1186 50.1847 46.5139 51.6077C46.995 53.3696 48.2667 54.2506 50.1569 54.1659C51.0677 54.1151 51.4458 54.0134 51.9785 53.6407C54.0578 52.2176 54.0062 49.0496 51.8754 47.7621L51.188 47.3385L51.1708 44.8143C51.1708 43.4251 51.2052 42.3239 51.2395 42.3578C51.3427 42.4594 60.794 59.2822 60.794 59.3499C60.794 59.4007 60.5019 59.5193 60.1582 59.6379C57.6149 60.4511 55.5184 63.1109 55.3294 65.7368L55.2435 66.9057H49.9679H44.6923L44.6064 65.7199C44.4174 63.2803 42.6646 60.8746 40.2588 59.7565L39.1246 59.2483L39.4511 58.7062C39.623 58.4181 41.771 54.6233 44.2112 50.2524C46.6513 45.8985 48.6791 42.3408 48.7135 42.3408C48.7478 42.3408 48.765 43.459 48.765 44.8482ZM50.8099 50.0661C51.0161 50.3202 51.1708 50.6082 51.1708 50.7268C51.1708 51.1673 50.4663 51.828 49.9851 51.828C48.9712 51.828 48.4901 50.8623 49.1087 50.083C49.607 49.4731 50.3288 49.4731 50.8099 50.0661ZM75.7099 67.99C75.624 73.462 76.088 73.174 67.7193 73.174H61.6704L61.6188 70.7345C61.5673 68.3966 61.5501 68.2611 61.1377 67.8206C60.5362 67.1938 59.7629 66.9057 58.6288 66.9057H57.6493L57.7524 65.9909C57.9414 64.1951 56.9791 64.3645 66.9975 64.3645H75.7787L75.7099 67.99ZM59.2474 74.9529V80.6282H49.9679H40.6884V74.9529V69.2775H49.9679H59.2474V74.9529Z" fill="#FF3E54"/>
<path d="M62.2552 5.34066C60.9664 6.00138 60.3821 7.05174 60.4852 8.49175C60.6055 10.2028 61.8943 11.3379 63.6815 11.3379C65.2968 11.3379 66.3794 10.5247 66.809 8.99999C67.1699 7.6108 66.4653 6.01832 65.2109 5.42537C64.3173 5.00184 62.9941 4.96796 62.2552 5.34066ZM64.3345 7.86492C64.7985 8.55951 63.6643 9.35576 63.0629 8.76281C62.7707 8.47481 62.8051 8.01739 63.1316 7.69551C63.4925 7.33974 64.0424 7.42445 64.3345 7.86492Z" fill="#FF3E54"/>
<path d="M69.5404 5.54461C67.4954 6.83215 67.6157 9.93241 69.7294 10.9997C70.4683 11.3724 71.8259 11.4402 72.5992 11.1522C74.1973 10.5592 74.9706 8.47545 74.2145 6.83215C73.6989 5.73096 72.8226 5.1719 71.465 5.10413C70.4511 5.05331 70.2449 5.10413 69.5404 5.54461ZM71.8602 7.71309C72.4273 8.25522 72.0836 8.96675 71.2416 8.96675C70.5886 8.96675 70.2965 8.40769 70.6745 7.84862C70.9838 7.37427 71.465 7.32344 71.8602 7.71309Z" fill="#FF3E54"/>
<path d="M77.5485 5.30678C76.4315 5.79808 75.7441 6.89927 75.7441 8.20375C75.7441 9.13552 75.9847 9.76235 76.569 10.3722C77.2564 11.1007 77.8578 11.3379 78.9404 11.3379C80.8479 11.3379 82.1023 10.1012 82.1023 8.22069C82.1023 7.69551 81.9992 7.05174 81.8617 6.79762C81.5352 6.18773 80.7448 5.47619 80.1605 5.25596C79.4903 5.00184 78.1671 5.03572 77.5485 5.30678ZM79.4903 7.64468C79.6106 7.76327 79.6965 8.00045 79.6965 8.20375C79.6965 8.40704 79.6106 8.64422 79.4903 8.76281C79.37 8.8814 79.1294 8.96611 78.9232 8.96611C78.717 8.96611 78.4764 8.8814 78.3561 8.76281C78.2359 8.64422 78.1499 8.40704 78.1499 8.20375C78.1499 8.00045 78.2359 7.76327 78.3561 7.64468C78.4764 7.52609 78.717 7.44139 78.9232 7.44139C79.1294 7.44139 79.37 7.52609 79.4903 7.64468Z" fill="#FF3E54"/>
<path d="M46.2208 24.7219C45.4991 25.1623 45.1554 25.9586 45.1554 27.2631V28.2795H37.4224H29.7067L29.4833 27.5511C29.174 26.5346 27.7821 25.1962 26.7166 24.9082C24.0875 24.1797 21.5098 25.535 20.9256 27.9576C20.0835 31.4306 23.1595 34.2937 26.6651 33.2942C27.7649 32.9723 28.8131 32.1422 29.2427 31.2443L29.5349 30.6513H34.6386H39.7251L38.4535 31.4137C33.8481 34.2259 30.2394 38.7662 28.7272 43.6453L28.2976 45.0514H27.2494C25.8231 45.0514 25.0841 45.4241 24.6717 46.3559C24.3796 47.0166 24.3452 47.4232 24.3968 50.0491C24.4483 52.7089 24.4827 53.0308 24.8092 53.4713C25.5137 54.403 26.0465 54.5386 29.2599 54.5386C33.8653 54.5386 33.9856 54.403 33.9856 49.7103C33.9856 46.9489 33.9512 46.61 33.6419 46.1018C33.2467 45.458 32.4046 45.0514 31.4939 45.0514C30.9096 45.0514 30.8924 45.0345 30.9955 44.5771C31.3564 43.1371 32.7827 40.2909 33.9684 38.7154C35.6868 36.3944 38.0583 34.3445 40.5672 33.0231C41.8388 32.3454 44.4336 31.329 44.8804 31.329C45.0179 31.329 45.1897 31.6509 45.31 32.0744C45.4303 32.5487 45.6881 32.9723 46.0318 33.2603L46.5645 33.7008H49.9154C52.768 33.7008 53.3351 33.6499 53.7647 33.4128C54.3146 33.0909 54.7786 32.2607 54.7786 31.617V31.1934L55.6893 31.4476C57.0641 31.8203 60.5696 33.5822 61.8241 34.5309C64.8313 36.7671 67.3059 40.0368 68.6119 43.459C69.1618 44.9159 69.1618 45.0514 68.526 45.0514C67.7011 45.0514 66.8419 45.4919 66.4639 46.1018C66.1545 46.61 66.1202 46.9489 66.1202 49.795C66.1202 54.4539 66.2061 54.5386 70.8802 54.5386C74.0593 54.5386 74.6092 54.403 75.2966 53.4713C75.6231 53.0477 75.6574 52.7089 75.709 50.2355C75.7777 47.1183 75.6403 46.3559 74.8841 45.6444C74.403 45.187 74.214 45.1361 73.0282 45.0853L71.7051 45.0176L71.2239 43.5606C69.5742 38.4613 65.9311 33.9549 61.3429 31.312L60.1916 30.6513H65.3812C70.5022 30.6513 70.5709 30.6513 70.674 31.0071C70.863 31.5661 71.9628 32.6673 72.7017 33.057C74.214 33.8024 76.3792 33.5652 77.7024 32.4979C79.5411 30.9901 79.6957 27.7713 78.0117 26.0263C76.826 24.7896 74.5233 24.3491 72.8564 25.0607C71.7738 25.5181 70.7427 26.6193 70.4334 27.5849L70.2272 28.2795H62.5115H54.7786V27.2631C54.7786 25.9586 54.4349 25.1623 53.7131 24.7219C53.1976 24.4169 52.8539 24.383 49.967 24.383C47.08 24.383 46.7363 24.4169 46.2208 24.7219ZM52.3728 29.1266V31.4984H49.967H47.5612V29.1266V26.7548H49.967H52.3728V29.1266ZM26.6135 27.568C27.2837 28.1609 27.4728 29.296 27.026 30.1261C26.7338 30.7021 25.909 31.1596 25.1872 31.1596C24.2765 31.1596 23.1595 30.0414 23.1595 29.1266C23.1595 28.9233 23.2798 28.5167 23.4173 28.2118C23.9843 27.0428 25.634 26.704 26.6135 27.568ZM75.7262 27.3478C76.0011 27.4833 76.3448 27.8729 76.5166 28.2118C77.5477 30.3633 74.7639 32.176 73.1829 30.3803C72.7533 29.9059 72.6502 29.6348 72.6502 29.0249C72.6502 28.3642 72.7361 28.1609 73.2345 27.6696C73.7156 27.1953 73.9562 27.0936 74.5233 27.0936C74.9185 27.0936 75.4684 27.2122 75.7262 27.3478ZM31.5798 49.795V52.1668H29.174H26.7682V49.795V47.4232H29.174H31.5798V49.795ZM73.2173 49.0665C73.286 49.9814 73.3376 51.0487 73.3376 51.4383V52.1668H70.9318H68.526V51.6077C68.526 51.2858 68.4744 50.2185 68.4057 49.2359L68.3026 47.4232H70.7084H73.1142L73.2173 49.0665Z" fill="#FF3E54"/>
</g>
<defs>
<filter id="filter0_d_288_4544" x="0" y="0" width="91" height="91" filterUnits="userSpaceOnUse" color-interpolation-filters="sRGB">
<feFlood flood-opacity="0" result="BackgroundImageFix"/>
<feColorMatrix in="SourceAlpha" type="matrix" values="0 0 0 0 0 0 0 0 0 0 0 0 0 0 0 0 0 0 127 0" result="hardAlpha"/>
<feOffset dy="4"/>
<feGaussianBlur stdDeviation="2"/>
<feComposite in2="hardAlpha" operator="out"/>
<feColorMatrix type="matrix" values="0 0 0 0 0 0 0 0 0 0 0 0 0 0 0 0 0 0 0.25 0"/>
<feBlend mode="normal" in2="BackgroundImageFix" result="effect1_dropShadow_288_4544"/>
<feBlend mode="normal" in="SourceGraphic" in2="effect1_dropShadow_288_4544" result="shape"/>
</filter>
</defs>
</svg>
