<svg width="87" height="91" viewBox="0 0 87 91" fill="none" xmlns="http://www.w3.org/2000/svg">
<g filter="url(#filter0_d_288_4508)">
<path d="M10.6929 24.8027V49.6055H8.53889H6.38484V31.1574C6.38484 13.682 6.40022 12.6932 6.67717 12.0771C6.92335 11.4773 7.64649 10.683 8.29271 10.2939C8.55427 10.1318 8.53889 10.0508 8.13885 8.99707C7.90806 8.36485 7.70804 7.82988 7.67727 7.81367C7.66188 7.78125 7.27723 7.95957 6.84642 8.20274C5.89248 8.75391 5.01548 9.72656 4.43081 10.8937L4 11.7529V36.2314V60.71L4.50774 61.7961C5.09241 63.0605 6.04634 64.0332 7.308 64.6654L8.15423 65.0869L19.7399 65.1355L31.3102 65.168V69.5287V73.8732L29.0946 73.9543C27.0637 74.0354 26.7867 74.084 26.0174 74.473C25.5405 74.7162 24.925 75.2025 24.6327 75.5754C23.7711 76.6291 23.6172 77.3424 23.6172 80.3576V83H43.3114H63.0055V80.3576C63.0055 77.3424 62.8516 76.6291 61.99 75.5754C61.6977 75.2025 61.0822 74.7162 60.6053 74.473C59.836 74.084 59.559 74.0354 57.5281 73.9543L55.3125 73.8732V69.5287V65.168L66.8982 65.1355L78.4685 65.0869L79.3147 64.6654C80.5764 64.0332 81.5303 63.0605 82.115 61.7961L82.6227 60.71V36.3125V11.915L82.1304 10.8451C81.5303 9.56445 80.561 8.57558 79.3455 7.97578L78.4685 7.53809L58.8974 7.48945L39.311 7.45703V8.75391V10.0508H58.5128C76.853 10.0508 77.73 10.067 78.3146 10.3588C78.6531 10.5209 79.1147 10.8613 79.3455 11.1207C80.284 12.1906 80.2379 11.0559 80.2379 31.2061V49.6055H59.7744H39.311V31.7086V13.8117L36.4646 8.80254C34.8952 6.06289 33.5566 3.79336 33.4797 3.76093C33.4027 3.72852 32.0488 5.96562 30.4794 8.73769L27.6176 13.7469V31.6762V49.6055H25.7713H23.9249V24.8027V0H17.3089H10.6929V24.8027ZM21.4632 26.0996V49.6055H17.3089H13.1547V48.2275V46.8496H15.9242H18.6937V45.5527V44.2559H15.9242H13.1547V43.1211V41.9863H14.6933H16.2319V40.6895V39.3926H14.6933H13.1547V38.2578V37.123H15.9242H18.6937V35.8262V34.5293H15.9242H13.1547V33.3945V32.2598H14.6933H16.2319V30.9629V29.666H14.6933H13.1547V28.5312V27.3965H15.9242H18.6937V26.0996V24.8027H15.9242H13.1547V23.668V22.5332H14.6933H16.2319V21.2363V19.9395H14.6933H13.1547V18.8047V17.6699H15.9242H18.6937V16.373V15.0762H15.9242H13.1547V13.9414V12.8066H14.6933H16.2319V11.5098V10.2129H14.6933H13.1547V9.07812V7.94336H15.9242H18.6937V6.64648V5.34961H15.9242H13.1547V3.97168V2.59375H17.3089H21.4632V26.0996ZM34.9567 11.2666L36.3569 13.7631L34.8952 14.6709L33.4489 15.5949L31.9872 14.6709L30.5409 13.7631L30.9256 13.0822C31.141 12.7094 31.7718 11.5746 32.3411 10.5695C32.9104 9.58067 33.4181 8.75391 33.4643 8.75391C33.5104 8.75391 34.172 9.88867 34.9567 11.2666ZM34.8029 17.8158C35.5414 17.3457 36.3107 16.8594 36.5107 16.7297L36.8492 16.5027V29.8119V43.1211H33.4643H30.0794V29.8281V16.5514L31.7564 17.6051L33.4489 18.675L34.8029 17.8158ZM36.8492 47.6602V49.6055H33.4643H30.0794V47.6602V45.7148H33.4643H36.8492V47.6602ZM80.2379 56.0412C80.2379 60.3695 80.1456 60.7748 79.1455 61.6664C78.0531 62.6391 80.5918 62.5742 43.3114 62.5742C6.03096 62.5742 8.56966 62.6391 7.47725 61.6664C6.47715 60.7748 6.38484 60.3695 6.38484 56.0412V52.1992H43.3114H80.2379V56.0412ZM52.8507 69.5449V73.9219H43.3114H33.772V69.5449V65.168H43.3114H52.8507V69.5449ZM59.6667 76.9047C60.3129 77.3748 60.5437 77.9746 60.5437 79.2715V80.4062H43.3114H26.079V79.2715C26.079 77.699 26.5252 76.9209 27.5407 76.6291C27.7099 76.5805 34.9106 76.5643 43.5421 76.5805C58.682 76.5967 59.2513 76.6129 59.6667 76.9047Z" fill="#FF3E54"/>
<path d="M32.2334 25.208V29.3418H33.4643H34.6952V25.208V21.0742H33.4643H32.2334V25.208Z" fill="#FF3E54"/>
<path d="M32.2334 32.9082V34.2051H33.4643H34.6952V32.9082V31.6113H33.4643H32.2334V32.9082Z" fill="#FF3E54"/>
<path d="M32.2334 38.582V40.6895H33.4643H34.6952V38.582V36.4746H33.4643H32.2334V38.582Z" fill="#FF3E54"/>
<path d="M37.4648 57.3867V58.6836H38.6957H39.9266V57.3867V56.0898H38.6957H37.4648V57.3867Z" fill="#FF3E54"/>
<path d="M42.0811 57.3867V58.6836H43.3119H44.5428V57.3867V56.0898H43.3119H42.0811V57.3867Z" fill="#FF3E54"/>
<path d="M46.6963 57.3867V58.6836H47.9272H49.1581V57.3867V56.0898H47.9272H46.6963V57.3867Z" fill="#FF3E54"/>
<path d="M41.4648 13.6172V14.9141H42.6957H43.9266V29.8281V44.7422H42.6957H41.4648V46.0391V47.3359H45.0806H48.6963V46.0391V44.7422H47.5423H46.3884V29.8281V14.9141H47.5423H48.6963V13.6172V12.3203H45.0806H41.4648V13.6172Z" fill="#FF3E54"/>
<path d="M51.0049 19.291V26.2617H64.5446H78.0843V19.291V12.3203H64.5446H51.0049V19.291ZM75.6226 19.291V23.668H64.5446H53.4667V19.291V14.9141H64.5446H75.6226V19.291Z" fill="#FF3E54"/>
<path d="M51.0049 33.0703V37.6094H57.2362H63.4676V33.0703V28.5312H57.2362H51.0049V33.0703ZM61.0058 33.0703V35.0156H57.2362H53.4667V33.0703V31.125H57.2362H61.0058V33.0703Z" fill="#FF3E54"/>
<path d="M65.6211 33.0703V37.6094H71.8524H78.0838V33.0703V28.5312H71.8524H65.6211V33.0703ZM75.622 33.0703V35.0156H71.8524H68.0829V33.0703V31.125H71.8524H75.622V33.0703Z" fill="#FF3E54"/>
<path d="M52.2354 41.9863V43.2832H55.0048H57.7743V41.9863V40.6895H55.0048H52.2354V41.9863Z" fill="#FF3E54"/>
<path d="M59.9287 41.9863V43.2832H61.1596H62.3905V41.9863V40.6895H61.1596H59.9287V41.9863Z" fill="#FF3E54"/>
<path d="M66.8525 41.9863V43.2832H69.622H72.3915V41.9863V40.6895H69.622H66.8525V41.9863Z" fill="#FF3E54"/>
<path d="M74.5449 41.9863V43.2832H75.7758H77.0067V41.9863V40.6895H75.7758H74.5449V41.9863Z" fill="#FF3E54"/>
</g>
<defs>
<filter id="filter0_d_288_4508" x="0" y="0" width="86.623" height="91" filterUnits="userSpaceOnUse" color-interpolation-filters="sRGB">
<feFlood flood-opacity="0" result="BackgroundImageFix"/>
<feColorMatrix in="SourceAlpha" type="matrix" values="0 0 0 0 0 0 0 0 0 0 0 0 0 0 0 0 0 0 127 0" result="hardAlpha"/>
<feOffset dy="4"/>
<feGaussianBlur stdDeviation="2"/>
<feComposite in2="hardAlpha" operator="out"/>
<feColorMatrix type="matrix" values="0 0 0 0 0 0 0 0 0 0 0 0 0 0 0 0 0 0 0.25 0"/>
<feBlend mode="normal" in2="BackgroundImageFix" result="effect1_dropShadow_288_4508"/>
<feBlend mode="normal" in="SourceGraphic" in2="effect1_dropShadow_288_4508" result="shape"/>
</filter>
</defs>
</svg>
