<svg width="342" height="343" viewBox="0 0 342 343" fill="none" xmlns="http://www.w3.org/2000/svg">
<path opacity="0.48" d="M314.75 135.454L306.302 77.7694L287.417 79.6912C285.824 79.3919 282.795 81.0685 282.077 82.7586L257.279 141.205C256.511 143.018 257.689 145.099 259.474 145.086L266.555 144.786V281.019C266.555 283.446 268.298 285.189 270.442 284.912L287.416 288.728C289.447 288.463 308.456 278.105 308.456 275.764V139.2L312.749 139.178C314.378 139.169 315.447 137.176 314.75 135.454Z" fill="#919EAB"/>
<g style="mix-blend-mode:multiply" opacity="0.3">
<path d="M285.288 144.176L266.557 144.791V281.023C266.557 283.451 268.3 285.194 270.444 284.917L287.418 288.733C288.254 288.621 291.979 286.798 296.063 284.529L285.288 144.176Z" fill="#DFE3E8"/>
</g>
<path d="M330.958 143.884L326.619 143.91V279.835C326.619 282.162 325.09 284.263 323.1 284.522L289.093 288.975C286.971 289.254 285.285 287.519 285.285 285.104V144.175L280.679 144.207C278.914 144.222 277.745 142.152 278.504 140.346L304.334 79.0411C305.167 77.0686 307.652 77.1935 308.478 79.247L332.989 140.17C333.674 141.884 332.571 143.871 330.958 143.884Z" fill="#DFE3E8"/>
<path opacity="0.48" d="M232.991 296.212L215.256 292.049C213.023 292.337 211.209 290.615 211.209 288.2V176.916C211.209 174.503 213.023 172.491 215.256 172.424C227.469 172.087 261.928 170.686 273.059 172.244L257.06 282.44C257.06 284.761 232.991 296.212 232.991 296.212Z" fill="#919EAB"/>
<path d="M276.105 176.217V286.517C276.105 287.163 275.859 287.792 275.625 288.37C275.028 289.856 273.691 291.002 272.196 291.193L234.618 296.117C232.403 296.406 230.688 294.697 230.688 292.291V177.745C230.688 175.345 232.375 173.343 234.59 173.275C239.93 173.122 266.386 172.314 272.279 172.15C274.351 172.077 276.105 173.904 276.105 176.217Z" fill="#DFE3E8"/>
<path opacity="0.48" d="M173.568 304.015L154.866 299.843C152.409 300.16 150.416 298.364 150.416 295.831L150.981 217.854C150.981 215.321 152.984 213.149 155.431 213L197.209 210.48C199.501 210.341 218.72 213.018 218.72 213.018L200.8 289.503C200.797 291.937 175.885 303.711 173.568 304.015Z" fill="#919EAB"/>
<path d="M219.972 216.268V293.604C219.972 296.03 218.232 298.233 215.96 298.528L174.729 303.942C172.3 304.262 170.474 302.479 170.474 299.957V219.498C170.474 216.975 172.346 214.812 174.775 214.66C183.038 214.031 207.371 212.747 215.988 212.136C218.259 211.994 219.972 213.848 219.972 216.268Z" fill="#DFE3E8"/>
<path opacity="0.48" d="M105.739 311.972L88.2398 308.449C85.523 308.8 83.3125 306.925 83.3125 304.261V263.742C83.3125 261.077 85.523 258.717 88.2398 258.469C101.256 257.219 142.611 252.484 154.388 256.106L138.94 297.273C138.94 299.828 108.3 311.638 105.739 311.972Z" fill="#919EAB"/>
<path d="M158.737 260.294V301.398C158.737 302.192 158.626 302.966 158.273 303.663C157.223 305.941 154.916 306.711 152.583 306.813L108.58 312.563C105.891 312.914 103.626 311.051 103.626 308.4V265.552C103.831 259.767 110.312 260.157 114.448 259.766C119.98 259.265 148.148 256.661 154.276 256.101C156.769 255.875 158.737 257.751 158.737 260.294Z" fill="#DFE3E8"/>
<path opacity="0.48" d="M65.5554 278.481L14.3504 283.828C12.1643 284.053 10.2786 285.448 9.39977 287.264C8.32509 287.795 9.0827 310.502 8.87022 311.753C8.87022 314.566 11.222 316.865 14.3504 317.986L32.4441 321.624C35.2865 321.252 70.6129 308.541 70.6129 305.852L79.0979 295.527L87.6831 280.819C87.6831 280.819 68.3534 278.188 65.5554 278.481Z" fill="#919EAB"/>
<path d="M91.3786 285.288V310.004C91.3786 312.683 89.0802 315.145 86.309 315.506C79.0777 316.439 43.5422 321.094 35.579 322.133C32.5886 322.525 30.1455 320.58 30.1455 317.783V291.96C30.1455 289.167 32.573 286.644 35.5623 286.324C39.7008 285.912 81.0179 281.517 86.3134 280.977C89.0813 280.678 91.3786 282.614 91.3786 285.288Z" fill="#DFE3E8"/>
<g style="mix-blend-mode:multiply" opacity="0.3">
<path d="M326.624 256.588V279.824C326.624 282.151 325.095 284.252 323.105 284.511L289.098 288.965C286.975 289.244 285.29 287.509 285.29 285.094V144.409C314.59 149.134 284.897 228.208 300.173 234.571C304.216 238.875 319.99 243.716 326.624 256.588Z" fill="#DFE3E8"/>
</g>
<g style="mix-blend-mode:multiply" opacity="0.3">
<path d="M275.512 288.367C274.916 289.854 273.635 290.999 272.14 291.19L234.59 296.114C232.375 296.403 230.688 294.694 230.688 292.288V177.742C230.783 171.335 238.81 173.62 242.771 173.025C249.059 177.799 250.955 184.662 248.166 193.412C221.43 277.693 273.563 234.396 275.512 288.367Z" fill="#DFE3E8"/>
</g>
<g style="mix-blend-mode:multiply" opacity="0.3">
<path d="M219.972 286.997C219.799 290.71 221.244 297.799 215.96 298.527L174.729 303.941C172.3 304.261 170.474 302.479 170.474 299.956V219.498C170.474 216.974 172.346 214.811 174.775 214.659L187.545 213.872C201.431 224.251 175.236 250.056 191.906 271.733C203.394 286.673 214.869 271.409 219.972 286.997Z" fill="#DFE3E8"/>
</g>
<g style="mix-blend-mode:multiply" opacity="0.3">
<path d="M152.583 306.819L108.58 312.569C105.891 312.92 103.626 311.057 103.626 308.406V265.558C103.816 259.782 110.324 260.157 114.448 259.772C117.935 282.103 147.767 274.732 152.583 306.819Z" fill="#DFE3E8"/>
</g>
<g style="mix-blend-mode:multiply" opacity="0.3">
<path d="M75.2225 316.945L35.5652 322.131C32.5759 322.524 30.1484 320.578 30.1484 317.781V291.958C30.2452 285.405 38.8604 286.138 43.3482 285.502C48.9319 296.402 68.5541 296.402 75.2225 316.945Z" fill="#DFE3E8"/>
</g>
<path d="M238.442 314.534C238.442 314.534 239.26 317.887 239.285 319.103C239.311 320.318 226.094 322.01 225.888 321.116C225.683 320.221 227.891 318.592 229.493 317.95C233.199 316.501 235.914 315.532 238.442 314.534Z" fill="#22B8CF"/>
<path d="M234.953 311.406L235.711 315.596C235.711 315.596 237.334 316.496 238.629 315.596L238.944 310.942L234.953 311.406Z" fill="#FDBAB9"/>
<path d="M262.547 318.123C262.547 318.123 263.364 321.477 263.39 322.692C263.415 323.907 250.199 325.604 249.996 324.704C249.794 323.803 251.999 322.18 253.601 321.538C257.307 320.09 260.019 319.12 262.547 318.123Z" fill="#22B8CF"/>
<path d="M259.058 314.998L259.815 319.188C259.815 319.188 261.438 320.088 262.733 319.188L263.048 314.534L259.058 314.998Z" fill="#FDBAB9"/>
<path d="M228.622 200.931L224.769 210.738C224.918 241.728 228.329 281.571 233.718 313.029L239.932 312.235C242.461 305.956 245.285 296.525 244.716 285.212C244.124 273.412 240.47 272.135 239.802 260.844C238.934 246.217 244.682 241.828 246.517 223.987C247.219 217.166 247.355 208.321 245.523 197.751L228.622 200.931Z" fill="#212B36"/>
<path opacity="0.04" d="M245.525 197.749L236.396 199.469C231.642 209.639 230.903 219.884 232.227 224.281C234.099 230.502 237.888 232.237 238.192 238.612C238.493 244.913 234.958 246.847 233.22 254.45C232.018 259.715 232.816 264.4 234.464 273.559C238.079 296.485 246.986 300.388 233.17 309.641C233.351 310.774 233.531 311.91 233.717 313.03L239.932 312.235C242.46 305.956 245.285 296.526 244.715 285.212C244.124 273.412 240.47 272.135 239.802 260.845C238.934 246.217 244.682 241.829 246.517 223.987C247.221 217.164 247.357 208.318 245.525 197.749Z" fill="white"/>
<path d="M237.321 205.921C246.464 239.759 254.355 282.929 257.791 317.182L264.652 316.824C279.029 282.308 263.95 274.376 265.628 243.383C266.317 213.662 272.03 187.668 237.321 205.921Z" fill="#212B36"/>
<path d="M170.915 169.575C170.915 169.575 165.89 169.139 165.163 168.316C164.437 167.492 163.966 167.448 163.857 166.693C163.748 165.938 161.632 166.302 162.512 167.94C163.392 169.578 161.407 168.719 161.017 168.679C160.127 168.588 156.703 168.487 156.802 168.701C156.901 168.914 155.269 171.064 157.692 172.181C159.817 173.155 159.195 172.726 160.577 172.792C161.958 172.858 166.236 171.442 166.236 171.442L169.899 171.724L170.915 169.575Z" fill="#FDBAB9"/>
<path d="M167.97 167.203L167.303 172.286C185.273 190.402 222.217 178.767 227.5 154.002C229.218 143.734 227.677 127.908 215.994 136.52C195.077 153.961 206.267 169.786 167.97 167.203Z" fill="#22B8CF"/>
<path d="M223.278 214.095C220.8 210.607 223.267 206.841 223.34 199.839C223.424 191.902 220.32 190.837 216.318 178.01C211.992 164.429 207.886 145.983 220.698 134.156C226.086 130.299 254.194 130.546 258.643 132.886C259.277 133.161 272.468 139.091 274.236 150.356C272.74 172.76 256.226 161.056 266.671 204.197C272.166 222.313 260.006 218.57 235.966 217.769C228.414 217.299 225.125 216.699 223.278 214.095Z" fill="#22B8CF"/>
<path opacity="0.2" d="M249.627 178.518C250.67 181.452 253.743 183.457 256.338 190.587C256.895 192.127 260.887 203.088 257.085 206.175C254.888 207.957 252.562 205.106 246.893 205.169C235.07 205.394 230.702 218.241 222.23 209.375C222.106 216.689 226.372 217.015 235.967 217.774C255.234 218.981 264.867 219.585 267.595 214.511C268.727 212.403 268.025 210.756 266.675 204.207C265.269 197.387 263.102 186.879 263.299 179.902C264.339 161.647 282.212 157.848 270.726 142.373C255.479 150.098 246.349 169.302 249.627 178.518Z" fill="#063963"/>
<path d="M280.607 213.963C280.607 213.963 283.675 215.005 284 220.145C283.499 220.1 282.331 220.127 282.331 220.127C282.331 220.127 282.548 216.39 280.363 215.633C280.539 215.199 280.607 213.963 280.607 213.963Z" fill="#FDAB76"/>
<path d="M269.227 213.477L269.46 216.316C272.873 215.158 277.532 215.105 280.871 216.069C281.332 215.698 281.292 213.916 281.086 213.73C277.419 212.184 272.54 212.36 269.227 213.477Z" fill="#FA541C"/>
<path d="M269.081 214.291C269.061 213.6 269.237 213.088 269.544 213.913C269.69 214.08 269.704 215.946 269.606 215.985C269.378 217.05 269.032 215.004 269.081 214.291Z" fill="#B3200E"/>
<path d="M266.224 220.238C266.874 220.367 268.449 220.75 268.449 220.75C268.449 220.75 267.42 217.414 269.36 215.906C269.496 215.495 269.405 214.336 269.168 213.903C268.353 214.359 266.555 215.909 266.224 220.238Z" fill="#FDAB76"/>
<path d="M252.616 220.976C252.616 220.976 252.697 219.21 255.463 219.242C255.898 219.568 255.92 221.009 255.92 221.009L252.616 220.976Z" fill="#770508"/>
<path d="M250.151 255.739L257.722 260.255L262.267 243.196L254.76 220.362L252.616 220.978C253 221.55 247.994 256.595 250.151 255.739Z" fill="#FA541C"/>
<path d="M254.761 220.362L295.028 220.789L301.148 255.865L257.722 260.255L254.761 220.362Z" fill="#B3200E"/>
<path d="M255.464 219.24C254.935 219.179 253.825 219.277 253.227 219.871C255.41 218.949 255.473 221.862 255.605 223.306C255.812 225.456 257.084 238.818 257.084 238.818C257.178 239.943 258.018 240.793 259.009 240.767C260.032 240.4 296.185 239.139 297.083 238.334C298.679 238.173 295.6 222.171 295.826 221.231C295.67 220.342 295.003 219.698 294.229 219.689L255.464 219.24Z" fill="#770508"/>
<path d="M255.876 219.248C255.293 219.229 254.304 219.152 253.685 219.556C255.772 219.091 255.843 221.628 256.021 223.312C256.228 225.461 257.498 238.82 257.498 238.82C257.593 239.945 258.433 240.793 259.423 240.768C260.459 240.408 296.973 240.336 297.881 239.484C299.536 239.45 295.99 222.106 296.218 221.233C296.062 220.343 295.396 219.699 294.621 219.69L255.876 219.248Z" fill="#FA541C"/>
<path d="M280.727 242.955C272.851 245.027 274.896 245.07 274.338 237.633C274.305 236.755 275.028 236.444 275.725 236.534L280.471 237.148C280.923 237.14 281.302 236.891 281.323 237.441L281.516 242.648C281.537 243.199 281.178 242.913 280.727 242.955Z" fill="#B3200E"/>
<path d="M281.084 243.724L275.856 244.203C275.352 244.249 274.918 243.804 274.895 243.215L274.687 237.635C274.665 237.044 275.065 236.554 275.571 236.545L280.814 236.456C281.265 236.449 281.648 236.893 281.668 237.444L281.862 242.65C281.883 243.2 281.535 243.684 281.084 243.724Z" fill="#FDAB76"/>
<path d="M274.764 206.358C274.764 206.358 274.319 209.302 273.885 209.58C273.451 209.858 272.073 211.414 272.348 212.415C272.623 213.415 271.578 215.697 273.528 216.25C275.478 216.804 277.72 217.395 277.946 215.627C278.153 212.66 277.021 209.792 278.502 207.358L274.764 206.358Z" fill="#FDBAB9"/>
<path d="M256.338 132.004C250.183 164.911 269.045 163.122 275.237 181.478C276.372 188.396 276.866 202.036 273.529 206.458C276.532 207.672 276.853 207.605 279.123 207.605C298.947 185.989 296.872 144.053 256.338 132.004Z" fill="#22B8CF"/>
<path d="M248.217 131.869C240.103 129.722 238.275 127.945 237.203 120.072C237.203 120.072 232.879 121.234 233.512 123.494C234.145 125.753 233.067 130.934 230.585 132.091C228.847 132.901 226.691 133.226 226.227 133.767C225.606 133.951 226.902 135.734 231.357 138.268C246.975 135.682 249.002 133.508 248.217 131.869Z" fill="#FDBAB9"/>
<path d="M231.424 119.015C229.421 117.318 229.142 117.124 228.888 116.502C227.873 114.004 229.556 110.333 232.07 109.261C232.201 109.205 233.886 108.505 234.606 109.21C235.218 109.809 234.463 110.765 234.954 111.976C235.413 113.109 236.417 113.115 238.385 114.49C240.006 115.622 241.013 116.326 241.317 117.406C241.947 119.634 239.497 123.135 237.09 123.239C236.227 123.272 235.957 122.841 231.424 119.015Z" fill="#063963"/>
<path d="M236.885 123.6C236.885 123.6 235.087 126.024 232.018 125.513C229.269 125.063 229.459 118.748 231.35 117.588C232.824 116.79 234.148 117.506 235.744 118.306C236.581 118.615 236.834 118.542 237.072 118.789C237.37 119.096 237.544 119.801 236.827 121.578C239.129 119.888 239.918 123.031 236.885 123.6Z" fill="#FDBAB9"/>
<path d="M235.588 137.743C235.588 137.743 234.717 142.448 233.356 142.54C232.565 142.591 231.777 142.683 230.995 142.815L229.471 137.061C229.471 137.061 231.457 138.698 235.588 137.743Z" fill="#116E95"/>
<path d="M234.002 142.144C234.002 142.144 237.033 176.563 247.657 182.073C247.384 183.176 247.657 192.13 247.657 192.13C247.657 192.13 237.756 189.113 237.189 189.317C236.623 189.521 225.195 170.356 230.995 142.817L234.002 142.144Z" fill="#063963"/>
<path d="M152.661 170.637C152.661 170.637 156.777 166.968 157.611 165.629C158.444 164.29 158.467 166.916 157.633 167.446C156.799 167.975 169.403 166.208 167.182 168.421C164.96 170.634 163.359 172.716 160.375 172.855C152.614 173.079 152.794 176.919 152.661 170.637Z" fill="#FDBAB9"/>
<path d="M71.1928 145.085C30.6711 161.976 57.8172 222.25 97.0284 194.655C98.9007 192.496 99.8886 190.103 100.443 188.092L98.3289 182.404C95.7456 179.253 92.229 178.503 90.3511 178.035C85.7209 176.881 82.2299 178.966 79.5743 176.709C78.1069 175.459 77.8155 173.661 77.5552 172.054C76.6651 166.583 79.7212 163.216 79.9437 159.841C80.9349 153.719 79.5354 145.82 71.1928 145.085Z" fill="#FA541C"/>
<path d="M65.1857 326.424C65.0065 325.423 61.8081 324.512 60.2239 325.862C59.4385 326.528 58.8967 327.878 59.3517 328.488C59.5163 328.713 58.8388 329.1 59.4885 329.108C61.6434 329.129 65.3648 327.42 65.1857 326.424Z" fill="#FA541C"/>
<path d="M61.8346 326.791L58.5449 326.32C60.069 324.465 59.7876 318.556 59.7876 318.556L63.2853 319.344C63.2085 319.791 61.6421 324.739 61.8346 326.791Z" fill="#FDBAB9"/>
<path d="M62.1253 326.375C62.1253 326.375 58.1659 325.452 57.7376 326.247C57.3092 327.041 56.9766 329.172 59.4886 329.1C62.0007 329.028 62.3489 327.049 62.1253 326.375Z" fill="#FA541C"/>
<path d="M110.319 330.178C110.003 329.213 106.71 328.767 105.329 330.32C104.642 331.091 104.293 332.505 104.828 333.044C105.022 333.241 104.405 333.719 105.05 333.638C107.185 333.359 110.634 331.139 110.319 330.178Z" fill="#FA541C"/>
<path d="M107.05 331.016H103.729C104.981 328.962 103.883 323.152 103.883 323.152L107.457 323.438C107.444 323.89 106.577 329.012 107.05 331.016Z" fill="#FDBAB9"/>
<path d="M115.659 203.956C127.674 239.868 117.551 253.421 117.868 291.331C118.382 301.831 108.877 326.046 108.038 326.58C106.439 326.712 105.347 326.618 103.375 326.068C94.7567 315.189 99.2835 295.41 97.8127 275.681C97.7315 273.506 92.2258 233.336 92.2258 233.336C90.2678 268.603 77.4295 310.716 63.2329 321.459C63.0549 321.534 61.4184 322.135 60.0801 321.242C59.735 321.021 59.4583 320.706 59.2813 320.333C58.8152 319.964 59.4193 288.913 64.7404 265.544C72.4633 231.625 69.1002 223.687 71.5466 208.539C73.6648 195.426 115.659 203.956 115.659 203.956Z" fill="#212B36"/>
<path d="M117.721 209.08C110.079 214.369 83.971 216.957 71.5433 208.538C74.853 200.253 72.6769 190.647 70.9703 185.598C67.9454 174.94 62.5609 154.035 66.1232 148.663C71.2518 140.863 101.149 139.424 107.864 146.362C107.975 146.465 106.647 147.184 107.308 147.959C119.98 160.421 120.965 197.921 117.721 209.08Z" fill="#FA541C"/>
<path d="M107.283 330.567C107.283 330.567 103.234 330.214 102.92 331.061C102.606 331.908 102.57 334.062 105.049 333.638C107.528 333.213 107.597 331.201 107.283 330.567Z" fill="#FA541C"/>
<path d="M97.5907 136.566C99.5932 132.889 97.9823 128.376 96.9232 126.857L96.2368 126.124C95.7506 125.733 93.9372 125.207 93.5078 125.17C92.2841 125.108 89.7832 129.558 88.3525 136.422C87.5311 138.156 86.8014 139.932 86.1664 141.744C71.3702 142.939 75.9915 145.405 84.8859 147.113C96.3692 148.407 109.632 144.285 92.4431 142.394L92.9037 139.095C93.4366 138.974 96.4893 138.451 97.5907 136.566Z" fill="#FDBAB9"/>
<path d="M99.1496 124.853C98.5934 126.947 97.0236 128.921 96.4318 129.148C96.4162 129.137 95.5229 129.584 95.2792 129.99C94.4771 131.189 96.1436 133.303 95.5874 133.786C95.1835 134.137 93.9186 133.183 93.6583 133.508C93.408 133.814 94.3903 134.858 94.1033 135.221C93.8808 135.499 93.2389 135.017 92.6571 135.377C92.3322 135.602 91.648 137.083 91.1785 137.432C90.1384 138.47 87.9912 138.372 87.7298 137.77C87.7064 137.25 87.9245 136.982 87.6375 135.996C86.6796 133.987 84.053 132.146 83.915 129.738C83.727 127.938 84.3255 125.547 85.4514 124.225C87.218 122.199 89.5209 124.006 92.2554 122.264C95.4105 120.252 94.9143 116.204 96.3506 116.159C97.9314 116.114 100.184 120.98 99.1496 124.853Z" fill="#770508"/>
<path d="M94.9726 133.093C94.651 132.25 93.583 132.673 93.3372 133.584C93.0235 136.307 96.3877 136.752 94.9726 133.093Z" fill="#FDBAB9"/>
<path d="M94.9632 131.456C95.3526 132.039 96.138 135.732 97.522 134.726C98.353 134.04 98.5043 134.101 98.5321 134.147C98.5599 134.23 98.5555 133.707 98.5688 133.325C99.2363 135.456 99.6902 139.443 96.1069 139.677C96.1069 139.677 95.6441 139.66 93.8896 138.837C99.1818 137.013 94.6105 136.656 94.9632 131.456Z" fill="#770508"/>
<g opacity="0.2">
<path d="M73.1814 201.454C73.1502 201.454 73.1194 201.448 73.0908 201.435C73.0622 201.422 73.0366 201.404 73.0157 201.38C72.9947 201.357 72.9788 201.329 72.969 201.299C72.9592 201.269 72.9558 201.238 72.9589 201.206C73.5641 195.703 72.436 191.702 71.4404 188.173C69.667 181.37 68.945 178.568 67.442 173.026C67.3686 172.756 67.7969 172.629 67.867 172.914C69.36 178.664 69.4323 178.373 71.1867 185.542C72.2959 190.49 74.532 194.971 73.1814 201.454Z" fill="#770508"/>
<path d="M117.72 209.08C110.079 214.369 83.9706 216.957 71.5428 208.538C71.9878 207.174 72.3371 205.884 72.6075 204.664C82.0737 211.37 86.0331 204.847 92.1463 203.314C98.5065 201.717 106.687 205.035 101.707 190.177C96.7276 175.318 104.992 176.4 104.992 176.4L118.575 178.751C120.066 192.984 118.865 204.963 117.72 209.08Z" fill="#770508"/>
</g>
<path d="M152.745 170.066C154.598 171.378 155.593 173.16 156.109 174.298C138.854 213.152 82.9968 186.382 99.0936 150.206C99.7121 149.272 101.748 146.196 104.908 145.843C106.902 145.618 109.619 146.453 113.91 151.534C122.851 162.123 119.695 168.735 124.975 171.832C132.897 176.477 144.667 164.348 152.745 170.066Z" fill="#FA541C"/>
<path d="M164.637 167.33C164.637 167.33 163.703 165.515 162.402 166.404C161.102 167.293 159.277 167.905 160.492 168.22C161.707 168.535 164.637 167.33 164.637 167.33Z" fill="#FDBAB9"/>
<path d="M109.394 67.9333L100.02 84.3614L84.0205 75.7502L86.8318 86.3744L102.83 94.98L112.206 78.5587L109.394 67.9333Z" fill="#22B8CF"/>
<path d="M216.719 42.6062L204.405 37.5923C169.886 -8.7529 92.6445 29.3411 104.344 85.6591C104.743 87.734 103.365 89.8223 101.264 90.3163C96.3692 91.2952 96.3925 85.5353 95.9553 82.172C88.4615 13.524 185.286 -20.4461 216.719 42.6062Z" fill="#22B8CF"/>
<path d="M210.922 83.3654L220.296 66.9362L236.296 75.5486L233.484 64.9243L217.487 56.3198L208.11 72.74L210.922 83.3654Z" fill="#FDAB76"/>
<path d="M213.062 112.831C187.005 152.663 124.528 151.952 103.804 109.1L116.839 114.882C152.07 159.566 227.544 121.2 215.975 65.6338C215.575 63.56 216.953 61.4761 219.054 60.9777C223.949 59.9954 223.923 65.7609 224.363 69.1219C225.977 84.3438 222.046 99.6804 213.062 112.831Z" fill="#FDAB76"/>
<path d="M202.908 76.8868C201.495 139.7 111.437 129.604 112.223 70.6982C114.495 6.9156 203.136 18.4164 202.908 76.8868Z" fill="#FFC81A"/>
<path d="M209.534 74.754C208.122 137.566 118.062 127.471 118.849 68.5654C121.117 4.78166 209.762 16.2847 209.534 74.754Z" fill="#FFE475"/>
<path d="M207.61 74.6199C206.259 134.581 120.311 124.917 121.065 68.7159C123.227 7.85435 207.823 18.8015 207.61 74.6199Z" fill="#FFC81A"/>
<path d="M206.231 74.5264C204.924 132.451 121.913 123.094 122.643 68.8239C124.729 10.0485 206.435 20.6018 206.231 74.5264Z" fill="#FFE475"/>
<path d="M165.597 36.656C168.678 36.9755 167.6 41.2795 167.776 43.3307C172.042 43.8198 176.246 44.7519 180.322 46.1122C180.84 46.2862 181.285 46.63 181.587 47.0891C181.89 47.5481 182.032 48.0962 181.991 48.6462L181.478 53.9426C180.773 57.5342 177.208 54.6706 175.115 54.2486C172.727 53.5314 170.267 53.0883 167.782 52.9276V65.0236C174.067 66.8026 178.685 69.1948 181.665 72.2036C192.258 84.4099 183.358 99.9491 167.276 100.02C167.02 102.006 168.346 106.895 165.094 106.835C161.838 106.703 163.092 101.955 162.869 99.8973C157.813 99.7116 153.011 99.0781 148.268 97.6885C147.172 97.3678 146.42 96.3124 146.52 95.1782L147.123 88.3695C147.254 86.8977 148.716 86.0415 150.099 86.5939C151.697 87.2332 153.332 87.7761 154.994 88.2199C157.558 88.9053 160.18 89.3487 162.826 89.5442L162.865 76.089C156.831 74.5789 152.326 72.3428 149.348 69.3805C146.366 66.4047 144.874 62.5996 144.87 57.9652C144.948 47.2363 152.948 42.9909 163.408 43.0123C163.636 41.1321 162.403 36.4242 165.597 36.656ZM163.409 52.8027C160.106 53.0413 157.504 54.5941 157.486 57.9877C157.486 59.4272 157.968 60.6301 158.932 61.5963C159.896 62.5624 161.388 63.3325 163.408 63.9063L163.409 52.8027ZM167.276 77.1669V89.506C169.303 89.506 170.858 89.0184 171.942 88.0432C174.083 86.2429 174.093 81.8208 172.053 79.8292C171.047 78.7482 169.455 77.8608 167.276 77.1669Z" fill="#FFC81A"/>
<g style="mix-blend-mode:multiply" opacity="0.16">
<path d="M158.517 80.1434C163.189 57.4412 184.807 52.7007 157.404 28.8586C101.326 36.8082 119.458 121.282 172.503 114.361C163.174 104.972 157.344 91.8591 158.517 80.1434Z" fill="#B7860D"/>
</g>
</svg>
