<svg width="205" height="218" viewBox="0 0 205 218" fill="none" xmlns="http://www.w3.org/2000/svg">
<path d="M187.686 22.5265L79.5454 24.9763C76.6733 25.0424 73.9363 26.209 71.8996 28.2352C69.863 30.2613 68.6822 32.9923 68.6013 35.864L64.1713 192.829C64.14 193.936 64.3317 195.038 64.735 196.07C65.1383 197.102 65.745 198.042 66.5189 198.835C67.2928 199.628 68.2182 200.256 69.2401 200.684C70.262 201.112 71.3595 201.33 72.4673 201.325L196.461 200.77C197.503 200.765 198.534 200.553 199.493 200.145C200.452 199.738 201.32 199.143 202.047 198.396C202.774 197.65 203.345 196.766 203.726 195.796C204.108 194.826 204.292 193.79 204.269 192.748L200.693 34.9581C200.656 33.2877 200.29 31.6409 199.616 30.112C198.942 28.5831 197.973 27.202 196.765 26.0475C195.558 24.893 194.134 23.9878 192.576 23.3837C191.018 22.7796 189.357 22.4883 187.686 22.5265Z" fill="#B3200E"/>
<path d="M187.365 23.0402C172.643 25.3772 122.001 32.7217 79.9427 30.4494C79.4877 30.424 79.0321 30.4898 78.6029 30.6431C78.1736 30.7964 77.7794 31.0341 77.4434 31.3421C77.1074 31.6501 76.8365 32.0222 76.6465 32.4365C76.4566 32.8508 76.3514 33.299 76.3373 33.7545L71.5356 191.427C71.5035 192.465 71.8838 193.474 72.5933 194.233C73.3028 194.991 74.2838 195.438 75.3219 195.476C93.004 196.122 165.818 198.513 191.696 195.209C192.456 195.111 193.154 194.736 193.655 194.156C194.156 193.575 194.426 192.831 194.413 192.064L191.638 26.6291C191.629 26.1001 191.507 25.5792 191.28 25.1015C191.052 24.6237 190.725 24.2004 190.32 23.8602C189.915 23.5199 189.442 23.2706 188.932 23.1291C188.422 22.9877 187.888 22.9574 187.365 23.0402Z" fill="#770508"/>
<path d="M185.876 27.1606C171.708 29.4097 122.973 36.4779 82.4974 34.2952C82.0595 34.2709 81.6211 34.3344 81.2082 34.482C80.7952 34.6296 80.4159 34.8583 80.0926 35.1546C79.7693 35.451 79.5086 35.8091 79.3258 36.2077C79.1429 36.6063 79.0417 37.0375 79.028 37.4759L74.4071 189.21C74.376 190.209 74.7417 191.181 75.4245 191.911C76.1072 192.642 77.0514 193.072 78.0507 193.109C95.0675 193.73 165.14 196.032 190.047 192.852C190.779 192.757 191.45 192.396 191.932 191.838C192.415 191.279 192.674 190.562 192.661 189.825L189.987 30.6143C189.979 30.1052 189.861 29.6039 189.643 29.1441C189.424 28.6844 189.109 28.277 188.719 27.9496C188.329 27.6221 187.874 27.3822 187.383 27.2461C186.892 27.11 186.378 27.0808 185.876 27.1606Z" fill="#FDAB76"/>
<path opacity="0.78" d="M177.096 42.5972L176.323 75.1225C176.311 75.6439 176.103 76.1415 175.739 76.5154C175.376 76.8894 174.884 77.1119 174.364 77.1384C168.35 77.4445 149.61 78.3272 139.01 78.0145C138.431 77.9985 137.88 77.7654 137.465 77.3615C137.05 76.9576 136.802 76.4125 136.77 75.8343C137.093 73.4724 133.701 41.2731 139.23 42.4014L174.77 40.3523C175.073 40.3342 175.377 40.3792 175.662 40.4845C175.947 40.5899 176.207 40.7532 176.426 40.9642C176.645 41.1752 176.817 41.4293 176.932 41.7104C177.048 41.9914 177.104 42.2934 177.096 42.5972Z" fill="#FEE9D1"/>
<path d="M149.909 54.8362C150.273 64.0141 163.929 63.703 163.878 54.5193C163.513 45.3422 149.856 45.6534 149.909 54.8362Z" fill="#FA541C"/>
<path d="M167.967 74.9445L145.716 75.4489C145.406 75.4558 145.101 75.3792 144.831 75.2271C144.561 75.075 144.338 74.8531 144.183 74.5847C144.029 74.3163 143.95 74.0113 143.955 73.7018C143.959 73.3922 144.047 73.0896 144.208 72.8257C154.157 56.0695 175.823 72.8456 167.967 74.9445Z" fill="#FA541C"/>
<path d="M102.046 61.8186C99.0321 61.6527 93.3966 61.6768 90.2947 61.7041C89.6569 61.7089 89.0397 61.9304 88.5444 62.3323C88.0492 62.7343 87.7054 63.2927 87.5695 63.9159C87.0269 66.4105 86.2993 70.7377 86.5059 75.2996C86.5346 75.9556 86.8207 76.5739 87.302 77.0205C87.7834 77.4671 88.4214 77.7061 89.0777 77.6856L100.519 77.3031C101.198 77.2804 101.845 77.0068 102.334 76.5353C102.823 76.0637 103.121 75.4275 103.168 74.7496L103.931 63.9648C103.95 63.6997 103.917 63.4333 103.832 63.1813C103.747 62.9293 103.613 62.6966 103.438 62.4968C103.263 62.2971 103.049 62.1343 102.81 62.0178C102.571 61.9014 102.311 61.8337 102.046 61.8186Z" fill="#FEE9D1"/>
<path d="M88.0492 47.4455C86.5434 47.4563 86.5949 45.2985 88.0624 45.2438L127.303 43.6551C127.929 43.6293 128.282 44.0964 128.087 44.6921L127.833 45.4686C127.639 46.0651 126.967 46.5637 126.34 46.5778L88.0492 47.4455Z" fill="#FEE9D1"/>
<path d="M127.441 49.7114C128.613 49.7114 128.259 50.8015 127.972 51.5258C127.777 52.1214 127.105 52.6208 126.479 52.6349L88.1862 53.5019C88.0413 53.5091 87.8964 53.4871 87.7602 53.437C87.624 53.387 87.4993 53.31 87.3936 53.2106C87.2879 53.1112 87.2033 52.9915 87.1449 52.8587C87.0865 52.7258 87.0555 52.5826 87.0538 52.4375C87.0538 51.8377 87.574 51.3258 88.2003 51.3001L127.441 49.7114Z" fill="#FEE9D1"/>
<path d="M127.581 55.8561C128.752 55.8561 128.399 56.9462 128.112 57.6705C127.917 58.2661 127.245 58.7656 126.618 58.7797L88.3257 59.6474C88.1807 59.6547 88.0357 59.6326 87.8995 59.5825C87.7632 59.5324 87.6385 59.4553 87.5328 59.3558C87.427 59.2564 87.3425 59.1366 87.2841 59.0036C87.2258 58.8707 87.1949 58.7274 87.1933 58.5822C87.1974 57.9824 87.7135 57.4705 88.3398 57.4456L127.581 55.8561Z" fill="#FEE9D1"/>
<path d="M109.169 67.1342C107.66 67.1458 107.685 64.9963 109.15 64.9125L127.387 63.8415C128.454 63.8142 128.444 64.7906 128.252 65.5787C128.195 65.89 128.034 66.1731 127.797 66.3822C127.559 66.5914 127.258 66.7145 126.942 66.7318L109.169 67.1342Z" fill="#FEE9D1"/>
<path d="M127.595 70.9737C128.661 70.9861 128.617 71.9617 128.395 72.7424C128.327 73.0513 128.156 73.3281 127.911 73.5284C127.666 73.7286 127.361 73.8407 127.045 73.8466L109.269 73.5977C108.642 73.5894 108.143 73.0917 108.16 72.4919C108.176 71.8921 108.704 71.391 109.33 71.3769L127.595 70.9737Z" fill="#FEE9D1"/>
<g opacity="0.24">
<path d="M177.565 100.544C175.364 100.426 171.248 100.44 168.983 100.461C168.517 100.464 168.066 100.626 167.704 100.92C167.342 101.213 167.091 101.621 166.992 102.076C166.595 103.902 166.063 107.054 166.215 110.39C166.237 110.869 166.446 111.32 166.797 111.646C167.149 111.972 167.615 112.147 168.094 112.132L176.45 111.852C176.946 111.836 177.418 111.636 177.775 111.291C178.133 110.947 178.35 110.483 178.385 109.987L178.941 102.106C178.955 101.913 178.93 101.719 178.868 101.536C178.806 101.352 178.708 101.183 178.58 101.037C178.452 100.892 178.296 100.774 178.122 100.689C177.948 100.604 177.758 100.555 177.565 100.544Z" fill="#FEE9D1"/>
<path d="M132.036 101.575C129.835 101.457 125.72 101.472 123.454 101.493C122.988 101.496 122.537 101.658 122.176 101.951C121.814 102.245 121.562 102.653 121.463 103.108C121.067 104.933 120.536 108.085 120.687 111.421C120.709 111.9 120.918 112.351 121.27 112.677C121.621 113.003 122.087 113.178 122.566 113.163L130.921 112.885C131.417 112.868 131.89 112.668 132.247 112.324C132.605 111.979 132.822 111.515 132.857 111.02L133.413 103.138C133.427 102.945 133.402 102.751 133.34 102.567C133.278 102.384 133.18 102.214 133.052 102.069C132.924 101.923 132.768 101.805 132.594 101.72C132.419 101.636 132.23 101.586 132.036 101.575Z" fill="#FEE9D1"/>
</g>
<path d="M85.2092 89.3696C83.7043 89.3696 83.8428 87.2035 85.3038 87.177C85.7567 88.0165 178.77 82.6706 177.363 85.2498C176.723 86.1549 175.894 87.3412 174.655 87.3429L85.2092 89.3696Z" fill="#FEE9D1"/>
<path d="M177.051 90.4394C178.551 90.4469 176.93 91.9849 176.621 92.4694C176.242 92.9672 175.419 93.3886 174.792 93.4027L85.3459 95.4294C84.7195 95.4435 84.2284 94.964 84.2541 94.3634C84.2798 93.7628 84.8141 93.2567 85.4404 93.2368L177.051 90.4394Z" fill="#FEE9D1"/>
<path d="M162.311 104.113C163.794 104.038 163.166 105.927 163.1 106.776C163.052 107.087 162.898 107.372 162.664 107.582C162.431 107.793 162.132 107.917 161.818 107.933L141.265 108.398C140.301 108.408 140.021 107.502 140.109 106.686C140.11 106.379 140.226 106.084 140.434 105.86C140.643 105.635 140.928 105.497 141.234 105.473L162.311 104.113Z" fill="#FEE9D1"/>
<path d="M116.782 105.146C118.266 105.071 117.637 106.959 117.572 107.809C117.523 108.119 117.369 108.404 117.135 108.615C116.902 108.825 116.602 108.949 116.288 108.965L95.7365 109.43C94.7725 109.44 94.4921 108.535 94.5792 107.719C94.5801 107.412 94.6965 107.117 94.9051 106.892C95.1136 106.667 95.3992 106.529 95.705 106.505L116.782 105.146Z" fill="#FEE9D1"/>
<path d="M91.0227 129.73C89.517 129.73 89.6514 127.565 91.1131 127.538L180.094 124.8C180.721 124.781 180.929 125.177 180.557 125.682L179.716 126.82C179.344 127.324 178.526 127.748 177.9 127.762L91.0227 129.73Z" fill="#FEE9D1"/>
<path d="M180.231 130.856C181.713 130.861 180.167 132.382 179.854 132.875C179.481 133.38 178.664 133.804 178.037 133.818L91.1597 135.786C90.5333 135.8 90.0405 135.321 90.0654 134.72C90.0903 134.12 90.6237 133.613 91.2501 133.594L180.231 130.856Z" fill="#FEE9D1"/>
<path d="M180.371 137.001C181.853 137.006 180.306 138.527 179.993 139.02C179.621 139.524 178.804 139.948 178.177 139.963L91.2992 141.931C90.672 141.945 90.1801 141.466 90.2049 140.866C90.2298 140.266 90.7624 139.758 91.3896 139.739L180.371 137.001Z" fill="#FEE9D1"/>
<path d="M126.553 17.9315L138.799 16.5643L139.574 5.28671C139.652 4.18575 139.345 3.09192 138.707 2.19156C138.069 1.2912 137.138 0.640009 136.073 0.348924C133.668 -0.302313 130.266 -0.279084 126.424 2.52663C118.885 8.0302 126.553 17.9315 126.553 17.9315ZM128.897 8.49478C128.875 4.47121 134.857 4.33599 135.016 8.35623C135.039 12.379 129.057 12.5142 128.897 8.49478Z" fill="#FA541C"/>
<path d="M137.438 11.8581C137.399 11.8556 137.361 11.8454 137.327 11.8282C137.292 11.811 137.261 11.787 137.235 11.7577C137.21 11.7284 137.19 11.6943 137.178 11.6574C137.166 11.6206 137.161 11.5816 137.163 11.5429L137.287 9.7468C137.289 9.70787 137.299 9.66977 137.316 9.63474C137.333 9.5997 137.357 9.56844 137.387 9.54279C137.416 9.51713 137.45 9.4976 137.487 9.48534C137.524 9.47307 137.563 9.46833 137.602 9.47137C137.681 9.47669 137.754 9.51288 137.805 9.572C137.857 9.63111 137.883 9.7083 137.878 9.78662L137.754 11.5827C137.749 11.6611 137.712 11.7341 137.653 11.7857C137.594 11.8373 137.516 11.8634 137.438 11.8581ZM137.68 8.33896C137.641 8.33633 137.604 8.32606 137.569 8.30873C137.534 8.29141 137.503 8.26737 137.477 8.238C137.452 8.20862 137.432 8.1745 137.42 8.13759C137.408 8.10067 137.403 8.06169 137.406 8.02289C138.265 3.27176 134.515 1.58933 130.397 2.49111C130.026 2.58319 129.889 1.99335 130.266 1.91039C134.731 0.883343 138.923 2.96564 137.996 8.06022C137.993 8.09928 137.983 8.13752 137.966 8.17272C137.949 8.20793 137.925 8.2394 137.896 8.26532C137.867 8.29124 137.833 8.31109 137.796 8.32373C137.759 8.33637 137.719 8.34155 137.68 8.33896Z" fill="#FDAB76"/>
<path d="M155.709 23.4583C155.436 20.4377 156.754 14.2779 151.932 14.4298L112.949 16.6506C108.696 16.8937 109.909 22.5333 109.581 25.3233L155.709 23.4583Z" fill="#770508"/>
<path d="M141.005 16.8102L142.685 16.7696C143.069 16.7696 143.055 16.1631 142.671 16.1772L140.994 16.2154C140.611 16.2212 140.621 16.8243 141.005 16.8102Z" fill="#FDAB76"/>
<path d="M153.557 21.7302C153.596 21.7293 153.634 21.7208 153.67 21.7051C153.705 21.6894 153.738 21.6669 153.764 21.6388C153.791 21.6106 153.812 21.5775 153.826 21.5412C153.841 21.5049 153.847 21.4663 153.846 21.4274C154.362 14 149.301 16.3892 144.346 16.1428C143.965 16.1478 143.973 16.7493 144.36 16.7352L150.528 16.5958C151.221 16.5811 151.892 16.8419 152.394 17.321C152.895 17.8001 153.186 18.4585 153.203 19.1518L153.254 21.4406C153.256 21.5191 153.289 21.5936 153.346 21.6479C153.403 21.7021 153.478 21.7317 153.557 21.7302Z" fill="#FDAB76"/>
<path d="M167.887 21.111L99.6656 22.6549C98.4774 22.6817 97.3368 23.1273 96.445 23.9131C95.5533 24.6989 94.9678 25.7743 94.7917 26.9498C94.1919 29.6932 96.2941 32.3314 99.1231 32.2592L169.114 30.6738C172.56 30.425 171.828 26.9406 171.638 24.5298C171.572 23.5872 171.145 22.7062 170.447 22.0696C169.748 21.433 168.832 21.0898 167.887 21.111Z" fill="#FA541C"/>
<path d="M113.202 157.651L104.108 135.569C104.022 135.361 103.876 135.182 103.689 135.057C103.501 134.931 103.281 134.864 103.055 134.864H97.4633C97.2724 134.864 97.0846 134.913 96.9171 135.004C96.7496 135.096 96.6079 135.228 96.5048 135.389C96.4018 135.549 96.3407 135.733 96.3273 135.924C96.3139 136.114 96.3485 136.305 96.4279 136.479L106.969 159.478C107.077 159.715 107.264 159.907 107.498 160.023C107.731 160.139 107.998 160.172 108.252 160.115L112.394 159.195C112.556 159.159 112.708 159.088 112.839 158.987C112.971 158.886 113.079 158.758 113.156 158.611C113.233 158.464 113.277 158.301 113.285 158.136C113.293 157.97 113.264 157.804 113.202 157.651Z" fill="#116E95"/>
<path d="M127.193 183.669H124.516V212.623H127.193V183.669Z" fill="#22B8CF"/>
<path d="M137.578 213.181H114.13V211.718C114.13 211.644 114.159 211.573 114.212 211.52C114.264 211.468 114.335 211.438 114.409 211.438H137.299C137.373 211.438 137.444 211.468 137.496 211.52C137.549 211.573 137.578 211.644 137.578 211.718V213.181Z" fill="#22B8CF"/>
<path d="M141.058 182.664C141.056 183.427 140.752 184.158 140.213 184.698C139.673 185.237 138.942 185.541 138.18 185.543H114.453C111.276 185.377 111.506 182.427 111.574 180.061C111.576 179.298 111.88 178.567 112.42 178.028C112.959 177.488 113.69 177.184 114.453 177.182H138.18C141.357 177.352 141.126 180.298 141.058 182.664Z" fill="#77F0ED"/>
<path d="M106.089 164.364C106.089 164.364 102.107 164.981 97.6374 167.971C97.2914 168.2 97.0161 168.521 96.8423 168.897C96.6685 169.274 96.6031 169.691 96.6535 170.103C97.1894 174.345 99.3912 188.077 106.654 201.489C107.776 203.075 105.862 207.981 105.715 209.677L103.376 211.871H109.402L113.415 201.012C111.483 200.514 109.466 199.774 109.433 197.43C109.249 191.562 110.13 180.258 106.05 177.012L115.673 176.544L106.089 164.364Z" fill="#FF928E"/>
<path d="M101.023 212.93C100.474 213.648 106.93 214.596 110.192 213.024C110.192 213.024 114.713 205.158 114.713 201.108C114.713 201.108 114.354 200.282 111.7 200.469C111.7 200.469 110.181 209.784 108.579 210.827C106.976 211.87 104.094 210.933 104.094 210.933C104.094 210.933 101.833 211.87 101.023 212.93Z" fill="#770508"/>
<path d="M114.455 177.182C114.403 177.093 104.093 175.942 104.093 175.942C106.704 184.545 89.5566 202.929 87.1823 206.406L88.7694 211.438C83.8614 213.147 79.034 213.421 74.2837 212.31L84.1211 206.406C84.1211 206.406 93.3297 175.032 98.971 169.435L109.306 165.859L114.455 177.182Z" fill="#FDBAB9"/>
<path d="M137.578 158.927C139.464 162.25 151.779 178.208 136.146 177.73C129.913 178.002 113.273 177.997 113.273 177.997L99.0708 165.86C99.0708 165.86 109.418 162.166 112.111 161.121C114.805 160.076 137.578 158.927 137.578 158.927Z" fill="#B3200E"/>
<path d="M88.1694 209.744C88.1694 209.744 89.8784 211.403 88.7244 213.24C88.7244 213.24 75.1861 215.641 71.511 214.551C71.511 214.551 72.2742 212.809 76.4131 210.826C73.1503 213.453 86.9573 210.648 88.1694 209.744Z" fill="#770508"/>
<path d="M121.513 157.757C121.513 157.757 114.595 151.17 111.189 146.806C110.283 145.642 109.668 144.279 109.396 142.829C109.123 141.38 109.201 139.886 109.622 138.472C111.177 133.235 113.936 127.81 114.192 126.966C114.578 125.672 122.335 125.726 122.335 125.726C122.335 125.726 137.6 135.632 143.595 152.412L136.86 154.509C136.86 154.509 132.878 147.823 128.937 143.572C128.937 143.572 135.75 152.573 135.989 156.257L121.513 157.757Z" fill="#FA541C"/>
<path d="M113.254 119.736C113.337 120.005 115.359 126.717 115.518 126.857C115.676 126.996 119.958 127.226 121.973 125.849L118.554 118.691L113.254 119.736Z" fill="#FF928E"/>
<path d="M110.752 109.89C110.752 109.89 108.351 112.514 108.301 117.746C108.301 127.562 116.431 124.016 119.274 117.57C121.002 113.411 113.938 106.623 110.752 109.89Z" fill="#FDBAB9"/>
<path d="M117.148 116.613C116.587 111.162 122.499 113.111 118.226 118.052L117.148 116.613Z" fill="#FDBAB9"/>
<path d="M107.42 158.245L112.503 153.346L119.533 156.317C119.533 156.317 126.532 157.401 130.538 156.317L134.543 155.233L143.595 152.412C144.929 156.686 146.914 158.165 141.847 160.633C140.655 161.154 112.462 160.272 112.462 160.272L107.42 158.245Z" fill="#FDBAB9"/>
<path d="M116.2 116.199C116.2 116.199 115.557 108.873 109.942 111.36L109.05 112.881C102.349 107.726 114.494 100.461 119.798 106.968C125.247 111.773 123.051 121.66 118.933 118.658C118.933 118.658 119.299 116.037 118.269 115.195C117.24 114.353 116.628 116.219 116.628 116.219L116.2 116.199Z" fill="#770508"/>
<path d="M119.687 107.876C118.633 107.472 118.531 106.02 119.472 105.397C130.174 97.1355 138.465 117.451 144.27 117.675C145.514 117.654 146.24 119.061 145.422 119.998C144.816 120.69 143.779 121.313 142.058 121.687C128.784 124.566 125.87 110.244 119.687 107.876Z" fill="#770508"/>
<path d="M28.0211 214.754C27.2902 214.77 26.7045 213.99 27.0256 213.32L49.6737 163.196C49.7959 162.942 50.0114 162.744 50.2754 162.644C50.5394 162.543 50.8319 162.549 51.0923 162.658C51.2203 162.707 51.3372 162.781 51.4357 162.876C51.5342 162.971 51.6123 163.085 51.6652 163.212C51.7181 163.338 51.7448 163.474 51.7436 163.611C51.7423 163.748 51.7132 163.883 51.6581 164.008L29.0133 214.133C28.9248 214.321 28.7842 214.479 28.6084 214.589C28.4325 214.699 28.2286 214.757 28.0211 214.754Z" fill="#22B8CF"/>
<path d="M53.5305 214.754C53.3224 214.757 53.1178 214.7 52.9412 214.59C52.7647 214.479 52.6236 214.321 52.535 214.132L29.8944 164.008C29.8392 163.883 29.81 163.748 29.8088 163.611C29.8075 163.474 29.8341 163.338 29.8869 163.212C29.9398 163.086 30.0178 162.971 30.1162 162.876C30.2146 162.781 30.3313 162.707 30.4593 162.658C30.7197 162.549 31.0122 162.543 31.2762 162.644C31.5403 162.744 31.7557 162.942 31.878 163.196L54.5219 213.32C54.8446 213.984 54.2647 214.778 53.5305 214.754Z" fill="#22B8CF"/>
<path d="M121.18 214.754C120.45 214.77 119.864 213.99 120.19 213.32L142.838 163.196C142.96 162.942 143.176 162.744 143.44 162.644C143.704 162.543 143.996 162.549 144.256 162.658C144.384 162.707 144.501 162.781 144.6 162.876C144.698 162.971 144.776 163.086 144.829 163.212C144.882 163.338 144.908 163.474 144.907 163.611C144.906 163.748 144.877 163.883 144.821 164.008L122.173 214.132C122.085 214.32 121.944 214.479 121.768 214.589C121.592 214.699 121.388 214.757 121.18 214.754Z" fill="#22B8CF"/>
<path d="M146.691 214.754C146.482 214.757 146.278 214.7 146.101 214.59C145.925 214.479 145.784 214.321 145.695 214.132L123.047 164.008C122.992 163.883 122.963 163.748 122.961 163.611C122.96 163.474 122.987 163.338 123.039 163.212C123.092 163.086 123.17 162.971 123.269 162.876C123.367 162.781 123.484 162.707 123.612 162.658C123.872 162.549 124.165 162.543 124.429 162.644C124.693 162.744 124.908 162.942 125.03 163.196L147.679 213.32C148.004 213.984 147.425 214.778 146.691 214.754Z" fill="#22B8CF"/>
<path d="M153.937 161.633C154.095 160.896 153.402 160.254 152.66 160.276H21.2208C20.246 160.238 19.37 161.232 19.8628 162.139C20.6741 163.341 21.215 165.974 23.0982 165.86H151.759C152.482 165.86 153.104 165.41 153.241 164.787L153.937 161.633Z" fill="#77F0ED"/>
<path d="M4.78455 179.116C3.98979 180.291 0.833988 206.894 0.340375 216.72C0.309352 217.027 0.401484 217.334 0.596504 217.572C0.791524 217.811 1.07346 217.963 1.38028 217.994C1.6871 218.025 1.99368 217.933 2.23258 217.738C2.47147 217.543 2.62311 217.261 2.65413 216.954L8.4265 179.962L4.78455 179.116Z" fill="#22B8CF"/>
<path d="M30.1587 179.116C30.9526 180.291 34.1084 206.894 34.602 216.72C34.6098 216.877 34.5855 217.035 34.5306 217.182C34.4757 217.33 34.3914 217.465 34.2827 217.579C34.1741 217.693 34.0434 217.783 33.8987 217.845C33.7539 217.907 33.598 217.939 33.4406 217.939C32.6939 218.039 32.1962 216.957 32.2882 216.943C32.1754 216.219 26.5175 179.963 26.5175 179.963L30.1587 179.116Z" fill="#22B8CF"/>
<path d="M0.0104772 177.04C-0.155443 179.245 1.66968 181.13 4.03819 181.167L30.7198 181.621C32.939 181.658 34.7849 180.055 34.896 178C35.1532 175.754 33.3131 173.785 30.8882 173.744L4.19581 173.267C1.91109 173.225 0.029558 174.922 0.0104772 177.04Z" fill="#77F0ED"/>
<path d="M45.1991 212.448C40.9615 212.448 39.0866 212.085 38.2479 211.754C38.3303 212.107 38.5299 212.423 38.8142 212.649C39.0986 212.875 39.451 212.998 39.8142 212.998H54.8059C54.9179 212.998 55.0284 212.972 55.1288 212.922C55.2292 212.872 55.3168 212.8 55.3847 212.711C55.4527 212.622 55.4992 212.519 55.5207 212.409C55.5422 212.299 55.538 212.185 55.5086 212.077C53.8004 212.215 50.1701 212.448 45.1991 212.448Z" fill="#063963"/>
<path d="M55.5085 212.078C51.923 205.893 44.3835 209.153 39.1114 208.147C38.9936 208.756 38.0148 211.157 38.2479 211.754C40.2049 212.913 54.1172 212.282 55.5085 212.078Z" fill="#063963"/>
<path d="M40.1403 205.154L39.1116 208.653C39.1116 208.653 41.3905 209.69 43.3956 208.858L43.7889 205.826L40.1403 205.154Z" fill="#FF928E"/>
<path d="M70.7692 209.331C67.4658 211.986 66.2208 213.792 65.3605 214.061C65.6459 214.284 65.9984 214.405 66.3607 214.402C66.723 214.4 67.074 214.275 67.3566 214.049L79.0432 204.658C79.1304 204.589 79.2004 204.5 79.2477 204.398C79.295 204.297 79.3183 204.186 79.3158 204.075C79.3134 203.963 79.2851 203.853 79.2334 203.754C79.1816 203.655 79.1077 203.569 79.0174 203.504C77.7714 204.674 74.6443 206.217 70.7692 209.331Z" fill="#063963"/>
<path d="M79.0186 203.5C72.3676 200.946 68.5141 208.207 63.7854 210.717C64.0733 211.263 64.8075 213.74 65.3616 214.057C67.6057 213.733 78.0587 204.53 79.0186 203.5Z" fill="#063963"/>
<path d="M18.1339 165.292C60.2163 168.693 52.2571 168.098 44.4621 206.606C44.4621 206.606 43.0452 207.288 39.8927 206.308C39.8927 206.308 43.1281 180.966 40.7223 175.471L13.2517 170.978L18.1339 165.292Z" fill="#063963"/>
<path d="M61.2649 205.897C61.5005 206.112 63.7852 210.721 63.7852 210.721C63.7852 210.721 66.3296 210.17 66.8481 208.564L64.5592 204.404L61.2649 205.897Z" fill="#FF928E"/>
<path d="M2.85298 165.079C0.991357 169.144 2.26231 176.176 8.69835 176.517L38.6909 177.885C38.9984 177.899 39.2933 178.012 39.5323 178.206C39.7712 178.4 39.9415 178.665 40.0183 178.964C40.7234 181.69 44.1663 190.062 61.0072 206.767C62.1288 207.99 64.0767 205.89 65.0838 205.439C65.2052 205.363 65.2921 205.242 65.326 205.103C65.36 204.964 65.3382 204.816 65.2655 204.693L47.8024 174.871C46.8853 173.357 45.4108 172.264 43.6959 171.826L18.1326 165.291L2.85298 165.079Z" fill="#063963"/>
<path d="M2.77118 164.992C2.77118 164.992 2.47418 150.126 5.44581 136.136C6.62551 130.349 10.1563 125.382 14.9356 121.983L21.8868 124.804C32.5771 138.751 22.5804 152.45 20.1447 165.205C20.1521 165.209 8.63646 166.73 2.77118 164.992Z" fill="#116E95"/>
<path d="M19.7155 110.904L14.2849 123.503C14.2849 123.503 16.0271 127.413 22.1047 125.893L24.2766 117.203L19.7155 110.904Z" fill="#FDBAB9"/>
<path d="M30.4768 105.157C30.5423 105.333 30.6859 117.745 30.6859 117.745L23.5969 117.676L21.7129 105.932C21.7129 105.932 29.3809 102.211 30.4768 105.157Z" fill="#FDBAB9"/>
<path d="M23.7922 108.192L24.2999 114.453C24.4484 115.1 25.1112 116.682 26.7671 115.876C28.1633 115.13 29.4484 114.476 30.453 114.56C30.6705 114.578 30.8735 114.677 31.0222 114.837C31.1708 114.996 31.2546 115.206 31.2569 115.424C31.2694 116.552 31.2519 119.093 30.8985 121.299C30.8631 121.515 30.748 121.71 30.576 121.845C30.404 121.981 30.1876 122.047 29.9694 122.03C29.4268 121.895 23.3326 121.704 22.9004 120.199C22.6332 118.649 21.8036 113.94 21.3697 112.663C20.731 110.952 18.7524 111.342 18.0115 110.563C15.9914 107.269 19.947 107.499 19.1107 105.772C18.5848 104.929 18.1443 103.563 19.6915 102.424C22.3462 100.504 23.5582 103.451 24.752 102.41C24.9254 102.239 25.1751 102.142 25.5294 102.269C25.6435 102.308 25.7644 102.322 25.8843 102.311C26.0043 102.3 26.1207 102.264 26.226 102.206C26.3312 102.147 26.4232 102.067 26.4958 101.971C26.5684 101.875 26.6201 101.765 26.6477 101.648C28.1409 97.2723 34.0892 100.032 33.1368 104.808C32.7635 106.947 29.3505 106.901 27.5046 106.262C26.1159 105.766 23.8021 107.119 23.7922 108.192Z" fill="#063963"/>
<path d="M36.4467 153.052C18.5448 158.672 19.4972 133.474 19.381 133.298C12.2838 122.453 8.29922 136.905 8.98696 138.939C15.2811 161.728 31.1497 160.6 37.3328 156.123C36.5629 154.929 36.387 153.875 36.4467 153.052Z" fill="#116E95"/>
<path d="M46.8533 147.615C47.3511 147.532 39.119 154.185 41.8625 150.032C43.4653 147.801 42.6854 146.649 40.857 149.054C37.9459 152.497 38.398 152.141 36.3149 152.876C36.2552 153.699 36.4311 154.753 37.2009 155.951C42.8165 154.177 45.0017 154.558 46.8533 147.615Z" fill="#FDBAB9"/>
<path d="M87.4893 136.012C10.0593 99.6945 91.1395 64.9309 101.019 104.177C102.435 121.758 68.3662 117.634 87.4893 136.012Z" fill="#22B8CF"/>
<path d="M60.4778 101.403H80.7391C80.8619 101.403 80.9797 101.354 81.0665 101.267C81.1533 101.181 81.2021 101.063 81.2021 100.94C81.2021 100.817 81.1533 100.7 81.0665 100.613C80.9797 100.526 80.8619 100.477 80.7391 100.477H60.4778C59.883 100.468 59.873 101.412 60.4778 101.403Z" fill="#D2FCF4"/>
<path d="M86.7554 101.403H92.7676C92.8903 101.403 93.0081 101.354 93.0949 101.267C93.1817 101.181 93.2305 101.063 93.2305 100.94C93.2305 100.817 93.1817 100.7 93.0949 100.613C93.0081 100.526 92.8903 100.477 92.7676 100.477H86.7554C86.1565 100.468 86.154 101.412 86.7554 101.403Z" fill="#D2FCF4"/>
<path d="M59.7953 105.505H67.4036C67.466 105.507 67.5282 105.497 67.5867 105.475C67.6451 105.453 67.6984 105.42 67.7435 105.376C67.7886 105.333 67.8245 105.281 67.849 105.224C67.8735 105.166 67.8861 105.105 67.8861 105.042C67.8861 104.98 67.8735 104.918 67.849 104.861C67.8245 104.803 67.7886 104.751 67.7435 104.708C67.6984 104.665 67.6451 104.631 67.5867 104.609C67.5282 104.587 67.466 104.577 67.4036 104.58H59.7953C59.1972 104.571 59.193 105.514 59.7953 105.505Z" fill="#D2FCF4"/>
<path d="M78.5664 105.505H92.0889C92.1513 105.507 92.2136 105.497 92.272 105.475C92.3304 105.453 92.3838 105.42 92.4288 105.376C92.4739 105.333 92.5098 105.281 92.5343 105.224C92.5588 105.166 92.5714 105.105 92.5714 105.042C92.5714 104.98 92.5588 104.918 92.5343 104.861C92.5098 104.803 92.4739 104.751 92.4288 104.708C92.3838 104.665 92.3304 104.631 92.272 104.609C92.2136 104.587 92.1513 104.577 92.0889 104.58H78.5664C77.9699 104.571 77.9633 105.514 78.5664 105.505Z" fill="#D2FCF4"/>
<path d="M59.1121 109.607H79.337C79.4598 109.607 79.5775 109.558 79.6643 109.471C79.7511 109.384 79.7999 109.266 79.7999 109.144C79.7999 109.021 79.7511 108.903 79.6643 108.816C79.5775 108.73 79.4598 108.681 79.337 108.681H59.1121C58.5182 108.672 58.5074 109.616 59.1121 109.607Z" fill="#D2FCF4"/>
<path d="M84.401 109.607H91.402C91.5248 109.607 91.6425 109.558 91.7293 109.471C91.8161 109.384 91.8649 109.266 91.8649 109.144C91.8649 109.021 91.8161 108.903 91.7293 108.816C91.6425 108.73 91.5248 108.681 91.402 108.681H84.401C83.802 108.672 83.7987 109.616 84.401 109.607Z" fill="#D2FCF4"/>
</svg>
