<svg width="223" height="223" viewBox="0 0 223 223" fill="none" xmlns="http://www.w3.org/2000/svg">
<path d="M192.383 186.968C164.105 219.497 100.1 218.529 86.378 213.386C5.77887 210.611 -13.4465 118.078 26.0342 57.261C46.2387 22.1068 113.177 -20.5988 179.96 31.0279C223.136 65.3374 232.017 147.293 192.383 186.968Z" fill="#919EAB" fill-opacity="0.08"/>
<path d="M194.779 164.889C203.246 168.958 209.707 155.061 200.994 151.354C201.616 149.349 202.09 147.3 202.413 145.225C212.047 145.134 212.42 129.294 202.106 130.654C201.705 128.664 201.151 126.708 200.448 124.803C209.071 119.678 201.847 106.265 193.227 112.8C191.911 111.346 190.475 110.006 188.934 108.793C190.795 105.223 193.733 100.584 190.129 98.8909C181.885 94.9446 178.621 98.4428 176.705 102.586C174.817 102.058 172.887 101.69 170.937 101.486C170.787 97.6228 172.274 94.4853 168.187 94.5682C159.391 94.4666 156.621 98.2068 156.984 102.745C155.032 103.303 153.125 104.011 151.282 104.862C146.287 95.7303 133.727 105.391 139.341 113.217C137.857 114.703 136.484 116.296 135.234 117.983C126.766 112.995 119.491 127.341 128.512 131.226C127.89 133.231 127.416 135.28 127.093 137.354C117.459 137.446 117.085 153.285 127.4 151.925C127.801 153.915 128.355 155.872 129.057 157.777C125.383 159.89 124.039 164.844 126.167 168.334C128.173 171.662 134.81 173.206 138.117 170.886C138.286 170.767 136.117 169.91 136.275 169.78C137.591 171.234 139.027 172.574 140.568 173.786C135.254 183 148.504 189.718 152.798 179.993C154.687 180.521 156.616 180.889 158.567 181.094C158.384 191.914 173.475 189.814 172.518 179.835C174.47 179.277 176.377 178.569 178.22 177.718C183.224 186.85 195.781 177.189 190.17 169.363C191.653 167.877 193.026 166.283 194.277 164.596C194.437 164.699 194.604 164.8 194.779 164.889ZM152.502 165.433C123.413 150.526 147.806 102.466 177.009 117.148C206.098 132.054 181.704 180.117 152.502 165.433Z" fill="#C4CDD5"/>
<path d="M203.004 145.204C212.223 144.369 212.061 129.291 202.107 130.654C201.707 128.664 201.153 126.708 200.45 124.803C213.319 116.348 203.202 104.401 193.23 112.799C191.913 111.346 190.476 110.006 188.935 108.793C190.209 106.764 190.429 104.198 189.682 102.167C186.486 107.793 183.337 113.448 180.236 119.13C200.961 133.597 186.257 170.425 161.41 167.891C159.796 172.269 157.799 176.48 155.752 180.679C156.689 180.856 157.629 180.994 158.572 181.093C158.403 185.519 160.789 189.167 168.103 188.81C172.177 188.643 172.767 183.867 172.523 179.835C174.476 179.277 176.382 178.569 178.225 177.718C183.709 185.611 198.726 182.209 190.17 169.363C191.654 167.876 193.026 166.283 194.277 164.596C202.745 169.585 210.02 155.239 200.999 151.354C201.621 149.348 202.095 147.3 202.418 145.225C202.611 145.225 202.806 145.222 203.004 145.204Z" fill="#C4CDD5"/>
<path d="M198.427 165.303C206.894 169.372 213.356 155.474 204.642 151.767C205.264 149.762 205.738 147.714 206.061 145.639C215.695 145.547 216.068 129.708 205.754 131.069C205.353 129.078 204.799 127.121 204.096 125.216C212.719 120.091 205.496 106.679 196.875 113.214C195.559 111.76 194.123 110.419 192.582 109.207C197.896 99.9929 184.646 93.275 180.352 103C178.463 102.473 176.534 102.105 174.583 101.9C174.766 91.08 159.676 93.1794 160.632 103.159C158.68 103.717 156.773 104.424 154.93 105.276C149.935 96.1437 137.375 105.804 142.989 113.63C141.505 115.117 140.133 116.71 138.882 118.397C130.414 113.409 123.14 127.755 132.16 131.64C131.538 133.645 131.064 135.694 130.741 137.768C121.107 137.86 120.733 153.699 131.048 152.339C131.449 154.329 132.003 156.286 132.705 158.191C124.084 163.316 131.306 176.729 139.926 170.194C141.243 171.647 142.679 172.988 144.22 174.201C138.906 183.414 152.155 190.132 156.45 180.407C158.338 180.935 160.268 181.303 162.218 181.507C162.035 192.327 177.126 190.228 176.17 180.248C178.122 179.691 180.028 178.983 181.872 178.131C186.867 187.263 199.427 177.603 193.813 169.777C195.297 168.29 196.67 166.697 197.921 165.01C198.087 165.113 198.252 165.214 198.427 165.303ZM156.151 165.847C127.061 150.94 151.455 102.879 180.657 117.561C209.746 132.468 185.352 180.528 156.151 165.847Z" fill="#DFE3E8"/>
<path d="M214.526 40.9241C206.211 4.94614 129.003 -9.31793 105.358 31.2703C95.2246 55.7602 122.216 96.5613 155.734 97.6226C156.252 104.372 149.124 110.191 149.124 110.191C165.067 112.079 174.96 101.131 180.217 92.4208C201.975 82.2398 217.919 59.2025 214.526 40.9241Z" fill="#22B8CF"/>
<path opacity="0.24" d="M214.526 40.9236C209.315 14.0819 164.743 1.19126 135.241 9.71131C119.474 42.4382 187.504 53.2369 186.211 69.0858C185.157 77.8747 165.502 81.9615 164.6 96.4832C164.439 99.0777 164.956 100.717 163.828 103.043C161.702 107.428 156.066 109.431 149.813 110.261C165.352 111.759 175.036 101 180.217 92.4181C201.974 82.2393 217.919 59.202 214.526 40.9236Z" fill="#116E95"/>
<path d="M136.784 94.5523C137.139 85.5423 137.317 81.0343 135.45 77.6526C125.45 61.5281 103.222 66.6829 93.5561 77.0641C87.6313 81.9933 88.656 83.5452 85.1592 85.195C75.4943 89.7508 67.2872 78.0999 53.2725 77.8923C37.8128 77.6683 26.2246 91.5372 23.4344 95.1587C-2.72097 137.9 30.581 172.773 64.5499 174.582C102.792 174.336 84.8844 157.604 95.8594 138.999C96.9049 137.446 100.079 132.741 105.948 129.688C112.577 126.24 116.388 128.153 123.252 124.294C136.665 114.876 135.643 111.023 136.784 94.5523Z" fill="#B3200E"/>
<path d="M18.863 144.975C57.0068 184.723 43.4889 151.715 56.3825 142.948C63.7524 138.68 70.9318 146.44 77.5706 142.409C85.9614 137.315 78.6162 122.413 86.7501 114.653C102.719 103.1 129.937 129.486 136.827 93.4429C135.661 110.206 137.113 114.687 123.249 124.294C116.385 128.153 112.574 126.236 105.945 129.688C100.076 132.741 96.9035 137.446 95.8572 138.999C88.3648 150.114 94.5285 159.15 88.9384 166.964C68.6196 185.633 29.9037 169.534 18.863 144.975Z" fill="#770508"/>
<path d="M194.461 129.884C194.461 129.884 196.514 127.43 200.365 127.315C204.216 127.199 209.463 124.913 211.717 124.713C212.261 124.664 212.531 124.507 212.577 124.309C212.672 123.901 210.17 123.305 207.952 123.231C204.016 123.1 201.721 124.609 201.191 123.833C200.598 122.966 203.137 120.598 202.672 120.068C202.311 119.656 200.585 120.977 198.737 121.781C197.425 122.352 192.294 128.489 192.294 128.489L194.461 129.884Z" fill="#FDBAB9"/>
<path d="M194.587 125.43C195.541 127.356 196.496 129.282 197.451 131.21C191.476 164.071 161.059 205.211 125.925 171.345C112.165 161.683 112.108 146.906 123.169 132.478C126.58 127.922 133.678 128.903 135.695 134.226C138.875 142.623 144.24 148.455 150.403 149.595C164.825 150.154 170.32 142.253 180.54 134.246C184.923 130.855 189.627 127.902 194.587 125.43Z" fill="#FA541C"/>
<path opacity="0.24" d="M138.151 168.634C143.46 167.439 145.465 162.51 152.743 162.066C161.946 161.508 165.9 168.956 171.788 166.996C176.592 165.392 177.389 159.284 180.741 151.422C183.339 145.323 187.846 137.3 196.246 128.782L197.451 131.213C191.464 164.098 161.059 205.204 125.925 171.349C120.588 166.929 115.828 162.237 115.229 155.182C126.208 167.712 133.385 169.707 138.151 168.634Z" fill="#B3200E"/>
<path d="M137.045 212.531C137.293 204.294 137.781 192.08 139.031 186.115C142.276 170.633 146.227 166.715 145.169 156.775C143.027 142.098 134.863 131.772 126.881 124.043C117.553 122.456 115.667 121.789 105.882 126.684C73.1191 142.714 69.6216 193.399 70.7919 210.395C77.3956 212.589 85.5661 214.48 95.3356 215.314C92.9644 198.286 93.8277 187.073 97.4268 173.436C101.254 187.227 102.057 198.352 102.791 215.726C112.767 215.982 124.176 215.128 137.045 212.531Z" fill="#FA541C"/>
<path opacity="0.24" d="M124.084 200.316C127.662 187.635 138.791 179.69 136.046 175.118C133.581 171.01 124.279 176.894 115.98 171.574C106.79 165.683 109.707 153.023 103.246 151.1C96.9954 149.239 86.1489 158.687 83.567 169.605C81.3541 187.25 94.2604 193.336 76.7236 212.15C82.1092 213.564 88.3065 214.713 95.3359 215.313C92.9646 198.285 93.828 187.072 97.427 173.435C101.255 187.226 102.057 198.351 102.791 215.725C109.079 215.887 115.935 215.606 123.374 214.726C122.641 210.037 122.715 205.165 124.084 200.316Z" fill="#B3200E"/>
<path d="M125.269 107.889C125.269 107.889 125.543 114.946 125.269 119.684C125.068 123.153 128.067 125.128 128.067 125.128C128.067 125.128 129.71 127.95 120.808 128.422C111.906 128.894 103.235 128.422 103.235 128.422C103.235 128.422 111.943 122.63 113.932 121.091C115.922 119.551 116.989 108.045 115.715 100.757L125.269 107.889Z" fill="#FDBAB9"/>
<path d="M127.547 85.1184C127.547 85.1184 132.079 96.047 132.055 102.651C132.032 109.254 127.414 113.044 123.915 111.413C120.416 109.783 115.136 102.915 115.136 102.915C110.841 107.895 105.338 90.0408 112.283 93.6294C109.082 81.9196 125.765 77.0427 127.547 85.1184Z" fill="#FDBAB9"/>
<path d="M120.069 108.404C113.803 108.404 110.523 98.6889 111.629 98.6777C112.738 98.4223 113.997 108.859 121.473 107.358C122.028 107.225 122.229 108.105 121.667 108.221C121.143 108.341 120.607 108.402 120.069 108.404Z" fill="#116E95"/>
<path d="M125.671 106.947C126.095 108.52 121.65 109.675 121.255 108.096C120.831 106.523 125.275 105.368 125.671 106.947Z" fill="#116E95"/>
<path d="M113.016 97.1881C114.092 101.549 110.074 102.593 108.89 98.2606C107.814 93.8997 111.832 92.8556 113.016 97.1881Z" fill="#116E95"/>
<path d="M42.1443 38.8667C47.1713 17.117 93.8449 8.49535 108.137 33.0293C114.261 47.8334 97.9466 72.498 77.6846 73.1396C77.3717 77.2196 81.6802 80.7365 81.6802 80.7365C72.0459 81.8785 66.0621 75.2606 62.885 69.9946C49.7315 63.8421 40.0935 49.9171 42.1443 38.8667Z" fill="#FFC81A"/>
<path d="M68.8721 43.9546C68.7011 49.0257 61.2304 48.6284 61.2349 43.6894C61.4134 38.6213 68.8713 39.0261 68.8721 43.9546Z" fill="#B7860D"/>
<path d="M81.7916 44.402C81.6303 49.4283 74.3089 49.0265 74.306 44.1421C74.4733 39.118 81.7842 39.528 81.7916 44.402Z" fill="#B7860D"/>
<path d="M94.4561 44.8427C94.3067 49.8242 87.128 49.4186 87.1183 44.588C87.2766 39.6073 94.4419 40.0218 94.4561 44.8427Z" fill="#B7860D"/>
<path d="M148.261 59.616H133.518V56.6906C135.118 54.8436 141.558 48.5059 142.596 46.5424C143.497 45.1234 143.54 43.2167 142.559 42.0733C142.076 41.5256 141.386 41.2517 140.491 41.2517C138.442 41.2376 137.354 42.8776 137.374 44.871H133.09C133.259 34.1253 151.803 36.165 146.739 47.1608C145.749 49.494 140.892 54.0923 139.011 56.1738H148.258L148.261 59.616Z" fill="#D2FCF4"/>
<path d="M163.507 51.5195H165.944V54.9618H163.507V59.6154H159.238V54.9618H150.418L150.226 52.2731L159.193 38.1062H163.507V51.5195ZM154.481 51.5195H159.238V43.9271L158.957 44.414L154.481 51.5195Z" fill="#D2FCF4"/>
<path d="M169.756 61.4616H166.579L174.496 38.1062H177.672L169.756 61.4616Z" fill="#D2FCF4"/>
<path d="M194.16 40.4893L185.843 59.6154H181.337L189.669 41.5484H178.973V38.1062H194.16V40.4893Z" fill="#D2FCF4"/>
</svg>
