<svg width="232" height="232" viewBox="0 0 232 232" fill="none" xmlns="http://www.w3.org/2000/svg">
<path opacity="0.48" d="M213.516 91.5481L207.784 52.4167L194.974 53.7205C193.893 53.5174 191.838 54.6547 191.351 55.8012L174.529 95.4494C174.008 96.6791 174.807 98.0904 176.018 98.082L180.821 97.8782V190.293C180.821 191.94 182.004 193.122 183.458 192.934L194.973 195.523C196.35 195.343 209.246 188.317 209.246 186.729V94.0892L212.158 94.0739C213.263 94.0678 213.988 92.716 213.516 91.5481Z" fill="#919EAB"/>
<g style="mix-blend-mode:multiply" opacity="0.3">
<path d="M193.529 97.4648L180.822 97.8816V190.297C180.822 191.943 182.005 193.126 183.459 192.938L194.974 195.527C195.541 195.451 198.068 194.214 200.838 192.674L193.529 97.4648Z" fill="#DFE3E8"/>
</g>
<path d="M224.51 97.2663L221.567 97.2838V189.491C221.567 191.069 220.53 192.494 219.18 192.67L196.111 195.691C194.671 195.88 193.527 194.703 193.527 193.065V97.464L190.403 97.4853C189.205 97.496 188.412 96.0916 188.928 94.8665L206.45 53.2795C207.014 51.9415 208.7 52.0262 209.261 53.4192L225.888 94.7474C226.353 95.9099 225.604 97.2579 224.51 97.2663Z" fill="#DFE3E8"/>
<path opacity="0.48" d="M158.053 200.6L146.022 197.776C144.508 197.972 143.277 196.803 143.277 195.165V119.674C143.277 118.037 144.508 116.672 146.022 116.627C154.307 116.398 177.683 115.448 185.234 116.505L174.38 191.258C174.38 192.832 158.053 200.6 158.053 200.6Z" fill="#919EAB"/>
<path d="M187.3 119.2V194.023C187.3 194.461 187.133 194.888 186.974 195.28C186.569 196.289 185.662 197.066 184.648 197.195L159.156 200.536C157.654 200.732 156.491 199.572 156.491 197.94V120.236C156.491 118.608 157.635 117.25 159.137 117.204C162.76 117.101 180.707 116.553 184.704 116.441C186.11 116.392 187.3 117.631 187.3 119.2Z" fill="#DFE3E8"/>
<path opacity="0.48" d="M117.742 205.893L105.055 203.063C103.388 203.278 102.037 202.06 102.037 200.342L102.42 147.445C102.42 145.727 103.778 144.253 105.439 144.152L133.779 142.442C135.334 142.349 148.372 144.164 148.372 144.164L136.215 196.049C136.213 197.7 119.313 205.687 117.742 205.893Z" fill="#919EAB"/>
<path d="M149.221 146.369V198.831C149.221 200.476 148.041 201.971 146.5 202.171L118.53 205.844C116.883 206.061 115.644 204.852 115.644 203.14V148.56C115.644 146.848 116.914 145.381 118.561 145.278C124.167 144.852 140.673 143.981 146.519 143.566C148.059 143.47 149.221 144.727 149.221 146.369Z" fill="#DFE3E8"/>
<path opacity="0.48" d="M71.7297 211.291L59.8586 208.901C58.0157 209.139 56.5161 207.867 56.5161 206.06V178.573C56.5161 176.766 58.0157 175.165 59.8586 174.997C68.6883 174.149 96.7419 170.937 104.731 173.394L94.2515 201.32C94.2515 203.053 73.4669 211.064 71.7297 211.291Z" fill="#919EAB"/>
<path d="M107.681 176.235V204.118C107.681 204.657 107.606 205.182 107.367 205.654C106.654 207.2 105.089 207.722 103.507 207.792L73.6567 211.692C71.8327 211.93 70.2961 210.666 70.2961 208.868V179.801C70.435 175.877 74.8318 176.142 77.6377 175.877C81.3899 175.537 100.498 173.771 104.655 173.39C106.346 173.237 107.681 174.509 107.681 176.235Z" fill="#DFE3E8"/>
<path opacity="0.48" d="M44.4706 188.572L9.73504 192.199C8.2521 192.352 6.97292 193.298 6.37672 194.53C5.6477 194.891 6.16164 210.294 6.01749 211.143C6.01749 213.051 7.61288 214.61 9.73504 215.371L22.0091 217.838C23.9373 217.587 47.9014 208.964 47.9014 207.139L53.6573 200.135L59.4812 190.158C59.4812 190.158 46.3686 188.374 44.4706 188.572Z" fill="#919EAB"/>
<path d="M61.9882 193.19V209.956C61.9882 211.774 60.4291 213.444 58.5492 213.689C53.6437 214.322 29.5378 217.479 24.1358 218.184C22.1072 218.45 20.45 217.13 20.45 215.233V197.716C20.45 195.821 22.0967 194.109 24.1245 193.893C26.9319 193.613 54.9599 190.632 58.5522 190.265C60.4298 190.062 61.9882 191.376 61.9882 193.19Z" fill="#DFE3E8"/>
<g style="mix-blend-mode:multiply" opacity="0.3">
<path d="M221.57 173.72V189.483C221.57 191.062 220.533 192.487 219.183 192.663L196.114 195.684C194.674 195.873 193.53 194.696 193.53 193.058V97.6223C213.406 100.828 193.264 154.468 203.626 158.785C206.369 161.705 217.069 164.989 221.57 173.72Z" fill="#DFE3E8"/>
</g>
<g style="mix-blend-mode:multiply" opacity="0.3">
<path d="M186.897 195.278C186.493 196.287 185.624 197.064 184.61 197.193L159.137 200.534C157.635 200.73 156.491 199.57 156.491 197.938V120.234C156.555 115.888 162 117.438 164.687 117.035C168.953 120.273 170.239 124.929 168.347 130.864C150.21 188.038 185.575 158.667 186.897 195.278Z" fill="#DFE3E8"/>
</g>
<g style="mix-blend-mode:multiply" opacity="0.3">
<path d="M149.222 194.349C149.104 196.868 150.084 201.676 146.5 202.17L118.53 205.843C116.883 206.06 115.644 204.851 115.644 203.14V148.56C115.644 146.848 116.914 145.381 118.561 145.278L127.224 144.743C136.644 151.784 118.874 169.29 130.182 183.995C137.975 194.129 145.76 183.775 149.222 194.349Z" fill="#DFE3E8"/>
</g>
<g style="mix-blend-mode:multiply" opacity="0.3">
<path d="M103.507 207.796L73.6567 211.696C71.8327 211.934 70.2961 210.67 70.2961 208.872V179.806C70.4252 175.887 74.8401 176.142 77.6377 175.881C80.0028 191.029 100.24 186.029 103.507 207.796Z" fill="#DFE3E8"/>
</g>
<g style="mix-blend-mode:multiply" opacity="0.3">
<path d="M51.0284 214.664L24.1264 218.182C22.0986 218.449 20.4519 217.129 20.4519 215.232V197.715C20.5176 193.269 26.3618 193.766 29.4062 193.335C33.1939 200.729 46.5049 200.729 51.0284 214.664Z" fill="#DFE3E8"/>
</g>
<path d="M161.75 213.029C161.75 213.029 162.305 215.304 162.322 216.128C162.339 216.952 153.374 218.1 153.234 217.494C153.095 216.887 154.593 215.782 155.679 215.346C158.193 214.363 160.035 213.706 161.75 213.029Z" fill="#22B8CF"/>
<path d="M159.384 210.907L159.897 213.749C159.897 213.749 160.999 214.36 161.877 213.749L162.091 210.592L159.384 210.907Z" fill="#FDBAB9"/>
<path d="M178.102 215.464C178.102 215.464 178.657 217.738 178.674 218.563C178.692 219.387 169.726 220.538 169.589 219.928C169.452 219.317 170.947 218.216 172.034 217.78C174.548 216.798 176.388 216.14 178.102 215.464Z" fill="#22B8CF"/>
<path d="M175.735 213.344L176.249 216.186C176.249 216.186 177.35 216.797 178.229 216.186L178.442 213.029L175.735 213.344Z" fill="#FDBAB9"/>
<path d="M155.089 135.965L152.475 142.617C152.576 163.64 154.89 190.668 158.546 212.008L162.761 211.469C164.477 207.21 166.393 200.812 166.007 193.138C165.605 185.133 163.127 184.267 162.673 176.608C162.084 166.685 165.984 163.708 167.228 151.605C167.705 146.978 167.797 140.978 166.554 133.808L155.089 135.965Z" fill="#212B36"/>
<path opacity="0.04" d="M166.555 133.806L160.363 134.973C157.138 141.872 156.636 148.822 157.534 151.805C158.804 156.025 161.375 157.202 161.581 161.526C161.785 165.801 159.387 167.113 158.208 172.27C157.393 175.842 157.934 179.02 159.052 185.233C161.504 200.785 167.546 203.433 158.174 209.71C158.297 210.478 158.419 211.249 158.545 212.009L162.761 211.47C164.476 207.21 166.392 200.813 166.006 193.138C165.605 185.134 163.126 184.267 162.673 176.608C162.084 166.685 165.983 163.708 167.228 151.606C167.706 146.977 167.798 140.976 166.555 133.806Z" fill="white"/>
<path d="M160.99 139.35C167.192 162.304 172.545 191.589 174.876 214.826L179.53 214.582C189.283 191.168 179.054 185.787 180.192 164.763C180.66 144.601 184.535 126.968 160.99 139.35Z" fill="#212B36"/>
<path d="M115.942 114.694C115.942 114.694 112.533 114.399 112.041 113.84C111.548 113.281 111.229 113.252 111.155 112.739C111.081 112.227 109.645 112.474 110.242 113.585C110.839 114.697 109.492 114.113 109.228 114.087C108.624 114.025 106.301 113.956 106.369 114.101C106.436 114.246 105.329 115.704 106.972 116.462C108.414 117.123 107.992 116.832 108.929 116.877C109.866 116.922 112.768 115.961 112.768 115.961L115.253 116.152L115.942 114.694Z" fill="#FDBAB9"/>
<path d="M113.945 113.085L113.492 116.533C125.683 128.822 150.744 120.93 154.328 104.13C155.493 97.1644 154.448 86.4286 146.522 92.2709C132.333 104.102 139.924 114.837 113.945 113.085Z" fill="#22B8CF"/>
<path d="M151.464 144.895C149.783 142.529 151.456 139.974 151.506 135.224C151.563 129.84 149.457 129.118 146.742 120.416C143.808 111.203 141.023 98.6903 149.713 90.6672C153.368 88.0506 172.436 88.2185 175.454 89.8054C175.884 89.9924 184.832 94.015 186.031 101.656C185.017 116.855 173.815 108.915 180.9 138.18C184.628 150.47 176.378 147.931 160.071 147.387C154.948 147.068 152.717 146.661 151.464 144.895Z" fill="#22B8CF"/>
<path opacity="0.2" d="M169.337 120.761C170.045 122.751 172.13 124.111 173.89 128.948C174.268 129.992 176.976 137.428 174.397 139.522C172.906 140.731 171.329 138.797 167.483 138.84C159.463 138.992 156.5 147.707 150.753 141.693C150.668 146.654 153.562 146.876 160.072 147.39C173.141 148.209 179.676 148.619 181.526 145.177C182.295 143.747 181.818 142.63 180.902 138.187C179.949 133.561 178.479 126.432 178.612 121.7C179.318 109.316 191.442 106.739 183.651 96.2415C173.308 101.482 167.114 114.509 169.337 120.761Z" fill="#063963"/>
<path d="M190.354 144.806C190.354 144.806 192.435 145.512 192.656 148.999C192.316 148.969 191.523 148.987 191.523 148.987C191.523 148.987 191.671 146.452 190.188 145.938C190.308 145.644 190.354 144.806 190.354 144.806Z" fill="#FDAB76"/>
<path d="M182.634 144.476L182.792 146.401C185.107 145.616 188.268 145.58 190.533 146.234C190.845 145.982 190.818 144.773 190.678 144.647C188.191 143.599 184.881 143.718 182.634 144.476Z" fill="#FA541C"/>
<path d="M182.534 145.028C182.521 144.559 182.64 144.212 182.848 144.771C182.948 144.885 182.957 146.151 182.891 146.177C182.736 146.899 182.501 145.512 182.534 145.028Z" fill="#B3200E"/>
<path d="M180.596 149.062C181.038 149.15 182.106 149.41 182.106 149.41C182.106 149.41 181.408 147.146 182.724 146.124C182.816 145.845 182.755 145.059 182.594 144.765C182.041 145.074 180.821 146.126 180.596 149.062Z" fill="#FDAB76"/>
<path d="M171.366 149.563C171.366 149.563 171.421 148.365 173.297 148.386C173.592 148.608 173.607 149.585 173.607 149.585L171.366 149.563Z" fill="#770508"/>
<path d="M169.694 173.144L174.829 176.208L177.913 164.636L172.82 149.146L171.366 149.564C171.626 149.952 168.23 173.725 169.694 173.144Z" fill="#FA541C"/>
<path d="M172.82 149.146L200.136 149.436L204.287 173.23L174.829 176.208L172.82 149.146Z" fill="#B3200E"/>
<path d="M173.297 148.385C172.939 148.344 172.186 148.41 171.78 148.813C173.261 148.188 173.303 150.164 173.393 151.143C173.533 152.602 174.396 161.666 174.396 161.666C174.46 162.43 175.03 163.006 175.702 162.988C176.396 162.739 200.921 161.884 201.53 161.338C202.613 161.229 200.524 150.373 200.678 149.736C200.571 149.133 200.119 148.696 199.594 148.689L173.297 148.385Z" fill="#770508"/>
<path d="M173.577 148.391C173.182 148.378 172.511 148.326 172.09 148.6C173.506 148.284 173.554 150.005 173.675 151.148C173.816 152.606 174.677 161.667 174.677 161.667C174.742 162.431 175.311 163.006 175.983 162.989C176.686 162.744 201.456 162.696 202.071 162.118C203.194 162.095 200.789 150.329 200.943 149.737C200.838 149.133 200.386 148.697 199.86 148.691L173.577 148.391Z" fill="#FA541C"/>
<path d="M190.435 164.472C185.092 165.878 186.48 165.907 186.101 160.862C186.078 160.267 186.569 160.056 187.042 160.117L190.262 160.533C190.568 160.528 190.825 160.359 190.84 160.732L190.97 164.264C190.985 164.638 190.741 164.444 190.435 164.472Z" fill="#B3200E"/>
<path d="M190.678 164.994L187.131 165.319C186.789 165.35 186.494 165.049 186.479 164.649L186.338 160.863C186.323 160.463 186.594 160.131 186.937 160.125L190.494 160.064C190.8 160.059 191.06 160.36 191.074 160.734L191.205 164.266C191.22 164.639 190.983 164.967 190.678 164.994Z" fill="#FDAB76"/>
<path d="M186.39 139.646C186.39 139.646 186.088 141.644 185.794 141.832C185.5 142.021 184.565 143.077 184.751 143.755C184.937 144.434 184.229 145.982 185.552 146.357C186.875 146.733 188.395 147.133 188.548 145.934C188.689 143.921 187.921 141.976 188.926 140.325L186.39 139.646Z" fill="#FDBAB9"/>
<path d="M173.89 89.2075C169.715 111.53 182.51 110.317 186.711 122.769C187.481 127.462 187.816 136.715 185.552 139.714C187.589 140.538 187.807 140.492 189.347 140.492C202.794 125.829 201.387 97.3809 173.89 89.2075Z" fill="#22B8CF"/>
<path d="M168.381 89.1157C162.878 87.6594 161.638 86.4541 160.91 81.1133C160.91 81.1133 157.977 81.9018 158.406 83.4345C158.836 84.9672 158.104 88.4814 156.421 89.2661C155.242 89.8157 153.779 90.0363 153.464 90.4034C153.043 90.5278 153.923 91.7377 156.944 93.4566C167.539 91.7026 168.914 90.2279 168.381 89.1157Z" fill="#FDBAB9"/>
<path d="M156.989 80.3964C155.631 79.2453 155.442 79.1133 155.27 78.6912C154.581 76.9967 155.722 74.5068 157.428 73.7794C157.517 73.7412 158.66 73.2664 159.148 73.745C159.563 74.1511 159.051 74.7999 159.384 75.6212C159.696 76.3898 160.377 76.3937 161.712 77.3264C162.811 78.0943 163.494 78.5721 163.701 79.3049C164.128 80.8162 162.466 83.1908 160.833 83.2618C160.247 83.284 160.065 82.9916 156.989 80.3964Z" fill="#063963"/>
<path d="M160.694 83.5064C160.694 83.5064 159.475 85.1505 157.393 84.804C155.528 84.4987 155.657 80.2151 156.94 79.4281C157.94 78.8869 158.838 79.3724 159.92 79.9151C160.488 80.125 160.66 80.0754 160.821 80.2425C161.023 80.4509 161.141 80.9295 160.655 82.1347C162.217 80.9883 162.752 83.1202 160.694 83.5064Z" fill="#FDBAB9"/>
<path d="M159.815 93.1005C159.815 93.1005 159.224 96.2926 158.3 96.3545C157.764 96.3893 157.229 96.4517 156.699 96.5415L155.665 92.6379C155.665 92.6379 157.012 93.7485 159.815 93.1005Z" fill="#116E95"/>
<path d="M158.739 96.0859C158.739 96.0859 160.795 119.435 168.002 123.172C167.817 123.92 168.002 129.995 168.002 129.995C168.002 129.995 161.285 127.948 160.901 128.087C160.517 128.225 152.764 115.224 156.699 96.5424L158.739 96.0859Z" fill="#063963"/>
<path d="M103.56 115.414C103.56 115.414 106.352 112.926 106.917 112.018C107.482 111.109 107.498 112.89 106.932 113.25C106.366 113.609 114.917 112.41 113.41 113.911C111.903 115.413 110.817 116.825 108.793 116.92C103.528 117.071 103.649 119.676 103.56 115.414Z" fill="#FDBAB9"/>
<path d="M48.2947 98.0813C20.8062 109.539 39.2211 150.427 65.8206 131.708C67.0907 130.243 67.7608 128.619 68.1367 127.255L66.7028 123.397C64.9504 121.26 62.5649 120.751 61.291 120.433C58.15 119.651 55.7818 121.065 53.9804 119.534C52.985 118.686 52.7873 117.466 52.6107 116.376C52.0069 112.665 54.08 110.38 54.231 108.091C54.9034 103.938 53.954 98.5797 48.2947 98.0813Z" fill="#FA541C"/>
<path d="M44.2201 221.095C44.0986 220.416 41.9289 219.797 40.8543 220.713C40.3215 221.165 39.9539 222.081 40.2626 222.495C40.3743 222.648 39.9147 222.91 40.3554 222.916C41.8172 222.93 44.3416 221.771 44.2201 221.095Z" fill="#FA541C"/>
<path d="M41.9462 221.343L39.7146 221.024C40.7485 219.766 40.5576 215.758 40.5576 215.758L42.9303 216.292C42.8782 216.595 41.8156 219.952 41.9462 221.343Z" fill="#FDBAB9"/>
<path d="M42.1441 221.061C42.1441 221.061 39.4582 220.436 39.1676 220.974C38.8771 221.513 38.6514 222.959 40.3555 222.91C42.0596 222.861 42.2958 221.519 42.1441 221.061Z" fill="#FA541C"/>
<path d="M74.8367 223.641C74.6224 222.987 72.3885 222.684 71.4512 223.738C70.9856 224.26 70.7486 225.22 71.1116 225.586C71.2429 225.719 70.8248 226.044 71.2625 225.989C72.7108 225.799 75.0503 224.293 74.8367 223.641Z" fill="#FA541C"/>
<path d="M72.6194 224.21H70.366C71.2157 222.817 70.4709 218.875 70.4709 218.875L72.8949 219.069C72.8866 219.376 72.2979 222.85 72.6194 224.21Z" fill="#FDBAB9"/>
<path d="M78.4596 138.017C86.6102 162.378 79.7426 171.572 79.9577 197.289C80.3063 204.412 73.8584 220.838 73.2893 221.201C72.2049 221.29 71.4638 221.227 70.1265 220.853C64.28 213.473 67.3508 200.056 66.3531 186.673C66.298 185.197 62.5631 157.947 62.5631 157.947C61.2349 181.871 52.5259 210.439 42.8955 217.727C42.7747 217.777 41.6646 218.185 40.7567 217.58C40.5226 217.429 40.3349 217.216 40.2148 216.963C39.8986 216.712 40.3084 195.648 43.918 179.796C49.157 156.786 46.8756 151.401 48.5352 141.126C49.9721 132.23 78.4596 138.017 78.4596 138.017Z" fill="#212B36"/>
<path d="M79.8576 141.493C74.6737 145.081 56.9629 146.836 48.5323 141.125C50.7775 135.505 49.3014 128.989 48.1437 125.564C46.0917 118.334 42.4391 104.152 44.8555 100.508C48.3346 95.2171 68.6159 94.2409 73.1711 98.9474C73.2466 99.0176 72.3455 99.5054 72.7938 100.031C81.3903 108.485 82.0582 133.923 79.8576 141.493Z" fill="#FA541C"/>
<path d="M72.7772 223.905C72.7772 223.905 70.0301 223.665 69.8173 224.24C69.6045 224.815 69.5804 226.276 71.2618 225.988C72.9432 225.7 72.99 224.336 72.7772 223.905Z" fill="#FA541C"/>
<path d="M66.2021 92.3022C67.5606 89.8077 66.4678 86.7461 65.7493 85.7157L65.2837 85.2188C64.9539 84.9531 63.7238 84.5967 63.4325 84.5715C62.6023 84.5295 60.9058 87.5484 59.9353 92.2045C59.3781 93.3806 58.8831 94.5857 58.4523 95.8149C48.4151 96.6256 51.55 98.2979 57.5837 99.4566C65.3735 100.334 74.3708 97.5385 62.7102 96.2554L63.0227 94.0173C63.3842 93.9357 65.455 93.5807 66.2021 92.3022Z" fill="#FDBAB9"/>
<path d="M67.2596 84.3562C66.8823 85.7767 65.8174 87.1163 65.4159 87.2697C65.4054 87.2629 64.7994 87.5659 64.6341 87.8414C64.09 88.6544 65.2205 90.0886 64.8431 90.4161C64.5692 90.6542 63.7111 90.0069 63.5345 90.2275C63.3647 90.4351 64.0311 91.1435 63.8364 91.39C63.6854 91.5786 63.25 91.2511 62.8553 91.4954C62.6349 91.648 62.1708 92.6525 61.8523 92.8899C61.1467 93.5937 59.6902 93.5273 59.5128 93.1189C59.497 92.7663 59.6449 92.5846 59.4502 91.9152C58.8004 90.5527 57.0186 89.3039 56.925 87.6705C56.7975 86.4492 57.2035 84.8272 57.9672 83.9303C59.1657 82.5563 60.7279 83.7822 62.5829 82.5999C64.7231 81.2351 64.3865 78.4895 65.3608 78.459C66.4332 78.4284 67.9615 81.7289 67.2596 84.3562Z" fill="#770508"/>
<path d="M64.426 89.9459C64.2079 89.3742 63.4834 89.6612 63.3166 90.2795C63.1038 92.1267 65.3859 92.4282 64.426 89.9459Z" fill="#FDBAB9"/>
<path d="M64.4199 88.8359C64.6841 89.2313 65.2169 91.7365 66.1557 91.0541C66.7194 90.5885 66.8221 90.6297 66.8409 90.661C66.8598 90.7175 66.8568 90.3625 66.8658 90.1038C67.3186 91.5495 67.6265 94.2538 65.1957 94.4126C65.1957 94.4126 64.8818 94.4012 63.6917 93.8424C67.2816 92.6051 64.1807 92.3632 64.4199 88.8359Z" fill="#770508"/>
<g opacity="0.2">
<path d="M49.644 136.32C49.6228 136.32 49.6019 136.315 49.5825 136.307C49.5631 136.298 49.5458 136.285 49.5315 136.27C49.5173 136.254 49.5065 136.235 49.4999 136.215C49.4933 136.194 49.4909 136.173 49.493 136.152C49.9036 132.418 49.1383 129.704 48.4629 127.31C47.26 122.695 46.7702 120.795 45.7506 117.036C45.7008 116.852 45.9913 116.766 46.0389 116.959C47.0517 120.86 47.1007 120.663 48.2908 125.526C49.0433 128.882 50.5602 131.922 49.644 136.32Z" fill="#770508"/>
<path d="M79.8576 141.493C74.6737 145.081 56.9629 146.836 48.5324 141.125C48.8343 140.2 49.0713 139.325 49.2546 138.497C55.6762 143.046 58.3621 138.622 62.5091 137.581C66.8236 136.498 72.3727 138.749 68.9948 128.67C65.6168 118.59 71.2233 119.324 71.2233 119.324L80.4372 120.919C81.4485 130.574 80.6342 138.7 79.8576 141.493Z" fill="#770508"/>
</g>
<path d="M103.617 115.027C104.874 115.917 105.549 117.126 105.899 117.898C94.194 144.255 56.3023 126.096 67.2218 101.555C67.6414 100.921 69.0225 98.8351 71.1658 98.5954C72.5189 98.4428 74.3618 99.0091 77.2726 102.456C83.338 109.639 81.1969 114.124 84.7786 116.225C90.1527 119.376 98.1372 111.149 103.617 115.027Z" fill="#FA541C"/>
<path d="M111.684 113.171C111.684 113.171 111.05 111.94 110.168 112.543C109.285 113.146 108.048 113.561 108.872 113.775C109.696 113.989 111.684 113.171 111.684 113.171Z" fill="#FDBAB9"/>
<path d="M74.2095 45.7443L67.8506 56.8885L56.9968 51.047L58.9039 58.2541L69.7562 64.0918L76.1166 52.9522L74.2095 45.7443Z" fill="#22B8CF"/>
<path d="M147.015 28.5634L138.661 25.1621C115.245 -6.27672 62.847 19.5648 70.7832 57.7688C71.0541 59.1763 70.1191 60.593 68.6943 60.9281C65.3737 61.5922 65.3895 57.6849 65.0929 55.4034C60.0094 8.83511 125.691 -14.2089 147.015 28.5634Z" fill="#22B8CF"/>
<path d="M143.081 56.2129L149.44 45.068L160.294 50.9103L158.387 43.7032L147.535 37.8662L141.174 49.0051L143.081 56.2129Z" fill="#FDAB76"/>
<path d="M144.533 76.2011C126.857 103.222 84.4754 102.74 70.4165 73.67L79.2591 77.5926C103.158 107.905 154.357 81.8786 146.509 44.1845C146.238 42.7777 147.173 41.3641 148.598 41.0259C151.919 40.3596 151.901 44.2707 152.199 46.5507C153.295 56.8766 150.627 67.2804 144.533 76.2011Z" fill="#FDAB76"/>
<path d="M137.645 51.8182C136.687 94.4279 75.5949 87.5796 76.1277 47.62C77.6688 4.35231 137.8 12.154 137.645 51.8182Z" fill="#FFC81A"/>
<path d="M142.14 50.3712C141.182 92.9802 80.0891 86.1326 80.6226 46.1731C82.1614 2.90456 142.295 10.7078 142.14 50.3712Z" fill="#FFE475"/>
<path d="M140.836 50.2803C139.919 90.9559 81.6152 84.3999 82.1269 46.2753C83.5932 4.98907 140.98 12.4152 140.836 50.2803Z" fill="#FFC81A"/>
<path d="M139.9 50.2169C139.013 89.5109 82.7013 83.1633 83.1971 46.3485C84.6121 6.47746 140.038 13.6365 139.9 50.2169Z" fill="#FFE475"/>
<path d="M112.335 24.5271C114.425 24.7439 113.693 27.6635 113.813 29.055C116.707 29.3868 119.558 30.0191 122.324 30.9419C122.675 31.0599 122.977 31.2931 123.182 31.6045C123.387 31.9159 123.483 32.2877 123.456 32.6608L123.108 36.2537C122.629 38.6901 120.211 36.7475 118.791 36.4613C117.172 35.9748 115.503 35.6742 113.817 35.5652V43.7707C118.08 44.9774 121.213 46.6002 123.235 48.6413C130.421 56.9216 124.383 67.4627 113.474 67.5108C113.3 68.8581 114.2 72.1746 111.994 72.1342C109.785 72.0441 110.635 68.8237 110.484 67.4276C107.054 67.3017 103.797 66.872 100.579 65.9293C99.8358 65.7117 99.3257 64.9958 99.3936 64.2264L99.8026 59.6076C99.8917 58.6092 100.883 58.0284 101.821 58.4031C102.906 58.8368 104.015 59.2051 105.142 59.5061C106.882 59.9711 108.66 60.2718 110.455 60.4045L110.481 51.277C106.388 50.2526 103.332 48.7357 101.312 46.7262C99.2895 44.7075 98.2769 42.1263 98.2744 38.9825C98.3272 31.7044 103.754 28.8245 110.85 28.839C111.004 27.5635 110.168 24.3698 112.335 24.5271ZM110.85 35.4805C108.61 35.6423 106.845 36.6956 106.832 38.9977C106.832 39.9743 107.159 40.7902 107.814 41.4456C108.468 42.1011 109.48 42.6234 110.85 43.0127L110.85 35.4805ZM113.474 52.0082V60.3786C114.849 60.3786 115.904 60.0478 116.639 59.3863C118.092 58.165 118.098 55.1652 116.714 53.8142C116.032 53.0809 114.952 52.4789 113.474 52.0082Z" fill="#FFC81A"/>
<g style="mix-blend-mode:multiply" opacity="0.16">
<path d="M107.532 54.0273C110.702 38.6269 125.367 35.4111 106.778 19.2375C68.7366 24.6303 81.0363 81.9343 117.02 77.2393C110.691 70.8703 106.737 61.9748 107.532 54.0273Z" fill="#B7860D"/>
</g>
</svg>
