<svg width="402" height="48" viewBox="0 0 402 48" fill="none" xmlns="http://www.w3.org/2000/svg">
<path d="M35.288 15.664C35.288 13.36 34.968 11.4613 34.328 9.968C33.688 8.432 32.7707 7.30133 31.576 6.576C30.424 5.808 29.0373 5.44533 27.416 5.488H24.344V35.504C24.344 36.656 24.3227 37.7653 24.28 38.832C24.2373 39.8987 24.1733 40.7093 24.088 41.264C24.8133 41.1787 25.7307 41.136 26.84 41.136C27.992 41.0933 28.7813 41.072 29.208 41.072V46H10.52V41.776C11.5013 41.7333 12.312 41.6053 12.952 41.392C13.6347 41.1787 14.1467 40.688 14.488 39.92C14.872 39.152 15.064 37.9147 15.064 36.208V5.552H12.12C9.688 5.59466 7.768 6.42666 6.36 8.048C4.952 9.66933 4.248 12.208 4.248 15.664H0.024L0.344 1.2H39.128L39.512 15.664H35.288ZM42.999 41.84C44.1937 41.84 45.047 41.6053 45.559 41.136C46.071 40.6667 46.391 40.0053 46.519 39.152C46.6897 38.256 46.775 37.2533 46.775 36.144V25.392C46.775 24.624 46.7963 23.7707 46.839 22.832C46.8817 21.8507 46.9457 20.8907 47.031 19.952C46.3483 19.9947 45.5377 20.0373 44.599 20.08C43.703 20.08 43.0203 20.1013 42.551 20.144V15.28H45.111C46.775 15.28 48.2897 15.0667 49.655 14.64C51.063 14.2133 51.9803 13.7867 52.407 13.36H55.543C55.6283 13.7867 55.6923 14.5973 55.735 15.792C55.7777 16.944 55.799 17.968 55.799 18.864C56.951 17.456 58.039 16.3253 59.063 15.472C60.087 14.6187 61.0897 14 62.071 13.616C63.095 13.1893 64.119 12.976 65.143 12.976C66.6363 12.976 67.9377 13.4027 69.047 14.256C70.1563 15.0667 70.711 16.4107 70.711 18.288C70.711 18.928 70.5617 19.6107 70.263 20.336C69.9643 21.0187 69.495 21.5947 68.855 22.064C68.215 22.5333 67.3403 22.768 66.231 22.768C65.3777 22.768 64.503 22.512 63.607 22C62.711 21.488 62.199 20.5067 62.071 19.056C61.2177 19.056 60.3643 19.4187 59.511 20.144C58.6577 20.8267 57.8897 21.6587 57.207 22.64C56.567 23.5787 56.119 24.4533 55.863 25.264V35.696C55.863 36.2933 55.8417 37.1467 55.799 38.256C55.7563 39.3227 55.6923 40.3467 55.607 41.328C56.2897 41.2427 57.0363 41.2 57.847 41.2C58.7003 41.1573 59.3403 41.136 59.767 41.136V46H42.999V41.84ZM86.997 47.024C84.437 47.024 82.3677 46.5333 80.789 45.552C79.253 44.5707 78.1223 43.0347 77.397 40.944C76.7143 38.8533 76.373 36.1653 76.373 32.88V25.52C76.373 24.752 76.3943 23.8773 76.437 22.896C76.4797 21.872 76.5223 20.8907 76.565 19.952C75.8823 19.9947 75.0717 20.0373 74.133 20.08C73.237 20.08 72.5543 20.1013 72.085 20.144V15.28H72.725C75.3703 15.28 77.461 15.0667 78.997 14.64C80.533 14.2133 81.5143 13.7867 81.941 13.36H85.461V32.944C85.461 35.7173 85.8237 37.7867 86.549 39.152C87.2743 40.4747 88.4263 41.136 90.005 41.136C91.1143 41.136 92.2237 40.8373 93.333 40.24C94.485 39.6 95.4237 38.8747 96.149 38.064V25.52C96.149 24.752 96.1703 23.8773 96.213 22.896C96.2557 21.872 96.3197 20.8907 96.405 19.952C95.7223 19.9947 94.9117 20.0373 93.973 20.08C93.077 20.08 92.3943 20.1013 91.925 20.144V15.28H93.461C95.4663 15.28 97.237 15.0667 98.773 14.64C100.309 14.1707 101.29 13.744 101.717 13.36H105.237V35.696C105.237 36.2933 105.216 37.1467 105.173 38.256C105.13 39.3227 105.066 40.3467 104.981 41.328C105.664 41.2427 106.41 41.2 107.221 41.2C108.074 41.1573 108.714 41.136 109.141 41.136V46H96.981C96.9383 45.4453 96.8743 44.8907 96.789 44.336C96.7463 43.7813 96.6823 43.2267 96.597 42.672C95.2743 43.7813 93.845 44.784 92.309 45.68C90.8157 46.576 89.045 47.024 86.997 47.024ZM128.48 47.024C125.365 47.024 122.613 46.3413 120.224 44.976C117.834 43.568 115.978 41.6053 114.656 39.088C113.333 36.528 112.672 33.52 112.672 30.064C112.672 27.0773 113.333 24.2827 114.656 21.68C115.978 19.0773 117.834 16.9867 120.224 15.408C122.656 13.7867 125.472 12.976 128.672 12.976C130.464 12.976 132.213 13.232 133.92 13.744C135.626 14.2133 137.162 15.0453 138.528 16.24C139.936 17.4347 141.045 19.056 141.856 21.104C142.709 23.152 143.114 25.712 143.072 28.784L122.08 29.168C122.08 31.472 122.357 33.5413 122.912 35.376C123.509 37.2107 124.469 38.6613 125.792 39.728C127.114 40.7947 128.885 41.328 131.104 41.328C131.957 41.328 132.917 41.1787 133.984 40.88C135.093 40.5813 136.202 40.0907 137.312 39.408C138.464 38.6827 139.53 37.7227 140.512 36.528L143.392 39.216C141.856 41.392 140.213 43.056 138.464 44.208C136.714 45.3173 134.965 46.064 133.216 46.448C131.509 46.832 129.93 47.024 128.48 47.024ZM122.464 24.688H134.24C134.197 22.896 133.941 21.488 133.472 20.464C133.045 19.3973 132.448 18.6293 131.68 18.16C130.912 17.6907 130.016 17.456 128.992 17.456C127.114 17.456 125.642 18.1387 124.576 19.504C123.509 20.8267 122.805 22.5547 122.464 24.688Z" fill="#0DC5AE"/>
<path d="M181.349 15.536C180.794 11.9947 179.6 9.328 177.765 7.536C175.973 5.744 173.584 4.82667 170.597 4.784C168.378 4.784 166.437 5.296 164.773 6.32C163.109 7.344 161.722 8.70933 160.613 10.416C159.546 12.1227 158.736 14.064 158.181 16.24C157.669 18.416 157.413 20.656 157.413 22.96C157.413 26.6293 157.925 29.8933 158.949 32.752C160.016 35.568 161.552 37.7867 163.557 39.408C165.562 41.0293 167.994 41.84 170.853 41.84C173.541 41.84 176.208 41.1573 178.853 39.792C181.498 38.384 183.717 36.4427 185.509 33.968L188.581 36.784C186.49 39.6427 184.293 41.8187 181.989 43.312C179.685 44.7627 177.424 45.744 175.205 46.256C173.029 46.768 171.066 47.024 169.317 47.024C166.032 47.024 163.045 46.448 160.357 45.296C157.669 44.1013 155.344 42.48 153.381 40.432C151.461 38.3413 149.968 35.9307 148.901 33.2C147.877 30.4267 147.365 27.44 147.365 24.24C147.365 21.3387 147.834 18.4587 148.773 15.6C149.712 12.7413 151.098 10.16 152.933 7.856C154.81 5.50933 157.157 3.65333 159.973 2.288C162.789 0.879999 166.053 0.175999 169.765 0.175999C171.429 0.175999 173.242 0.453332 175.205 1.008C177.21 1.52 179.088 2.288 180.837 3.312L180.581 0.623997H185.509V15.536H181.349ZM207.492 47.024C204.42 47.024 201.646 46.3627 199.172 45.04C196.697 43.7173 194.734 41.84 193.284 39.408C191.876 36.9333 191.172 34.032 191.172 30.704C191.172 27.1627 191.897 24.0693 193.348 21.424C194.841 18.736 196.804 16.6667 199.236 15.216C201.71 13.7227 204.398 12.976 207.3 12.976C210.372 12.976 213.124 13.6373 215.556 14.96C217.988 16.2827 219.908 18.1813 221.316 20.656C222.724 23.088 223.428 26.0107 223.428 29.424C223.428 33.008 222.745 36.1227 221.38 38.768C220.014 41.4133 218.137 43.4613 215.748 44.912C213.358 46.32 210.606 47.024 207.492 47.024ZM207.748 42.48C209.454 42.4373 210.734 41.84 211.588 40.688C212.484 39.536 213.102 38.0853 213.444 36.336C213.785 34.5867 213.956 32.816 213.956 31.024C213.956 29.4453 213.828 27.8453 213.572 26.224C213.358 24.6027 212.996 23.1307 212.484 21.808C211.972 20.4853 211.268 19.4187 210.372 18.608C209.518 17.7973 208.452 17.4133 207.172 17.456C205.508 17.4987 204.185 18.096 203.204 19.248C202.265 20.4 201.582 21.8507 201.156 23.6C200.772 25.3067 200.58 27.0987 200.58 28.976C200.58 31.152 200.814 33.2853 201.284 35.376C201.753 37.4667 202.5 39.1947 203.524 40.56C204.59 41.8827 205.998 42.5227 207.748 42.48ZM228.062 46V41.84C229.256 41.84 230.11 41.6053 230.622 41.136C231.134 40.6667 231.454 40.0053 231.582 39.152C231.752 38.256 231.838 37.2533 231.838 36.144V25.392C231.838 24.624 231.859 23.7707 231.902 22.832C231.944 21.8507 232.008 20.8907 232.094 19.952C231.411 19.9947 230.6 20.0373 229.661 20.08C228.766 20.08 228.083 20.1013 227.614 20.144V15.28C229.576 15.28 231.24 15.1733 232.606 14.96C233.971 14.7467 235.038 14.4907 235.806 14.192C236.616 13.8933 237.171 13.616 237.47 13.36H240.606C240.691 13.9147 240.734 14.32 240.734 14.576C240.734 14.832 240.734 15.088 240.734 15.344C240.776 15.5573 240.862 15.9627 240.99 16.56C241.843 15.8773 242.824 15.28 243.934 14.768C245.043 14.2133 246.152 13.7867 247.262 13.488C248.371 13.1467 249.352 12.976 250.206 12.976C254.131 12.976 256.904 14.1067 258.526 16.368C260.19 18.5867 261.022 22.1707 261.022 27.12V35.696C261.022 36.2933 261 37.1467 260.958 38.256C260.915 39.3227 260.851 40.3467 260.766 41.328C261.491 41.2427 262.259 41.2 263.069 41.2C263.88 41.1573 264.499 41.136 264.926 41.136V46H248.158V41.84C249.352 41.84 250.206 41.6053 250.718 41.136C251.272 40.6667 251.614 40.0053 251.742 39.152C251.912 38.256 251.998 37.2533 251.998 36.144L251.934 27.056C251.934 24.2827 251.528 22.2347 250.718 20.912C249.95 19.5467 248.627 18.864 246.75 18.864C245.683 18.864 244.616 19.0987 243.55 19.568C242.526 20.0373 241.651 20.592 240.926 21.232C240.926 21.8293 240.926 22.448 240.926 23.088C240.926 23.6853 240.926 24.2827 240.926 24.88V35.696C240.926 36.2933 240.904 37.1467 240.862 38.256C240.819 39.3227 240.755 40.3467 240.67 41.328C241.352 41.2427 242.099 41.2 242.91 41.2C243.763 41.1573 244.403 41.136 244.83 41.136V46H228.062ZM268.749 46V41.84C269.944 41.84 270.797 41.6053 271.309 41.136C271.821 40.6667 272.141 40.0053 272.269 39.152C272.44 38.256 272.525 37.2533 272.525 36.144V25.392C272.525 24.624 272.546 23.7707 272.589 22.832C272.632 21.8507 272.696 20.8907 272.781 19.952C272.098 19.9947 271.288 20.0373 270.349 20.08C269.453 20.08 268.77 20.1013 268.301 20.144V15.28C270.264 15.28 271.928 15.1733 273.293 14.96C274.658 14.7467 275.725 14.4907 276.493 14.192C277.304 13.8933 277.858 13.616 278.157 13.36H281.293C281.378 13.9147 281.421 14.32 281.421 14.576C281.421 14.832 281.421 15.088 281.421 15.344C281.464 15.5573 281.549 15.9627 281.677 16.56C282.53 15.8773 283.512 15.28 284.621 14.768C285.73 14.2133 286.84 13.7867 287.949 13.488C289.058 13.1467 290.04 12.976 290.893 12.976C294.818 12.976 297.592 14.1067 299.213 16.368C300.877 18.5867 301.709 22.1707 301.709 27.12V35.696C301.709 36.2933 301.688 37.1467 301.645 38.256C301.602 39.3227 301.538 40.3467 301.453 41.328C302.178 41.2427 302.946 41.2 303.757 41.2C304.568 41.1573 305.186 41.136 305.613 41.136V46H288.845V41.84C290.04 41.84 290.893 41.6053 291.405 41.136C291.96 40.6667 292.301 40.0053 292.429 39.152C292.6 38.256 292.685 37.2533 292.685 36.144L292.621 27.056C292.621 24.2827 292.216 22.2347 291.405 20.912C290.637 19.5467 289.314 18.864 287.437 18.864C286.37 18.864 285.304 19.0987 284.237 19.568C283.213 20.0373 282.338 20.592 281.613 21.232C281.613 21.8293 281.613 22.448 281.613 23.088C281.613 23.6853 281.613 24.2827 281.613 24.88V35.696C281.613 36.2933 281.592 37.1467 281.549 38.256C281.506 39.3227 281.442 40.3467 281.357 41.328C282.04 41.2427 282.786 41.2 283.597 41.2C284.45 41.1573 285.09 41.136 285.517 41.136V46H268.749ZM324.605 47.024C321.49 47.024 318.738 46.3413 316.349 44.976C313.959 43.568 312.103 41.6053 310.781 39.088C309.458 36.528 308.797 33.52 308.797 30.064C308.797 27.0773 309.458 24.2827 310.781 21.68C312.103 19.0773 313.959 16.9867 316.349 15.408C318.781 13.7867 321.597 12.976 324.797 12.976C326.589 12.976 328.338 13.232 330.045 13.744C331.751 14.2133 333.287 15.0453 334.653 16.24C336.061 17.4347 337.17 19.056 337.981 21.104C338.834 23.152 339.239 25.712 339.197 28.784L318.205 29.168C318.205 31.472 318.482 33.5413 319.037 35.376C319.634 37.2107 320.594 38.6613 321.917 39.728C323.239 40.7947 325.01 41.328 327.229 41.328C328.082 41.328 329.042 41.1787 330.109 40.88C331.218 40.5813 332.327 40.0907 333.437 39.408C334.589 38.6827 335.655 37.7227 336.637 36.528L339.517 39.216C337.981 41.392 336.338 43.056 334.589 44.208C332.839 45.3173 331.09 46.064 329.341 46.448C327.634 46.832 326.055 47.024 324.605 47.024ZM318.589 24.688H330.365C330.322 22.896 330.066 21.488 329.597 20.464C329.17 19.3973 328.573 18.6293 327.805 18.16C327.037 17.6907 326.141 17.456 325.117 17.456C323.239 17.456 321.767 18.1387 320.701 19.504C319.634 20.8267 318.93 22.5547 318.589 24.688ZM358.978 47.024C356.119 47.024 353.495 46.384 351.106 45.104C348.717 43.824 346.797 41.968 345.346 39.536C343.938 37.104 343.234 34.16 343.234 30.704C343.234 28.272 343.639 25.9893 344.45 23.856C345.261 21.7227 346.391 19.8453 347.842 18.224C349.335 16.6027 351.085 15.3227 353.09 14.384C355.138 13.4453 357.399 12.976 359.874 12.976C362.605 12.976 364.866 13.4027 366.658 14.256C368.493 15.0667 369.858 16.1547 370.754 17.52C371.693 18.8427 372.162 20.2507 372.162 21.744C372.162 22.9813 371.778 24.0907 371.01 25.072C370.285 26.0107 369.239 26.5013 367.874 26.544C366.253 26.5867 365.122 26.1387 364.482 25.2C363.842 24.2187 363.522 23.28 363.522 22.384C363.522 22 363.586 21.552 363.714 21.04C363.842 20.4853 364.034 19.9947 364.29 19.568C363.991 18.928 363.543 18.4587 362.946 18.16C362.349 17.8613 361.73 17.6693 361.09 17.584C360.493 17.456 360.002 17.4133 359.618 17.456C357.57 17.584 355.885 18.608 354.562 20.528C353.239 22.448 352.578 25.2213 352.578 28.848C352.578 30.9813 352.834 32.9867 353.346 34.864C353.901 36.6987 354.797 38.2133 356.034 39.408C357.271 40.6027 358.935 41.2427 361.026 41.328C362.818 41.3707 364.567 40.944 366.274 40.048C367.981 39.152 369.431 37.936 370.626 36.4L373.57 39.28C372.034 41.4133 370.434 43.0347 368.77 44.144C367.106 45.2533 365.442 46 363.778 46.384C362.157 46.8107 360.557 47.024 358.978 47.024ZM389.671 47.024C388.391 47.024 387.154 46.8747 385.959 46.576C384.807 46.2773 383.74 45.7227 382.759 44.912C381.82 44.0587 381.074 42.8213 380.519 41.2C379.964 39.5787 379.687 37.424 379.687 34.736L379.815 19.312H375.463V14C376.786 13.9573 378.066 13.5093 379.303 12.656C380.54 11.8027 381.586 10.6933 382.439 9.328C383.335 7.96267 383.932 6.53333 384.231 5.04H388.967L388.903 14H397.031V18.928L388.903 19.12L388.839 34.864C388.839 35.8453 388.924 36.8267 389.095 37.808C389.308 38.7467 389.692 39.536 390.247 40.176C390.802 40.7733 391.612 41.072 392.679 41.072C393.276 41.072 394.087 40.8587 395.111 40.432C396.178 40.0053 397.308 38.9387 398.503 37.232L401.575 40.112C400.423 41.8187 399.228 43.1413 397.991 44.08C396.754 45.0187 395.559 45.7013 394.407 46.128C393.298 46.5547 392.316 46.8107 391.463 46.896C390.61 46.9813 390.012 47.024 389.671 47.024Z" fill="#FF0054"/>
</svg>
