<svg width="358" height="269" viewBox="0 0 358 269" fill="none" xmlns="http://www.w3.org/2000/svg">
<g clip-path="url(#clip0_328_3302)">
<rect x="241.959" y="56.8643" width="32.0966" height="205.206" rx="12" fill="#FEE9D1"/>
<rect x="195.048" y="85.2964" width="32.0966" height="176.774" rx="12" fill="#FEE9D1"/>
<rect x="148.138" y="122.778" width="32.0966" height="139.436" rx="12" fill="#FEE9D1"/>
<path fill-rule="evenodd" clip-rule="evenodd" d="M239.005 260.914C239.005 260.914 239.086 260.598 239.272 260.018C239.483 260.013 239.822 259.998 240.275 259.963C239.85 260.265 239.426 260.582 239.005 260.914Z" fill="#B3200E"/>
<path fill-rule="evenodd" clip-rule="evenodd" d="M236.012 261.898H214.531C208.518 261.898 203.066 258.368 200.597 252.877L158.93 160.191L182.646 144.194L238.163 253.12C238.665 254.102 239.409 254.911 240.299 255.49C239.859 256.982 239.427 258.496 239.006 260.018C239.006 260.018 239.02 260.02 239.052 260.02C239.094 260.02 239.167 260.018 239.272 260.017C239.087 260.597 239.006 260.912 239.006 260.912C239.427 260.58 239.85 260.263 240.275 259.961C240.564 259.937 240.899 259.906 241.28 259.862C240.108 260.925 238.632 261.618 237.044 261.83C236.704 261.874 236.36 261.898 236.012 261.898Z" fill="#B3200E"/>
<path fill-rule="evenodd" clip-rule="evenodd" d="M239.051 260.021C239.02 260.021 239.005 260.019 239.005 260.019C239.426 258.497 239.859 256.983 240.298 255.49C240.488 255.612 240.685 255.724 240.887 255.826C240.059 257.698 239.548 259.151 239.272 260.017C239.167 260.019 239.093 260.021 239.051 260.021ZM240.275 259.962C240.983 259.459 241.697 258.997 242.42 258.573C242.085 259.046 241.702 259.479 241.279 259.863C240.898 259.907 240.563 259.938 240.275 259.962Z" fill="#B3200E"/>
<path fill-rule="evenodd" clip-rule="evenodd" d="M239.272 260.017C239.548 259.151 240.059 257.698 240.887 255.826C241.724 256.246 242.661 256.476 243.633 256.476L242.965 257.683L242.869 257.854C242.731 258.103 242.582 258.342 242.42 258.573C241.697 258.997 240.983 259.459 240.275 259.962C239.822 259.997 239.483 260.012 239.272 260.017Z" fill="#B3200E"/>
<rect x="101.228" y="108.784" width="32.0965" height="153.286" rx="12" fill="#FEE9D1"/>
<rect x="54.3174" y="145.251" width="32.0966" height="116.819" rx="12" fill="#FEE9D1"/>
<path fill-rule="evenodd" clip-rule="evenodd" d="M188.256 155.197C184.077 151.893 177.972 152.864 175.023 157.302L113.759 249.471C108.853 256.854 100.584 261.289 91.7286 261.289H83.1083L76.0928 241.051C76.0928 241.051 133.046 153.604 147.725 140.376C147.725 140.376 162.344 127.182 176.758 137.157C180.566 139.793 183.457 143.554 185.223 147.838L188.256 155.197Z" fill="#FA541C"/>
<path fill-rule="evenodd" clip-rule="evenodd" d="M9.46094 186.624C9.46094 186.624 19.7158 173.789 39.5879 171.792C39.5879 171.792 49.026 175.013 67.8291 208.752C86.6323 242.491 99.1133 257.876 113.759 249.472L112.547 251.488C108.551 258.132 101.371 262.195 93.6261 262.195H85.526C76.6076 262.195 68.2355 257.902 63.0276 250.652C48.3931 230.279 18.4507 189.788 9.46094 186.624Z" fill="#FA541C"/>
<path d="M240.12 257.069C240.622 258.051 242.611 256.222 243.502 256.801C244.392 257.379 284.858 175.265 284.858 175.265L293.585 156.341C281.715 155.588 272.321 145.709 272.321 133.632C272.321 121.065 282.494 110.877 295.044 110.877C307.404 110.877 317.462 120.76 317.761 133.065C319.548 131.797 320.772 129.757 320.911 127.383L325.335 52.3086C325.5 49.4757 323.217 47.593 320.86 47.593C319.642 47.593 318.404 48.0956 317.474 49.2291L254.571 126.002C253.156 127.728 254.383 130.324 256.613 130.324H268.705L264.711 137.988C268.447 140.287 270.941 144.419 270.941 149.133C270.941 156.352 265.097 162.205 257.886 162.205C256.026 162.205 254.258 161.815 252.655 161.113L221.59 220.712L240.12 257.069Z" fill="#FA541C"/>
<path fill-rule="evenodd" clip-rule="evenodd" d="M39.7232 259.036C39.7232 259.036 39.4843 260.362 39.39 261.939C39.3499 262.612 39.847 263.196 40.516 263.26C42.8455 263.487 48.148 263.903 51.5339 263.415C52.008 263.347 52.1965 262.763 51.846 262.437C50.4498 261.134 47.0783 258.601 41.5289 258.046L39.7232 259.036Z" fill="#063963"/>
<path fill-rule="evenodd" clip-rule="evenodd" d="M38.5664 256.042L39.7442 258.933C39.9055 259.329 40.307 259.574 40.7318 259.53C41.0203 259.5 41.3618 259.445 41.6939 259.343C42.3587 259.141 42.7335 258.435 42.5346 257.77L41.6457 254.792L38.5664 256.042Z" fill="#FDBAB9"/>
<path fill-rule="evenodd" clip-rule="evenodd" d="M18.4305 261.337C18.4305 261.337 20.789 263.314 21.708 265.847C21.9606 266.546 21.4265 267.279 20.6859 267.279H15.8324C15.122 267.279 14.5775 266.64 14.7012 265.939C15.0105 264.189 15.9019 261.344 18.4305 261.337Z" fill="#063963"/>
<path fill-rule="evenodd" clip-rule="evenodd" d="M15.5068 258.765C15.5068 258.765 15.9832 260.877 16.3495 262.273C16.4159 262.526 16.6859 262.666 16.932 262.577C17.6665 262.314 18.2642 262.198 18.6987 262.257C18.8995 262.282 19.075 262.115 19.0776 261.912L19.1232 258.406L15.5068 258.765Z" fill="#FDBAB9"/>
<path fill-rule="evenodd" clip-rule="evenodd" d="M28.0515 211.254L42.3969 255.079C42.3969 255.079 39.6455 256.882 38.3345 256.807L21.2954 221.588C21.2954 221.588 18.3136 243.289 19.7585 258.869L14.8779 259.243C14.8779 259.243 6.94225 219.427 12.953 205.791L28.0515 211.254Z" fill="#212B36"/>
<path fill-rule="evenodd" clip-rule="evenodd" d="M30.7413 172.69C30.7413 172.69 19.1188 173.724 20.7629 182.015C20.7629 182.015 14.3382 194.123 11.3343 208.384C11.2368 208.848 11.5472 209.302 12.014 209.381L31.3696 212.701C31.9034 212.791 32.4184 212.458 32.5542 211.933L37.1787 194.035L38.9809 202.357L44.7069 200.863L39.8865 176.41C39.8865 176.41 39.214 172.843 30.7413 172.69Z" fill="#116E95"/>
<path fill-rule="evenodd" clip-rule="evenodd" d="M36.1088 215.31C35.499 214.975 34.7853 214.881 34.11 215.05L32.7634 215.386C32.4771 215.458 32.1936 215.261 32.1606 214.966L30.767 202.546C29.0244 203.373 26.5105 203.275 25.6816 203.214L28.889 217.857H40.1132L36.1088 215.31Z" fill="#FDBAB9"/>
<path fill-rule="evenodd" clip-rule="evenodd" d="M65.9309 188.368L65.5916 187.238C65.3964 186.59 64.9168 186.063 64.2881 185.81L58.1522 183.34C58.1522 183.34 58.0597 182.551 59.4487 182.015C60.8376 181.481 60.5131 179.922 60.5131 179.922C60.5131 179.922 58.6152 180.79 55.8372 182.164C54.2483 182.951 53.3568 184.338 52.8841 185.383L38.9805 202.356L40.6129 203.48C42.7593 204.957 45.7117 204.231 46.9316 201.926L54.4635 187.463C58.2451 188.602 62.0717 188.819 65.9309 188.368Z" fill="#FDBAB9"/>
<path fill-rule="evenodd" clip-rule="evenodd" d="M34.5055 164.772L30.9307 174.791C30.9307 174.791 34.0963 177.269 36.4063 176.431L38.2076 170.688C38.2076 170.688 36.8317 163.669 34.5055 164.772Z" fill="#FDBAB9"/>
<path fill-rule="evenodd" clip-rule="evenodd" d="M45.1756 161.174C45.1756 161.328 41.732 170.935 41.732 170.935L36.2959 168.851L38.2087 159.259C38.2087 159.259 45.1756 158.589 45.1756 161.174Z" fill="#FDBAB9"/>
<path fill-rule="evenodd" clip-rule="evenodd" d="M39.1624 161.596L37.7606 166.566C37.7426 166.63 37.7335 166.694 37.7334 166.76C37.7328 167.166 37.8331 168.56 39.2519 168.371C40.5393 168.199 41.7167 168.061 42.4655 168.413C42.8017 168.572 42.9625 168.96 42.8368 169.31C42.5238 170.184 41.782 172.137 40.8787 173.736C40.6955 174.06 40.2936 174.186 39.9547 174.033C38.9337 173.566 36.8079 172.525 35.2936 171.285C35.0885 171.118 34.9896 170.854 35.0386 170.593C35.2769 169.321 35.9865 165.455 36.0178 164.347C36.0472 163.307 34.8818 162.513 34.3685 162.215C34.2003 162.117 34.0807 161.956 34.0351 161.766C33.8741 161.097 33.7374 159.582 35.6675 159.248C36.0713 159.178 36.3346 158.791 36.2526 158.388C36.0894 157.588 36.1416 156.409 37.66 155.976C39.2033 155.534 40.1744 156.465 40.6683 157.178C40.8681 157.466 41.2418 157.56 41.5617 157.417C41.7439 157.335 41.9639 157.332 42.2004 157.531C42.5192 157.8 43.0044 157.719 43.2385 157.373C43.6885 156.71 44.5062 156.048 45.8902 156.496C48.3463 157.292 48.2288 160.128 47.3285 161.669C46.4282 163.211 43.8144 162.196 42.5772 161.175C41.6362 160.398 40.2039 160.863 39.5713 161.13C39.3707 161.215 39.2215 161.387 39.1624 161.596Z" fill="#063963"/>
<path fill-rule="evenodd" clip-rule="evenodd" d="M35.5249 166.16C35.5249 166.16 36.9785 163.407 36.0173 162.542C35.0561 161.678 33.4278 161.819 33.4716 163.972C33.526 166.65 35.5249 166.16 35.5249 166.16Z" fill="#FDBAB9"/>
<path fill-rule="evenodd" clip-rule="evenodd" d="M32.2854 268.972C32.1755 268.972 32.0639 268.948 31.9564 268.896C31.5336 268.697 31.3384 268.163 31.5201 267.701L48.9997 223.288C49.1815 222.826 49.6715 222.614 50.0947 222.811C50.5175 223.01 50.7127 223.546 50.5309 224.008L33.0515 268.421C32.9157 268.766 32.6083 268.972 32.2854 268.972Z" fill="#22B8CF"/>
<path fill-rule="evenodd" clip-rule="evenodd" d="M51.9776 268.972C51.6545 268.972 51.3471 268.766 51.2115 268.421L33.7319 224.008C33.5501 223.546 33.7453 223.01 34.1683 222.811C34.5908 222.612 35.0811 222.825 35.2633 223.288L52.7427 267.701C52.9246 268.163 52.7292 268.697 52.3064 268.896C52.1991 268.948 52.0875 268.972 51.9776 268.972Z" fill="#22B8CF"/>
<path fill-rule="evenodd" clip-rule="evenodd" d="M106.688 268.972C106.578 268.972 106.466 268.948 106.359 268.896C105.936 268.697 105.741 268.163 105.922 267.701L123.401 223.288C123.584 222.826 124.073 222.614 124.496 222.811C124.919 223.01 125.114 223.546 124.934 224.008L107.454 268.421C107.318 268.766 107.011 268.972 106.688 268.972Z" fill="#22B8CF"/>
<path fill-rule="evenodd" clip-rule="evenodd" d="M126.379 268.972C126.057 268.972 125.75 268.766 125.614 268.421L108.134 224.008C107.953 223.546 108.148 223.01 108.571 222.811C108.993 222.612 109.484 222.825 109.666 223.288L127.145 267.701C127.327 268.163 127.132 268.697 126.709 268.896C126.602 268.948 126.49 268.972 126.379 268.972Z" fill="#22B8CF"/>
<path fill-rule="evenodd" clip-rule="evenodd" d="M94.9658 261.423H97.0324V239.043H94.9658V261.423Z" fill="#22B8CF"/>
<path fill-rule="evenodd" clip-rule="evenodd" d="M105.05 261.855H86.9492V261.758C86.9492 261.067 87.508 260.509 88.1974 260.509H103.705C104.448 260.509 105.05 261.111 105.05 261.855Z" fill="#22B8CF"/>
<path fill-rule="evenodd" clip-rule="evenodd" d="M107.736 238.268C107.736 239.491 106.736 240.494 105.514 240.494H87.2C85.9777 240.494 84.9775 239.491 84.9775 238.268V236.256C84.9775 235.031 85.9777 234.03 87.2 234.03H105.514C106.736 234.03 107.736 235.031 107.736 236.256V238.268Z" fill="#77F0ED"/>
<path fill-rule="evenodd" clip-rule="evenodd" d="M87.201 234.031C87.1616 233.962 79.2024 233.072 79.2024 233.072C79.2024 233.072 79.463 235.495 78.6488 238.83C77.8348 242.167 66.149 256.619 66.149 256.619L67.3744 260.51C63.5858 261.831 59.8594 262.041 56.1924 261.183L63.786 256.619C63.786 256.619 70.8926 232.369 75.2457 228.043L83.2238 225.279L87.201 234.031Z" fill="#FDBAB9"/>
<path fill-rule="evenodd" clip-rule="evenodd" d="M79.6623 225.889C79.6623 225.889 76.7408 226.342 73.4553 228.542C72.9382 228.887 72.6538 229.491 72.7314 230.11C73.1256 233.229 74.7437 243.327 80.0781 253.189C80.3582 253.709 80.4401 254.315 80.3151 254.893L79.3887 259.211L77.6694 260.824H82.0969L85.0442 252.84L83.7838 252.441C82.8057 252.13 82.1356 251.231 82.1184 250.204L81.9698 241.64C82.0969 237.822 79.6322 235.189 79.6322 235.189L86.7031 234.846L79.6623 225.889Z" fill="#FDBAB9"/>
<path fill-rule="evenodd" clip-rule="evenodd" d="M75.9411 261.606C75.5382 262.134 80.2802 262.831 82.676 261.677C82.676 261.677 85.9982 255.89 85.9982 252.912C85.9982 252.912 85.7332 252.306 83.7834 252.444C83.7834 252.444 82.6674 259.291 81.491 260.059C80.3125 260.827 78.1969 260.137 78.1969 260.137C78.1969 260.137 76.5358 260.827 75.9411 261.606Z" fill="#063963"/>
<path fill-rule="evenodd" clip-rule="evenodd" d="M105.051 219.919C105.051 219.919 109.637 226.749 110.013 229.865C110.389 232.98 108.757 234.246 103.945 234.454C99.1336 234.662 86.2889 234.661 86.2889 234.661L75.3262 225.279C75.3262 225.279 83.3154 222.423 85.3925 221.616C87.4697 220.809 105.051 219.919 105.051 219.919Z" fill="#212B36"/>
<path fill-rule="evenodd" clip-rule="evenodd" d="M66.9109 259.198C66.9109 259.198 68.23 260.478 67.3391 261.903C67.3391 261.903 56.889 263.756 54.0518 262.914C54.0518 262.914 54.6409 261.569 57.8358 260.036L57.6001 260.217C57.3017 260.447 57.4766 260.924 57.8522 260.902C59.9574 260.782 64.3142 260.395 66.9109 259.198Z" fill="#063963"/>
<path fill-rule="evenodd" clip-rule="evenodd" d="M95.7843 181.549C96.4774 181.767 98.9751 182.664 98.6526 184.272C98.6097 184.486 98.8106 184.667 99.0204 184.61C100.097 184.32 102.474 183.954 103.948 185.803C105.249 187.436 104.277 188.976 103.484 189.822C103.292 190.026 103.453 190.358 103.731 190.323C105.709 190.072 110.009 190.013 110.712 194.047C111.368 197.807 108.754 198.866 107.203 199.167C106.941 199.217 106.88 199.563 107.105 199.705C107.879 200.197 108.775 201.212 108.413 203.217C107.845 206.356 101.697 206.1 100.978 206.058C100.932 206.056 100.889 206.043 100.85 206.019L91.001 200.396C90.9241 200.351 90.8709 200.276 90.8558 200.188L88.8676 188.689C88.8516 188.597 88.8805 188.501 88.946 188.433L95.4848 181.628C95.5624 181.547 95.6774 181.516 95.7843 181.549Z" fill="#063963"/>
<path fill-rule="evenodd" clip-rule="evenodd" d="M92.8028 218.838C92.8028 218.838 87.4627 213.747 84.8342 210.374C83.4132 208.551 82.967 206.151 83.6242 203.934C84.8241 199.884 86.9569 195.693 87.1514 195.039C87.4496 194.038 93.4372 194.081 93.4372 194.081C93.4372 194.081 105.219 201.738 109.849 214.709L104.65 216.33C104.65 216.33 101.573 211.162 98.5336 207.875C98.5336 207.875 103.793 214.832 103.979 217.681L92.8028 218.838Z" fill="#22B8CF"/>
<path fill-rule="evenodd" clip-rule="evenodd" d="M86.2734 189.624C86.336 189.832 87.8987 195.021 88.0208 195.128C88.1432 195.235 91.4481 195.413 93.0037 194.348L90.3645 188.815L86.2734 189.624Z" fill="#FDBAB9"/>
<path fill-rule="evenodd" clip-rule="evenodd" d="M88.842 178.729C88.842 178.729 86.0208 179.921 84.1025 184.003C82.184 188.086 83.6166 189.971 85.4161 190.229C87.2155 190.489 89.9064 190.448 92.7528 187.812C95.5994 185.175 92.5096 177.314 88.842 178.729Z" fill="#FDBAB9"/>
<path fill-rule="evenodd" clip-rule="evenodd" d="M90.8388 185.632C90.8388 185.632 92.9674 179.658 87.6793 179.588L86.4349 180.46C86.4349 180.46 84.4947 177.147 87.6793 175.566C90.8638 173.985 94.5912 175.292 95.9463 179.588C97.3014 183.885 97.5328 186.761 95.2782 188.815C93.0235 190.872 92.0944 188.541 92.0944 188.541C92.0944 188.541 93.3222 186.619 92.8224 185.589C92.3225 184.561 91.1696 185.803 91.1696 185.803L90.8388 185.632Z" fill="#063963"/>
<path fill-rule="evenodd" clip-rule="evenodd" d="M91.4316 186.297C91.4316 186.297 92.5078 183.22 93.9434 184.445C95.3791 185.671 92.7767 187.288 91.7579 187.812L91.4316 186.297Z" fill="#FDBAB9"/>
<path fill-rule="evenodd" clip-rule="evenodd" d="M81.7705 219.392L85.694 215.606L91.1214 217.901C91.1214 217.901 96.5239 218.74 99.6161 217.901C102.708 217.063 102.708 217.063 102.708 217.063L109.695 214.885L110.793 217.992C111.071 218.78 110.791 219.655 110.111 220.14C109.506 220.569 108.797 221.043 108.346 221.24C107.426 221.643 85.6627 220.962 85.6627 220.962L81.7705 219.392Z" fill="#FDBAB9"/>
<path fill-rule="evenodd" clip-rule="evenodd" d="M96.6172 221.177C96.5997 221.179 96.5822 221.179 96.5648 221.179L73.8058 221.153C73.2432 221.153 72.7876 220.696 72.7883 220.132C72.7887 219.568 73.247 219.104 73.808 219.113L96.567 219.139C97.1296 219.139 97.5852 219.596 97.5846 220.16C97.5841 220.705 97.1554 221.151 96.6172 221.177Z" fill="#770508"/>
<path fill-rule="evenodd" clip-rule="evenodd" d="M53.3461 200.485H72.2999C73.6982 200.485 74.9707 201.292 75.5672 202.559L84.3294 221.165H60.7751C59.874 221.165 59.0645 220.612 58.7333 219.773L51.9384 202.557C51.5459 201.562 52.2781 200.485 53.3461 200.485Z" fill="#770508"/>
<path fill-rule="evenodd" clip-rule="evenodd" d="M66.7009 210.025C67.1115 211.304 66.8081 212.544 66.023 212.798C65.2381 213.05 64.2687 212.219 63.858 210.943C63.4471 209.664 63.7507 208.422 64.5356 208.17C65.3207 207.917 66.2902 208.748 66.7009 210.025Z" fill="#FDAB76"/>
<path fill-rule="evenodd" clip-rule="evenodd" d="M50.9719 220.449H28.5732V218.135H50.9719C50.4924 218.135 50.4924 220.449 50.9719 220.449Z" fill="#FDAB76"/>
<path fill-rule="evenodd" clip-rule="evenodd" d="M28.7561 220.449C28.6549 220.449 28.5721 220.366 28.5721 220.265V218.319C28.5721 218.218 28.6549 218.135 28.7561 218.135H51.4698C51.571 218.135 51.6538 218.052 51.6538 217.951V217.796C51.6538 217.694 51.571 217.612 51.4698 217.612H27.2897C26.7554 217.612 26.3223 218.045 26.3223 218.581V220.06C26.3223 220.563 26.7305 220.972 27.2343 220.972H51.4698C51.571 220.972 51.6538 220.889 51.6538 220.788V220.633C51.6538 220.532 51.571 220.449 51.4698 220.449H28.7561Z" fill="#770508"/>
<path fill-rule="evenodd" clip-rule="evenodd" d="M128.426 222.01C128.484 221.752 128.405 221.485 128.212 221.282C128.021 221.079 127.734 220.961 127.43 220.961H24.9245C24.5265 220.961 24.1559 221.136 23.9416 221.429C23.7272 221.721 23.6985 222.087 23.8654 222.4L24.9763 224.492C25.2306 224.971 25.7817 225.276 26.3881 225.276H126.727C127.292 225.276 127.776 224.93 127.885 224.447L128.426 222.01Z" fill="#77F0ED"/>
<path fill-rule="evenodd" clip-rule="evenodd" d="M155.054 98.7295C155.054 101.269 152.999 103.327 150.463 103.327C147.928 103.327 145.871 101.269 145.871 98.7295C145.871 96.1906 147.928 94.1322 150.463 94.1322C152.999 94.1322 155.054 96.1906 155.054 98.7295Z" fill="#22B8CF"/>
<path fill-rule="evenodd" clip-rule="evenodd" d="M68.5652 105.853L67.9581 104.74L110.644 81.3851L150.326 98.852L184.398 65.3836L184.466 65.3446L224.473 41.7011L225.116 42.7932L185.174 66.3972L150.6 100.357L110.704 82.7966L68.5652 105.853Z" fill="#22B8CF"/>
<path fill-rule="evenodd" clip-rule="evenodd" d="M72.8539 105.297C72.8539 107.836 70.7985 109.894 68.2629 109.894C65.7273 109.894 63.6719 107.836 63.6719 105.297C63.6719 102.758 65.7273 100.7 68.2629 100.7C70.7985 100.7 72.8539 102.758 72.8539 105.297Z" fill="#22B8CF"/>
<path fill-rule="evenodd" clip-rule="evenodd" d="M115.266 82.0899C115.266 84.629 113.21 86.6874 110.675 86.6874C108.139 86.6874 106.084 84.629 106.084 82.0899C106.084 79.551 108.139 77.4927 110.675 77.4927C113.21 77.4927 115.266 79.551 115.266 82.0899Z" fill="#22B8CF"/>
<path fill-rule="evenodd" clip-rule="evenodd" d="M188.285 65.8914C188.285 68.4305 186.228 70.4887 183.693 70.4887C181.157 70.4887 179.102 68.4305 179.102 65.8914C179.102 63.3523 181.157 61.2941 183.693 61.2941C186.228 61.2941 188.285 63.3523 188.285 65.8914Z" fill="#22B8CF"/>
<path fill-rule="evenodd" clip-rule="evenodd" d="M229.386 42.2472C229.386 44.7863 227.331 46.8446 224.794 46.8446C222.258 46.8446 220.203 44.7863 220.203 42.2472C220.203 39.7081 222.258 37.6499 224.794 37.6499C227.331 37.6499 229.386 39.7081 229.386 42.2472Z" fill="#22B8CF"/>
<path fill-rule="evenodd" clip-rule="evenodd" d="M185.408 238.946C184.804 239.84 182.407 260.077 182.031 267.552C182.007 268.059 182.41 268.479 182.916 268.479C183.352 268.479 183.722 268.162 183.79 267.731L188.175 239.589L185.408 238.946Z" fill="#22B8CF"/>
<path fill-rule="evenodd" clip-rule="evenodd" d="M204.684 238.946C205.288 239.84 207.685 260.077 208.061 267.552C208.087 268.059 207.682 268.479 207.178 268.479C206.742 268.479 206.37 268.162 206.304 267.731L201.917 239.589L204.684 238.946Z" fill="#22B8CF"/>
<path fill-rule="evenodd" clip-rule="evenodd" d="M181.782 237.364L181.78 237.585C181.766 239.173 183.131 240.476 184.842 240.504L205.113 240.85C206.798 240.878 208.204 239.658 208.285 238.096L208.296 237.893C208.38 236.262 206.999 234.89 205.242 234.858L184.962 234.493C183.227 234.462 181.797 235.754 181.782 237.364Z" fill="#77F0ED"/>
<path fill-rule="evenodd" clip-rule="evenodd" d="M221.215 266.816C217.613 266.816 216.018 266.506 215.306 266.224C215.444 266.817 215.972 267.285 216.638 267.285H229.385C229.814 267.285 230.086 266.873 229.983 266.5C228.529 266.618 225.444 266.816 221.215 266.816Z" fill="#063963"/>
<path fill-rule="evenodd" clip-rule="evenodd" d="M229.982 266.5C229.962 266.425 229.93 266.351 229.877 266.283C228.906 265.041 226.955 263.092 224.302 263.13C220.414 263.184 219.06 263.606 216.039 263.153L215.327 265.518C215.253 265.76 215.253 266.001 215.305 266.224C216.017 266.506 217.612 266.815 221.215 266.815C225.443 266.815 228.528 266.618 229.982 266.5Z" fill="#063963"/>
<path fill-rule="evenodd" clip-rule="evenodd" d="M216.913 260.605L216.039 263.585C216.039 263.585 217.976 264.467 219.682 263.758L220.017 261.178L216.913 260.605Z" fill="#FDBAB9"/>
<path fill-rule="evenodd" clip-rule="evenodd" d="M243.334 264.94C240.525 267.201 239.09 267.96 238.359 268.189C238.836 268.561 239.537 268.594 240.057 268.176L249.993 260.181C250.328 259.91 250.284 259.422 249.971 259.197C248.911 260.2 246.63 262.289 243.334 264.94Z" fill="#063963"/>
<path fill-rule="evenodd" clip-rule="evenodd" d="M249.972 259.198C249.909 259.152 249.839 259.115 249.757 259.095C248.226 258.741 245.492 258.452 243.447 260.145C240.45 262.625 239.657 263.803 237.021 265.346L237.937 267.627C238.031 267.861 238.18 268.049 238.36 268.189C239.09 267.961 240.526 267.202 243.335 264.941C246.63 262.29 248.912 260.201 249.972 259.198Z" fill="#063963"/>
<path fill-rule="evenodd" clip-rule="evenodd" d="M198.202 226.665C198.202 226.665 219.776 228.43 224.201 230.515C228.626 232.601 220.589 261.841 220.589 261.841C220.589 261.841 219.384 262.421 216.703 261.587C216.703 261.587 219.452 240.01 217.406 235.33L194.048 231.505L198.202 226.665Z" fill="#212B36"/>
<path fill-rule="evenodd" clip-rule="evenodd" d="M234.877 261.239C235.078 261.422 237.02 265.346 237.02 265.346C237.02 265.346 239.184 264.878 239.624 263.505L237.677 259.964L234.877 261.239Z" fill="#FDBAB9"/>
<path fill-rule="evenodd" clip-rule="evenodd" d="M185.209 226.484C185.209 226.484 184.506 228.179 184.534 230.429C184.574 233.543 187.073 236.069 190.179 236.224L215.682 237.388C216.22 237.414 216.676 237.786 216.81 238.309C217.41 240.631 220.339 247.759 234.659 261.983C235.04 262.361 235.633 262.425 236.087 262.138L238.126 260.85C238.339 260.714 238.407 260.434 238.28 260.214L223.43 234.823C222.65 233.534 221.397 232.603 219.938 232.229L198.203 226.665L185.209 226.484Z" fill="#212B36"/>
<path fill-rule="evenodd" clip-rule="evenodd" d="M214.797 187.388C214.797 187.388 207.612 191.655 204.826 193.998L210.583 197.215C210.583 197.215 213.695 193.617 216.659 192.117L214.797 187.388Z" fill="#FDBAB9"/>
<path fill-rule="evenodd" clip-rule="evenodd" d="M184.746 226.664C184.746 226.664 191.631 228.344 198.203 226.664C198.203 226.664 207.398 214.286 210.956 210.916C210.956 210.916 216.63 219.884 229.261 221.155L229.966 219.578C229.966 219.578 219.911 214.937 216.814 207.804C213.72 200.672 212.476 197.63 209.659 195.769C207.905 194.61 206.855 193.818 206.312 193.387C206.016 193.149 205.605 193.124 205.282 193.321C202.292 195.145 188.229 204.79 184.746 226.664Z" fill="#116E95"/>
<g opacity="0.12">
<path fill-rule="evenodd" clip-rule="evenodd" d="M21.3858 221.207H21.3683C21.2921 221.196 21.238 221.126 21.2478 221.05L21.8045 216.626C21.8139 216.549 21.8827 216.496 21.9596 216.505C22.0358 216.514 22.0897 216.584 22.0802 216.661L21.5234 221.085C21.5146 221.155 21.4548 221.207 21.3858 221.207Z" fill="black"/>
<path fill-rule="evenodd" clip-rule="evenodd" d="M37.2759 193.235L37.245 193.231C37.1673 193.215 37.118 193.137 37.1348 193.06L38.7482 185.64C38.7653 185.563 38.8409 185.513 38.9199 185.53C38.9973 185.548 39.0468 185.624 39.0299 185.703L37.4165 193.121C37.4017 193.189 37.3421 193.235 37.2759 193.235Z" fill="black"/>
<path fill-rule="evenodd" clip-rule="evenodd" d="M26.808 203.401C26.0148 203.401 25.4484 203.34 25.3873 203.332L25.2841 203.321L21.0521 183.563C21.0353 183.485 21.0848 183.408 21.1627 183.391C21.2412 183.375 21.317 183.425 21.3338 183.502L25.522 203.056C26.1518 203.111 29.5151 203.334 31.2906 202.076L27.6245 184.91L28.3897 183.465C28.4269 183.395 28.5141 183.367 28.5846 183.404C28.6549 183.443 28.6817 183.53 28.6444 183.6L27.9281 184.952L31.6111 202.197L31.5375 202.253C30.2547 203.218 28.1881 203.401 26.808 203.401Z" fill="black"/>
<path fill-rule="evenodd" clip-rule="evenodd" d="M210.581 210.451C210.612 210.451 210.645 210.44 210.671 210.419C210.737 210.37 210.75 210.276 210.699 210.209C208.559 207.414 207.33 204.238 207.319 204.206C207.287 204.129 207.201 204.09 207.124 204.12C207.046 204.149 207.008 204.236 207.039 204.313C207.05 204.347 208.296 207.562 210.461 210.392C210.491 210.43 210.535 210.451 210.581 210.451Z" fill="black"/>
</g>
<path fill-rule="evenodd" clip-rule="evenodd" d="M228.5 218.753L229.922 218.374L234.239 217.373C234.758 217.253 235.304 217.346 235.755 217.629L239.468 219.967L229.218 219.951L228.5 218.753Z" fill="#FDBAB9"/>
<path fill-rule="evenodd" clip-rule="evenodd" d="M224.542 221.982C224.559 221.982 224.575 221.984 224.592 221.984L246.489 221.962C247.03 221.962 247.47 221.522 247.468 220.982C247.468 220.44 247.026 219.992 246.487 220.002L224.59 220.024C224.049 220.024 223.611 220.464 223.611 221.004C223.611 221.529 224.023 221.957 224.542 221.982Z" fill="#FEE9D1"/>
<path fill-rule="evenodd" clip-rule="evenodd" d="M255.041 201.367L255.02 201.41L246.365 219.975C246.152 220.434 246.351 220.978 246.812 221.191C247.272 221.402 247.827 221.206 248.033 220.744L256.688 202.179C256.9 201.72 256.701 201.176 256.24 200.963C255.794 200.759 255.267 200.939 255.041 201.367Z" fill="#FEE9D1"/>
<path fill-rule="evenodd" clip-rule="evenodd" d="M239.294 223.081C239.389 223.479 248.527 257.793 250.843 266.491C251.11 267.493 250.365 268.477 249.34 268.477C248.626 268.477 248.002 267.985 247.829 267.283L237.687 226.104L239.294 223.081Z" fill="#22B8CF"/>
<path fill-rule="evenodd" clip-rule="evenodd" d="M234.291 223.081C234.196 223.479 225.059 257.793 222.742 266.491C222.475 267.493 223.22 268.477 224.245 268.477C224.961 268.477 225.583 267.985 225.756 267.283L235.898 226.104L234.291 223.081Z" fill="#22B8CF"/>
<path d="M233.985 221.958H239.676V226.146C239.676 227.018 238.979 227.725 238.118 227.725H235.161C234.511 227.725 233.985 227.193 233.985 226.535V221.958Z" fill="#22B8CF"/>
<path fill-rule="evenodd" clip-rule="evenodd" d="M219.994 220.862H251.768C252.211 220.862 252.6 221.166 252.71 221.602L253.153 223.344C253.314 223.97 252.844 224.58 252.206 224.576L219.602 224.386C218.971 224.383 218.509 223.78 218.664 223.159L219.05 221.608C219.159 221.169 219.549 220.862 219.994 220.862Z" fill="#77F0ED"/>
<path fill-rule="evenodd" clip-rule="evenodd" d="M219.713 185.705C219.713 185.705 219.779 190.812 218.955 193.132C218.13 195.45 218.002 197.126 215.194 196.482C212.386 195.839 210.728 193.607 210.48 190.847C210.48 190.847 210.068 186.582 211.085 185.333C212.101 184.085 219.713 185.705 219.713 185.705Z" fill="#FDBAB9"/>
<path fill-rule="evenodd" clip-rule="evenodd" d="M212.053 189.601L212.384 189.739C212.384 189.739 212.195 186.367 213.598 186.379C215.002 186.39 220.152 187.416 221.884 186.161C223.551 184.951 223.551 182.482 222.482 181.341C222.414 181.268 222.298 181.266 222.222 181.328L222.025 181.49C221.893 181.599 221.692 181.49 221.713 181.319C221.731 181.155 221.549 181.041 221.415 181.135C220.89 181.507 219.698 181.971 217.245 181.435C213.768 180.674 211.083 181.085 210.095 183.298C210.031 183.438 209.849 183.453 209.759 183.327C209.58 183.082 209.229 182.854 208.539 183.069C207.339 183.442 206.89 185.531 208.165 187.941C208.226 188.055 208.165 188.201 208.036 188.223C207.589 188.306 206.835 188.63 207.889 189.931C208.969 191.261 209.827 191.526 210.173 191.578C210.265 191.591 210.353 191.539 210.384 191.451L211.092 189.419C211.127 189.314 211.245 189.262 211.348 189.304L212.053 189.601Z" fill="#063963"/>
<path fill-rule="evenodd" clip-rule="evenodd" d="M211.962 190.049C211.962 190.049 212.402 186.99 210.843 187.245C209.285 187.499 210.188 190.604 211.138 191.125L211.962 190.049Z" fill="#FDBAB9"/>
<path fill-rule="evenodd" clip-rule="evenodd" d="M257.799 162.723C255.896 162.723 254.088 162.324 252.448 161.606C247.737 159.54 244.447 154.831 244.447 149.352C244.447 141.967 250.425 135.98 257.799 135.98C260.359 135.98 262.749 136.701 264.78 137.95C268.603 140.302 271.153 144.529 271.153 149.352C271.153 156.736 265.175 162.723 257.799 162.723ZM257.799 136.425C250.67 136.425 244.891 142.212 244.891 149.352C244.891 156.491 250.67 162.278 257.799 162.278C264.929 162.278 270.709 156.491 270.709 149.352C270.709 142.212 264.929 136.425 257.799 136.425Z" fill="#B7860D"/>
<path fill-rule="evenodd" clip-rule="evenodd" d="M257.799 162.278C250.67 162.278 244.892 156.491 244.892 149.352C244.892 142.212 250.67 136.425 257.799 136.425C264.929 136.425 270.709 142.212 270.709 149.352C270.709 156.491 264.929 162.278 257.799 162.278ZM258.082 138.692C252.047 138.692 247.156 143.591 247.156 149.633C247.156 155.675 252.047 160.574 258.082 160.574C264.116 160.574 269.007 155.675 269.007 149.633C269.007 143.591 264.116 138.692 258.082 138.692ZM257.799 136.987C253.111 136.987 248.884 139.592 246.77 143.787C246.663 144 246.747 144.26 246.96 144.368C247.024 144.399 247.09 144.414 247.156 144.414C247.312 144.414 247.464 144.327 247.54 144.176C249.508 140.275 253.438 137.851 257.799 137.851C258.496 137.851 259.194 137.914 259.871 138.037C259.9 138.042 259.926 138.045 259.952 138.045C260.158 138.045 260.336 137.898 260.374 137.689C260.417 137.455 260.261 137.23 260.028 137.187C259.297 137.054 258.548 136.987 257.799 136.987Z" fill="#FFC81A"/>
<path fill-rule="evenodd" clip-rule="evenodd" d="M247.153 144.415C247.087 144.415 247.021 144.4 246.957 144.369C246.745 144.261 246.66 144.001 246.767 143.788C248.881 139.593 253.108 136.988 257.796 136.988C258.546 136.988 259.295 137.055 260.025 137.188C260.258 137.231 260.415 137.456 260.371 137.691C260.334 137.899 260.155 138.046 259.95 138.046C259.923 138.046 259.897 138.044 259.869 138.039C259.191 137.915 258.493 137.852 257.796 137.852C253.436 137.852 249.506 140.276 247.537 144.178C247.462 144.328 247.309 144.415 247.153 144.415Z" fill="#FFE475"/>
<path fill-rule="evenodd" clip-rule="evenodd" d="M258.082 160.576C252.048 160.576 247.156 155.678 247.156 149.635C247.156 143.593 252.048 138.695 258.082 138.695C264.116 138.695 269.008 143.593 269.008 149.635C269.008 155.678 264.116 160.576 258.082 160.576Z" fill="#FFE475"/>
<path fill-rule="evenodd" clip-rule="evenodd" d="M257.007 157.766V156.576C255.769 156.526 254.544 156.234 253.672 155.852C253.362 155.716 253.203 155.366 253.292 155.039L253.595 153.93C253.704 153.523 254.146 153.313 254.534 153.476C255.398 153.838 256.465 154.125 257.615 154.125C258.809 154.125 259.699 153.72 259.699 152.889C259.699 152.14 259.01 151.694 257.352 151.248C254.984 150.6 253.286 149.567 253.286 147.481C253.286 145.597 254.66 144.158 257.049 143.774V142.583C257.049 142.2 257.357 141.89 257.741 141.89H258.44C258.822 141.89 259.132 142.2 259.132 142.583V143.652C260.278 143.698 261.112 143.894 261.775 144.127C262.115 144.247 262.3 144.613 262.206 144.961L261.929 145.986C261.822 146.381 261.398 146.598 261.016 146.453C260.406 146.222 259.544 145.982 258.425 145.982C257.007 145.982 256.603 146.569 256.603 147.096C256.603 147.744 257.453 148.19 259.294 148.757C261.923 149.547 263.015 150.641 263.015 152.606C263.015 154.409 261.681 156.029 259.091 156.434V157.766C259.091 158.15 258.782 158.46 258.398 158.46H257.7C257.318 158.46 257.007 158.15 257.007 157.766Z" fill="#B7860D"/>
<path fill-rule="evenodd" clip-rule="evenodd" d="M294.926 156.994C294.419 156.994 293.915 156.978 293.413 156.947C281.102 156.165 271.358 145.919 271.358 133.393C271.358 120.358 281.91 109.792 294.926 109.792C307.747 109.792 318.178 120.042 318.489 132.805C318.493 133 318.496 133.196 318.496 133.393C318.496 137.558 317.418 141.471 315.527 144.868C312.926 149.542 308.783 153.238 303.789 155.269C301.052 156.382 298.062 156.994 294.926 156.994ZM294.926 110.577C282.343 110.577 272.141 120.792 272.141 133.393C272.141 145.994 282.343 156.209 294.926 156.209C307.51 156.209 317.712 145.994 317.712 133.393C317.712 120.792 307.51 110.577 294.926 110.577Z" fill="#B7860D"/>
<path fill-rule="evenodd" clip-rule="evenodd" d="M294.927 156.208C282.344 156.208 272.142 145.993 272.142 133.392C272.142 120.791 282.344 110.576 294.927 110.576C307.511 110.576 317.713 120.791 317.713 133.392C317.713 145.993 307.511 156.208 294.927 156.208ZM295.423 114.578C284.773 114.578 276.14 123.224 276.14 133.889C276.14 144.555 284.773 153.2 295.423 153.2C306.074 153.2 314.709 144.555 314.709 133.889C314.709 123.224 306.074 114.578 295.423 114.578ZM294.927 111.892C286.775 111.892 279.426 116.423 275.748 123.717C275.64 123.933 275.725 124.196 275.941 124.306C276.006 124.338 276.073 124.353 276.14 124.353C276.298 124.353 276.453 124.264 276.531 124.112C280.057 117.115 287.107 112.768 294.927 112.768C296.175 112.768 297.427 112.881 298.643 113.103C298.671 113.108 298.698 113.111 298.725 113.111C298.933 113.111 299.114 112.961 299.152 112.751C299.196 112.512 299.038 112.284 298.801 112.241C297.532 112.009 296.229 111.892 294.927 111.892Z" fill="#FFC81A"/>
<path fill-rule="evenodd" clip-rule="evenodd" d="M276.14 124.354C276.074 124.354 276.007 124.339 275.942 124.307C275.726 124.198 275.64 123.934 275.749 123.718C279.427 116.424 286.776 111.893 294.928 111.893C296.23 111.893 297.533 112.01 298.802 112.242C299.039 112.286 299.197 112.514 299.153 112.752C299.115 112.962 298.934 113.112 298.726 113.112C298.699 113.112 298.672 113.11 298.644 113.104C297.428 112.882 296.176 112.77 294.928 112.77C287.108 112.77 280.058 117.116 276.532 124.113C276.453 124.266 276.299 124.354 276.14 124.354Z" fill="#FFE475"/>
<path fill-rule="evenodd" clip-rule="evenodd" d="M295.423 153.203C284.773 153.203 276.14 144.557 276.14 133.891C276.14 123.226 284.773 114.58 295.423 114.58C306.074 114.58 314.709 123.226 314.709 133.891C314.709 144.557 306.074 153.203 295.423 153.203Z" fill="#FFE475"/>
<path fill-rule="evenodd" clip-rule="evenodd" d="M293.53 148.248V146.147C291.343 146.059 289.179 145.542 287.643 144.869C287.093 144.628 286.814 144.012 286.971 143.433L287.505 141.476C287.7 140.758 288.48 140.387 289.166 140.675C290.688 141.314 292.572 141.821 294.6 141.821C296.707 141.821 298.278 141.105 298.278 139.639C298.278 138.316 297.064 137.53 294.137 136.743C289.959 135.599 286.96 133.776 286.96 130.093C286.96 126.768 289.387 124.229 293.601 123.55V121.449C293.601 120.772 294.148 120.224 294.824 120.224H296.057C296.73 120.224 297.278 120.772 297.278 121.449V123.335C299.303 123.416 300.776 123.763 301.944 124.174C302.543 124.385 302.871 125.031 302.705 125.645L302.215 127.454C302.026 128.153 301.282 128.535 300.606 128.279C299.528 127.871 298.007 127.447 296.028 127.447C293.53 127.447 292.816 128.484 292.816 129.413C292.816 130.558 294.314 131.344 297.564 132.345C302.205 133.74 304.135 135.67 304.135 139.139C304.135 142.321 301.778 145.181 297.207 145.897V148.248C297.207 148.924 296.66 149.472 295.984 149.472H294.751C294.076 149.472 293.53 148.924 293.53 148.248Z" fill="#B7860D"/>
<path fill-rule="evenodd" clip-rule="evenodd" d="M310.599 207.634C308.321 207.634 306.12 207.308 304.039 206.7C294.731 203.982 287.822 195.621 287.253 185.565C287.228 185.119 287.215 184.672 287.215 184.22C287.215 183.415 287.255 182.619 287.334 181.834C288.308 172.213 295.099 164.31 304.131 161.712C305.035 161.452 305.96 161.246 306.904 161.095C308.107 160.904 309.34 160.805 310.599 160.805C315.857 160.805 320.711 162.544 324.619 165.479C330.303 169.75 333.981 176.555 333.981 184.22C333.981 197.151 323.511 207.634 310.599 207.634ZM310.599 161.583C298.113 161.583 287.993 171.717 287.993 184.22C287.993 196.721 298.113 206.857 310.599 206.857C323.083 206.857 333.204 196.721 333.204 184.22C333.204 171.717 323.083 161.583 310.599 161.583Z" fill="#B7860D"/>
<path fill-rule="evenodd" clip-rule="evenodd" d="M310.599 206.856C298.113 206.856 287.993 196.72 287.993 184.219C287.993 171.716 298.113 161.583 310.599 161.583C323.083 161.583 333.204 171.716 333.204 184.219C333.204 196.72 323.083 206.856 310.599 206.856ZM311.092 165.553C300.525 165.553 291.958 174.13 291.958 184.711C291.958 195.292 300.525 203.871 311.092 203.871C321.657 203.871 330.223 195.292 330.223 184.711C330.223 174.13 321.657 165.553 311.092 165.553ZM310.599 162.901C302.514 162.901 295.228 167.393 291.581 174.626C291.476 174.834 291.561 175.088 291.769 175.193C291.829 175.224 291.894 175.239 291.958 175.239C292.113 175.239 292.26 175.152 292.335 175.007C295.837 168.06 302.834 163.746 310.599 163.746C311.837 163.746 313.079 163.858 314.288 164.078C314.313 164.083 314.339 164.085 314.365 164.085C314.566 164.085 314.74 163.941 314.779 163.738C314.819 163.508 314.669 163.288 314.439 163.247C313.18 163.017 311.888 162.901 310.599 162.901Z" fill="#FFC81A"/>
<path fill-rule="evenodd" clip-rule="evenodd" d="M291.957 175.239C291.893 175.239 291.829 175.224 291.768 175.193C291.56 175.088 291.475 174.834 291.58 174.626C295.227 167.393 302.513 162.901 310.598 162.901C311.888 162.901 313.179 163.017 314.438 163.247C314.668 163.288 314.819 163.508 314.778 163.738C314.739 163.941 314.565 164.085 314.364 164.085C314.338 164.085 314.313 164.083 314.287 164.078C313.078 163.858 311.836 163.746 310.598 163.746C302.833 163.746 295.836 168.06 292.335 175.007C292.259 175.153 292.112 175.239 291.957 175.239Z" fill="#FFE475"/>
<path fill-rule="evenodd" clip-rule="evenodd" d="M311.094 203.87C300.527 203.87 291.96 195.291 291.96 184.71C291.96 174.128 300.527 165.552 311.094 165.552C321.658 165.552 330.225 174.128 330.225 184.71C330.225 195.291 321.658 203.87 311.094 203.87Z" fill="#FFE475"/>
<path fill-rule="evenodd" clip-rule="evenodd" d="M309.212 198.953V196.868C307.043 196.781 304.896 196.269 303.372 195.6C302.828 195.362 302.55 194.751 302.706 194.176L303.234 192.234C303.429 191.523 304.202 191.154 304.883 191.44C306.395 192.074 308.261 192.577 310.276 192.577C312.366 192.577 313.925 191.867 313.925 190.412C313.925 189.1 312.719 188.321 309.814 187.539C305.671 186.404 302.695 184.595 302.695 180.941C302.695 177.642 305.104 175.123 309.284 174.45V172.365C309.284 171.694 309.827 171.151 310.497 171.151H311.718C312.388 171.151 312.933 171.694 312.933 172.365V174.237C314.94 174.318 316.401 174.661 317.562 175.07C318.156 175.278 318.48 175.919 318.316 176.529L317.829 178.323C317.641 179.016 316.903 179.396 316.232 179.141C315.165 178.738 313.654 178.316 311.693 178.316C309.212 178.316 308.504 179.346 308.504 180.267C308.504 181.402 309.993 182.183 313.216 183.176C317.821 184.56 319.733 186.474 319.733 189.916C319.733 193.072 317.395 195.912 312.861 196.621V198.953C312.861 199.624 312.318 200.168 311.648 200.168H310.425C309.755 200.168 309.212 199.624 309.212 198.953Z" fill="#B7860D"/>
<path fill-rule="evenodd" clip-rule="evenodd" d="M340.597 169.48C334.756 169.48 329.598 166.553 326.505 162.083C324.588 159.313 323.466 155.95 323.466 152.324C323.466 148.192 324.923 144.402 327.354 141.44C328.137 140.485 329.022 139.616 329.992 138.85C332.908 136.545 336.594 135.168 340.597 135.168C341.681 135.168 342.743 135.269 343.771 135.462C351.716 136.953 357.729 143.935 357.729 152.324C357.729 161.799 350.06 169.48 340.597 169.48ZM340.597 135.739C331.449 135.739 324.034 143.164 324.034 152.324C324.034 161.484 331.449 168.91 340.597 168.91C349.746 168.91 357.161 161.484 357.161 152.324C357.161 143.164 349.746 135.739 340.597 135.739Z" fill="#B7860D"/>
<path fill-rule="evenodd" clip-rule="evenodd" d="M340.595 168.909C331.447 168.909 324.032 161.483 324.032 152.324C324.032 143.164 331.447 135.738 340.595 135.738C349.744 135.738 357.159 143.164 357.159 152.324C357.159 161.483 349.744 168.909 340.595 168.909ZM340.956 138.648C333.214 138.648 326.938 144.932 326.938 152.685C326.938 160.437 333.214 166.722 340.956 166.722C348.698 166.722 354.975 160.437 354.975 152.685C354.975 144.932 348.698 138.648 340.956 138.648ZM340.595 136.591C334.628 136.591 329.252 139.906 326.56 145.244C326.455 145.452 326.54 145.706 326.748 145.811C326.809 145.842 326.873 145.857 326.938 145.857C327.092 145.857 327.241 145.772 327.315 145.624C329.861 140.574 334.95 137.436 340.595 137.436C341.495 137.436 342.399 137.517 343.278 137.677C343.306 137.683 343.331 137.685 343.357 137.685C343.558 137.685 343.732 137.54 343.769 137.337C343.81 137.108 343.659 136.888 343.429 136.846C342.5 136.677 341.547 136.591 340.595 136.591Z" fill="#FFC81A"/>
<path fill-rule="evenodd" clip-rule="evenodd" d="M326.938 145.856C326.873 145.856 326.809 145.842 326.748 145.811C326.54 145.706 326.456 145.452 326.561 145.244C329.252 139.906 334.629 136.591 340.596 136.591C341.547 136.591 342.5 136.676 343.429 136.846C343.659 136.888 343.81 137.108 343.77 137.337C343.733 137.54 343.558 137.685 343.357 137.685C343.332 137.685 343.306 137.682 343.278 137.677C342.399 137.517 341.495 137.436 340.596 137.436C334.951 137.436 329.862 140.573 327.315 145.624C327.241 145.771 327.092 145.856 326.938 145.856Z" fill="#FFE475"/>
<path fill-rule="evenodd" clip-rule="evenodd" d="M340.956 166.72C333.214 166.72 326.938 160.435 326.938 152.683C326.938 144.93 333.214 138.645 340.956 138.645C348.698 138.645 354.974 144.93 354.974 152.683C354.974 160.435 348.698 166.72 340.956 166.72Z" fill="#FFE475"/>
<path fill-rule="evenodd" clip-rule="evenodd" d="M339.581 163.12V161.593C337.989 161.529 336.418 161.154 335.301 160.664C334.902 160.489 334.698 160.041 334.814 159.62L335.2 158.198C335.342 157.676 335.908 157.406 336.407 157.615C337.515 158.08 338.883 158.448 340.359 158.448C341.89 158.448 343.033 157.928 343.033 156.862C343.033 155.901 342.149 155.329 340.021 154.757C336.985 153.926 334.804 152.6 334.804 149.923C334.804 147.506 336.569 145.661 339.632 145.167V143.64C339.632 143.148 340.03 142.75 340.521 142.75H341.417C341.906 142.75 342.306 143.148 342.306 143.64V145.011C343.776 145.07 344.847 145.322 345.697 145.621C346.133 145.774 346.37 146.244 346.249 146.69L345.894 148.005C345.756 148.513 345.215 148.791 344.723 148.605C343.941 148.308 342.834 148 341.397 148C339.581 148 339.06 148.753 339.06 149.429C339.06 150.261 340.151 150.833 342.514 151.561C345.886 152.574 347.288 153.978 347.288 156.499C347.288 158.812 345.575 160.891 342.252 161.411V163.12C342.252 163.612 341.855 164.01 341.366 164.01H340.468C339.978 164.01 339.581 163.612 339.581 163.12Z" fill="#B7860D"/>
<path fill-rule="evenodd" clip-rule="evenodd" d="M193.445 22.8379C193.445 22.8379 190.21 29.0614 185.393 27.1773C180.575 25.2933 176.179 22.1947 173.945 23.1623C173.945 23.1623 182.461 12.4162 193.528 20.3644L193.445 22.8379Z" fill="#FDAB76"/>
<path fill-rule="evenodd" clip-rule="evenodd" d="M203.54 6.59472C205.689 7.49993 206.348 14.3559 206.348 14.3559C206.348 14.3559 199.143 16.6791 196.19 15.6827C193.745 14.8575 187.204 10.028 185.027 8.39168C184.576 8.05304 184.315 7.52056 184.322 6.95622C184.324 6.88804 184.374 6.83203 184.442 6.82761C185.954 6.72849 201.496 5.73374 203.54 6.59472ZM203.135 38.0411C205.306 37.1921 206.143 30.3554 206.143 30.3554C206.143 30.3554 199.001 27.8463 196.022 28.7659C193.556 29.5274 186.892 34.1859 184.675 35.7651C184.215 36.0919 183.941 36.6176 183.934 37.1817C183.934 37.2501 183.981 37.3072 184.05 37.3135C185.558 37.4517 201.069 38.8488 203.135 38.0411ZM190.138 7.66721C190.085 7.66961 190.037 7.64621 190.007 7.60788C189.987 7.58264 189.974 7.55095 189.972 7.51631C189.969 7.42917 190.035 7.35491 190.123 7.35086L190.137 7.35024C190.524 7.33232 198.797 6.94905 202.403 6.92152C203.058 6.91659 203.654 7.29835 203.923 7.89384C204.44 9.04169 205.137 10.7954 205.525 12.6323C205.544 12.718 205.489 12.8018 205.404 12.8199C205.318 12.8381 205.233 12.7836 205.216 12.6977C204.813 10.7931 204.052 8.95196 203.634 8.0241C203.417 7.54285 202.935 7.23423 202.407 7.23829C198.738 7.26629 190.223 7.66316 190.138 7.66721ZM189.74 36.941C189.694 36.9377 189.654 36.915 189.628 36.882C189.604 36.852 189.591 36.8129 189.593 36.7716C189.6 36.6843 189.676 36.6187 189.762 36.6252L189.765 36.6254C189.965 36.6399 198.374 37.2497 202.016 37.3719C202.546 37.3898 203.036 37.0939 203.264 36.6182C203.705 35.7017 204.515 33.8812 204.966 31.9871C204.986 31.9022 205.072 31.8497 205.157 31.87C205.242 31.8902 205.293 31.9757 205.275 32.0607C204.815 33.9836 203.996 35.8279 203.549 36.756C203.266 37.3443 202.66 37.7106 202.005 37.6885C198.333 37.5652 189.825 36.9472 189.74 36.941Z" fill="#B3200E"/>
<path fill-rule="evenodd" clip-rule="evenodd" d="M229.244 30.5688C226.052 31.5663 222.37 32.2359 218.271 32.1946C205.549 32.0667 196.221 29.7693 193.586 29.0451C193.109 28.9141 192.749 28.5294 192.635 28.0479C191.737 24.2525 191.759 20.4649 192.694 16.6854C192.868 15.9746 193.431 15.4232 194.143 15.2533C197.231 14.517 206.35 12.6436 218.521 12.8369C222.587 12.9014 226.228 13.655 229.376 14.7217C231.058 21.0584 230.026 27.1512 229.244 30.5688Z" fill="#FA541C"/>
<path fill-rule="evenodd" clip-rule="evenodd" d="M229.377 14.7202C236.333 17.0767 240.895 20.9625 242.355 22.3336C242.643 22.6015 242.635 23.0552 242.343 23.3157C240.85 24.6437 236.219 28.3885 229.244 30.5673C230.026 27.1497 231.058 21.0568 229.377 14.7202Z" fill="#B3200E"/>
<path fill-rule="evenodd" clip-rule="evenodd" d="M219.317 16.1262C216.022 16.0835 213.313 18.9198 213.267 22.4612C213.223 26.0026 215.856 28.9081 219.151 28.9507C222.447 28.9934 225.155 26.1571 225.201 22.6157C225.247 19.0743 222.612 16.1688 219.317 16.1262Z" fill="#B3200E"/>
<path fill-rule="evenodd" clip-rule="evenodd" d="M219.469 17.2518C216.843 17.2178 214.685 19.4777 214.648 22.2996C214.611 25.1214 216.71 27.4366 219.336 27.4707C221.962 27.5046 224.12 25.2446 224.157 22.4229C224.193 19.601 222.094 17.2859 219.469 17.2518Z" fill="#FDAB76"/>
<path fill-rule="evenodd" clip-rule="evenodd" d="M220.242 25.9505C220.28 25.999 220.345 26.022 220.409 26.0036C222.03 25.5293 223.178 23.9673 223.2 22.2044C223.206 21.7606 223.143 21.3234 223.013 20.9053C222.987 20.8217 222.897 20.7756 222.814 20.8018C222.731 20.8279 222.683 20.9165 222.711 21C222.831 21.386 222.889 21.7902 222.884 22.2004C222.864 23.8253 221.809 25.2642 220.321 25.6996C220.236 25.7241 220.188 25.812 220.212 25.8958C220.218 25.9164 220.229 25.9347 220.242 25.9505Z" fill="#FA541C"/>
<path fill-rule="evenodd" clip-rule="evenodd" d="M207.298 18.1463C205.122 18.1181 203.333 19.9917 203.302 22.3315C203.273 24.671 205.011 26.5905 207.19 26.6187C209.367 26.6469 211.155 24.7731 211.186 22.4335C211.216 20.094 209.475 18.1747 207.298 18.1463Z" fill="#B3200E"/>
<path fill-rule="evenodd" clip-rule="evenodd" d="M207.399 18.8884C205.664 18.866 204.238 20.3589 204.214 22.2233C204.19 24.0875 205.578 25.6169 207.311 25.6394C209.046 25.6619 210.472 24.1689 210.496 22.3046C210.52 20.4403 209.134 18.9109 207.399 18.8884Z" fill="#FDAB76"/>
<path fill-rule="evenodd" clip-rule="evenodd" d="M207.866 24.6711C207.905 24.7198 207.971 24.7428 208.034 24.7242C209.129 24.4047 209.903 23.3517 209.918 22.1637C209.922 21.8648 209.879 21.57 209.791 21.2883C209.765 21.2051 209.675 21.1586 209.592 21.1848C209.509 21.2111 209.462 21.2998 209.489 21.3832C209.567 21.6329 209.605 21.8941 209.601 22.1596C209.589 23.2098 208.908 24.1392 207.946 24.4202C207.863 24.4449 207.813 24.5327 207.839 24.6166C207.844 24.6372 207.854 24.6554 207.866 24.6711Z" fill="#FA541C"/>
<g opacity="0.24">
<path fill-rule="evenodd" clip-rule="evenodd" d="M193.11 16.6443C193.215 16.5048 193.414 16.4768 193.554 16.582C193.958 16.888 194.369 17.2171 194.77 17.5607L194.902 17.674L194.871 17.8853C194.847 18.0583 194.687 18.1781 194.514 18.1527C194.4 18.1365 194.312 18.0631 194.269 17.9653C193.905 17.6578 193.537 17.363 193.173 17.0875C193.151 17.0713 193.132 17.0527 193.116 17.0325C193.027 16.9221 193.022 16.7622 193.11 16.6443ZM190.435 14.9674C190.518 14.8136 190.711 14.7566 190.864 14.8401C191.322 15.089 191.785 15.365 192.242 15.6613C192.387 15.7567 192.429 15.9524 192.336 16.0991C192.24 16.2457 192.045 16.2877 191.898 16.1925C191.456 15.9056 191.005 15.6375 190.562 15.3965C190.523 15.3757 190.492 15.3483 190.466 15.3162C190.389 15.2198 190.372 15.0828 190.435 14.9674ZM193.791 20.9276L194.019 19.361C194.045 19.188 194.205 19.068 194.378 19.0929C194.551 19.1179 194.67 19.2786 194.645 19.4518L194.418 21.0185C194.393 21.1915 194.233 21.3114 194.06 21.2863C193.977 21.2744 193.907 21.2313 193.857 21.1708C193.806 21.1047 193.78 21.0179 193.791 20.9276ZM187.517 13.7706C187.57 13.604 187.749 13.5126 187.914 13.5662C188.413 13.7274 188.921 13.9187 189.419 14.135C189.579 14.2045 189.653 14.3907 189.585 14.5514C189.515 14.7119 189.329 14.7858 189.169 14.7163C188.687 14.5081 188.199 14.324 187.719 14.1689C187.658 14.1492 187.607 14.1125 187.57 14.0655C187.506 13.9854 187.482 13.8756 187.517 13.7706ZM193.338 24.0611L193.565 22.4944C193.59 22.3214 193.75 22.2015 193.923 22.2264C194.096 22.2514 194.216 22.4121 194.19 22.5853L193.964 24.1519C193.938 24.3249 193.778 24.4449 193.605 24.4198C193.522 24.4079 193.452 24.3649 193.405 24.3043C193.351 24.2382 193.325 24.1514 193.338 24.0611ZM184.416 13.1872C184.435 13.0133 184.589 12.886 184.762 12.9035C185.292 12.956 185.83 13.0393 186.358 13.1506C186.527 13.1863 186.637 13.3545 186.6 13.5257C186.566 13.6967 186.396 13.8065 186.227 13.7702C185.721 13.6635 185.208 13.5839 184.7 13.5336C184.611 13.5248 184.536 13.4806 184.485 13.4163C184.435 13.354 184.409 13.2729 184.416 13.1872ZM181.265 13.2915C181.244 13.118 181.368 12.9602 181.541 12.9394C182.076 12.8749 182.619 12.8392 183.151 12.8331C183.325 12.8313 183.469 12.9719 183.471 13.1463C183.473 13.321 183.333 13.4645 183.158 13.4666C182.648 13.4723 182.129 13.5064 181.616 13.5684C181.504 13.5817 181.397 13.534 181.331 13.4513C181.296 13.4069 181.272 13.3523 181.265 13.2915ZM192.347 27.5891C192.762 26.9372 192.972 26.4475 193.011 26.3209L193.11 25.6277C193.136 25.4547 193.296 25.3346 193.469 25.3599C193.642 25.3847 193.761 25.5456 193.738 25.7189L193.638 26.3961L193.633 26.3951C193.565 26.8484 192.888 27.9174 192.88 27.9292C192.786 28.0768 192.591 28.12 192.444 28.0263C192.413 28.0069 192.389 27.9833 192.367 27.9568C192.284 27.854 192.273 27.7062 192.347 27.5891ZM178.199 14.0455C178.144 13.8795 178.236 13.7005 178.402 13.6458C178.915 13.4767 179.438 13.3319 179.953 13.2152C180.122 13.1764 180.291 13.2843 180.33 13.4542C180.369 13.6246 180.262 13.7943 180.091 13.8327C179.596 13.945 179.094 14.0845 178.599 14.2476C178.47 14.29 178.334 14.2448 178.253 14.1446C178.231 14.1157 178.212 14.0825 178.199 14.0455ZM190.359 29.9251C190.738 29.5881 191.099 29.2183 191.432 28.8257C191.546 28.6927 191.745 28.6767 191.879 28.79C192.012 28.904 192.028 29.1032 191.914 29.2364C191.561 29.6513 191.18 30.0423 190.779 30.3984C190.648 30.5147 190.448 30.5027 190.332 30.3723L190.321 30.3594C190.218 30.2288 190.232 30.0375 190.359 29.9251ZM175.314 15.3317C175.233 15.1765 175.294 14.9853 175.449 14.9042C175.927 14.6531 176.416 14.4213 176.898 14.2146C177.059 14.1459 177.244 14.2207 177.312 14.3813C177.382 14.542 177.307 14.7285 177.147 14.7972C176.68 14.9971 176.207 15.2221 175.741 15.4656C175.605 15.5369 175.439 15.499 175.347 15.3831C175.335 15.3672 175.323 15.3503 175.314 15.3317ZM187.646 32.0217C187.574 31.8628 187.642 31.6751 187.802 31.6021C188.264 31.3906 188.715 31.141 189.141 30.86C189.287 30.7642 189.487 30.8021 189.579 30.951C189.675 31.0971 189.635 31.2933 189.489 31.3893C189.035 31.6878 188.556 31.9531 188.065 32.1783C187.931 32.2398 187.774 32.1989 187.686 32.0882C187.671 32.0683 187.657 32.046 187.646 32.0217ZM172.641 17.0205C172.542 16.8775 172.575 16.68 172.718 16.5794C173.16 16.2677 173.61 15.9712 174.054 15.6976C174.203 15.606 174.402 15.6519 174.49 15.8015C174.58 15.9504 174.534 16.1455 174.385 16.2371C173.953 16.5037 173.513 16.7931 173.082 17.0973C172.944 17.1942 172.757 17.166 172.654 17.0363L172.641 17.0205ZM184.593 32.808C184.567 32.635 184.685 32.474 184.858 32.4482C184.968 32.4318 185.079 32.4147 185.189 32.396C185.589 32.3301 185.984 32.2416 186.365 32.1326C186.532 32.0849 186.709 32.1821 186.755 32.3503C186.803 32.5184 186.705 32.6936 186.538 32.7417C186.135 32.8572 185.715 32.9512 185.294 33.0208C185.178 33.0398 185.064 33.0577 184.952 33.0746C184.836 33.0918 184.726 33.0442 184.657 32.9589C184.624 32.9167 184.6 32.8653 184.593 32.808ZM181.439 32.9265C181.447 32.7518 181.594 32.6164 181.769 32.624C182.271 32.6461 182.792 32.6413 183.316 32.6103C183.489 32.6 183.64 32.7327 183.649 32.9075C183.66 33.082 183.528 33.2318 183.353 33.2423C182.807 33.2747 182.266 33.2795 181.741 33.2567C181.647 33.2526 181.563 33.2069 181.509 33.138C181.463 33.0803 181.436 33.0063 181.439 32.9265ZM170.21 18.56C170.569 18.2457 170.933 17.9395 171.296 17.6499L171.438 17.5369C171.574 17.4288 171.772 17.4514 171.881 17.5878V17.5887C171.99 17.726 171.967 17.9251 171.829 18.0335L171.691 18.1446C171.336 18.4281 170.978 18.7284 170.626 19.0367C170.495 19.1518 170.295 19.1384 170.181 19.0068L170.172 18.9958C170.067 18.8644 170.081 18.6721 170.21 18.56ZM177.382 29.4901C177.335 29.3219 177.432 29.147 177.601 29.0995C178.089 28.9613 178.44 28.7404 178.672 28.5941C178.772 28.5324 178.851 28.4832 178.913 28.453C178.948 28.4368 178.978 28.4244 179.003 28.4156C179.167 28.3592 179.338 28.4515 179.395 28.6171C179.45 28.7826 179.353 28.9668 179.189 29.0232C179.141 29.0459 179.082 29.0842 179.009 29.1305C178.762 29.2858 178.348 29.5459 177.772 29.709C177.647 29.7446 177.517 29.6985 177.439 29.6019C177.414 29.5699 177.395 29.5321 177.382 29.4901ZM178.328 32.3937C178.37 32.2238 178.54 32.1191 178.711 32.1598C179.16 32.2682 179.657 32.3809 180.232 32.4707C180.405 32.4977 180.523 32.6599 180.497 32.8323C180.47 33.005 180.308 33.1234 180.135 33.0965C179.537 33.0033 179.025 32.8871 178.562 32.7758C178.492 32.7586 178.431 32.7187 178.389 32.6656C178.33 32.5921 178.304 32.4928 178.328 32.3937ZM176.948 30.8298C177.371 30.39 177.736 30.0038 178.03 29.6815C178.148 29.5526 178.348 29.5434 178.477 29.6615C178.602 29.7803 178.615 29.9796 178.497 30.1088C178.199 30.4353 177.831 30.8257 177.403 31.2696C177.281 31.3954 177.082 31.3989 176.955 31.2775L176.928 31.2471C176.83 31.1247 176.836 30.9457 176.948 30.8298ZM167.907 20.7693C168.275 20.3835 168.654 20.0036 169.033 19.6399C169.16 19.5191 169.358 19.5229 169.48 19.6493C169.603 19.7759 169.598 19.976 169.471 20.097C169.099 20.4547 168.725 20.8281 168.361 21.2077C168.242 21.3339 168.041 21.3381 167.916 21.2171L167.886 21.1857C167.789 21.0638 167.794 20.8852 167.907 20.7693ZM174.306 28.9923C174.37 28.8301 174.554 28.7511 174.716 28.8159C175.219 29.0171 175.704 29.1461 176.159 29.1996C176.332 29.2198 176.457 29.3775 176.437 29.5509C176.415 29.7247 176.258 29.8488 176.085 29.8286C175.576 29.7687 175.036 29.6257 174.483 29.4041C174.429 29.3829 174.387 29.3493 174.354 29.3081C174.284 29.2218 174.262 29.1021 174.306 28.9923ZM175.841 31.9609C175.933 31.8698 176.065 31.8451 176.177 31.8877C176.453 31.8035 176.76 31.784 177.127 31.824C177.3 31.8429 177.425 31.999 177.406 32.1727C177.388 32.3465 177.232 32.4721 177.059 32.4532C176.615 32.4049 176.312 32.4642 176.039 32.6512L175.636 32.1663L175.841 31.9609ZM171.535 27.4776C171.609 27.3184 171.796 27.248 171.955 27.3206C172.315 27.4846 172.661 27.6755 172.983 27.8873C173.11 27.9714 173.235 28.0502 173.357 28.1248C173.506 28.2155 173.553 28.4102 173.463 28.5597C173.373 28.7093 173.178 28.757 173.029 28.6663C172.9 28.5879 172.768 28.5044 172.635 28.4163C172.341 28.2223 172.023 28.0476 171.693 27.8967C171.645 27.8756 171.607 27.8442 171.577 27.8066C171.506 27.7164 171.485 27.5898 171.535 27.4776ZM165.789 23.1557C166.129 22.7423 166.479 22.334 166.825 21.9426C166.941 21.812 167.141 21.8 167.272 21.9163C167.403 22.0335 167.414 22.2326 167.298 22.3633C166.955 22.7487 166.613 23.1507 166.278 23.5579C166.166 23.6932 165.967 23.7123 165.833 23.6012C165.815 23.5868 165.8 23.5712 165.787 23.5544C165.695 23.4398 165.693 23.2731 165.789 23.1557ZM168.455 26.8263C168.468 26.652 168.621 26.5223 168.795 26.5364C169.355 26.5821 169.896 26.6678 170.403 26.7903C170.575 26.8311 170.679 27.0022 170.637 27.1727C170.597 27.3425 170.426 27.447 170.256 27.4059C169.78 27.2909 169.272 27.2108 168.744 27.1677C168.654 27.1603 168.575 27.1155 168.523 27.0499C168.473 26.989 168.448 26.9101 168.455 26.8263ZM165.301 27.0223C165.276 26.8495 165.395 26.6885 165.568 26.6632C166.113 26.5831 166.654 26.5311 167.174 26.5086C167.349 26.5009 167.496 26.6361 167.506 26.8112C167.513 26.9858 167.377 27.1336 167.202 27.1411C166.703 27.1627 166.184 27.2126 165.66 27.2897C165.544 27.3068 165.436 27.2589 165.368 27.1739C165.333 27.1316 165.311 27.08 165.301 27.0223ZM163.853 25.6908C164.155 25.2628 164.473 24.8303 164.799 24.4051C164.906 24.2663 165.103 24.2398 165.242 24.3461C165.38 24.4528 165.408 24.6509 165.301 24.79C164.981 25.2088 164.668 25.6351 164.37 26.0565C164.269 26.1991 164.07 26.233 163.929 26.132C163.905 26.1143 163.883 26.0941 163.864 26.0712C163.778 25.9638 163.771 25.8085 163.853 25.6908ZM162.707 27.4188C162.707 27.4188 162.792 27.2749 162.959 27.0157C163.053 26.8685 163.248 26.8255 163.395 26.9199C163.46 26.9617 163.504 27.0229 163.526 27.0907C163.662 27.0538 163.816 27.0135 163.986 26.9722C164.155 26.9309 164.326 27.0356 164.367 27.2053C164.409 27.3751 164.304 27.5461 164.135 27.5876C163.656 27.7038 163.318 27.8079 163.156 27.8579C163.11 27.8721 163.077 27.882 163.06 27.8864L162.308 28.0898L162.707 27.4188Z" fill="#FA541C"/>
<path fill-rule="evenodd" clip-rule="evenodd" d="M158.456 27.1784L156.381 27.6873C156.187 27.735 155.992 27.6161 155.945 27.4218C155.897 27.2276 156.015 27.0315 156.21 26.984L156.233 26.9781L158.256 26.474L158.279 26.4677C158.476 26.4189 158.675 26.5383 158.723 26.7345C158.773 26.9307 158.653 27.1295 158.456 27.1784Z" fill="#FA541C"/>
<path fill-rule="evenodd" clip-rule="evenodd" d="M154.28 28.0512L152.161 28.2806C151.966 28.3014 151.791 28.1608 151.771 27.9661C151.751 27.7715 151.89 27.5969 152.085 27.5759L152.106 27.5735L154.179 27.3413L154.201 27.3389C154.398 27.317 154.575 27.4587 154.597 27.6553C154.619 27.8519 154.477 28.0291 154.282 28.051L154.28 28.0512Z" fill="#FA541C"/>
<path fill-rule="evenodd" clip-rule="evenodd" d="M150.032 28.3834L147.907 28.3676C147.715 28.3661 147.561 28.2099 147.563 28.0183C147.564 27.8268 147.721 27.6726 147.91 27.6741L147.929 27.6743L150.017 27.682L150.037 27.6822C150.23 27.6829 150.387 27.8405 150.385 28.0341C150.385 28.2278 150.227 28.3842 150.034 28.3834H150.032Z" fill="#FA541C"/>
<path fill-rule="evenodd" clip-rule="evenodd" d="M145.783 28.2421L143.671 28.019C143.483 27.9993 143.349 27.8324 143.369 27.6463C143.39 27.46 143.555 27.3249 143.741 27.3447L143.756 27.3459L145.839 27.5584L145.855 27.56C146.043 27.5792 146.179 27.7474 146.161 27.9359C146.14 28.1244 145.973 28.2615 145.785 28.2423L145.783 28.2421Z" fill="#FA541C"/>
<path fill-rule="evenodd" clip-rule="evenodd" d="M141.57 27.7061L139.484 27.31C139.305 27.2759 139.188 27.1025 139.221 26.9227C139.256 26.7428 139.429 26.6249 139.607 26.659L139.618 26.661L141.681 27.045L141.694 27.0472C141.876 27.0811 141.995 27.2562 141.962 27.4382C141.927 27.6202 141.753 27.74 141.57 27.7061Z" fill="#FA541C"/>
<path fill-rule="evenodd" clip-rule="evenodd" d="M137.415 26.8382L135.365 26.2983C135.192 26.253 135.089 26.0759 135.135 25.9031C135.179 25.7303 135.356 25.6269 135.529 25.6722L137.569 26.2018L137.58 26.2045C137.755 26.2499 137.86 26.4284 137.814 26.6036C137.77 26.7786 137.591 26.8839 137.416 26.8385L137.415 26.8382Z" fill="#FA541C"/>
<path fill-rule="evenodd" clip-rule="evenodd" d="M133.331 25.6961L131.319 25.0362C131.153 24.9818 131.063 24.8034 131.116 24.6376C131.171 24.4718 131.35 24.3815 131.515 24.4357L131.523 24.4381L133.521 25.0853L133.53 25.0879C133.698 25.1425 133.79 25.3227 133.734 25.4907C133.681 25.6587 133.501 25.7508 133.333 25.6965L133.331 25.6961Z" fill="#FA541C"/>
<path fill-rule="evenodd" clip-rule="evenodd" d="M129.325 24.3238L127.348 23.5623C127.19 23.5011 127.111 23.323 127.172 23.1641C127.233 23.0053 127.411 22.9261 127.569 22.9873L127.575 22.9893L129.54 23.7383L129.547 23.7408C129.707 23.8022 129.788 23.9824 129.727 24.1434C129.667 24.3046 129.486 24.3853 129.326 24.324L129.325 24.3238Z" fill="#FA541C"/>
<path fill-rule="evenodd" clip-rule="evenodd" d="M125.39 22.755L123.451 21.9073C123.298 21.8408 123.23 21.6637 123.297 21.5119C123.363 21.3597 123.539 21.2902 123.69 21.3566L123.696 21.3586L125.626 22.1943L125.633 22.1969C125.786 22.2634 125.858 22.4425 125.792 22.5969C125.725 22.7511 125.545 22.8221 125.392 22.7555L125.39 22.755Z" fill="#FA541C"/>
<path fill-rule="evenodd" clip-rule="evenodd" d="M121.53 21.0206L119.626 20.098C119.48 20.0277 119.419 19.8526 119.489 19.7071C119.559 19.5617 119.734 19.5007 119.879 19.5711L119.883 19.5729L121.782 20.4837L121.787 20.4861C121.935 20.5568 121.997 20.7339 121.925 20.8816C121.856 21.0292 121.679 21.0917 121.532 21.0209L121.53 21.0206Z" fill="#FA541C"/>
<path fill-rule="evenodd" clip-rule="evenodd" d="M117.738 19.1431L115.867 18.1555C115.728 18.082 115.674 17.9097 115.748 17.7705C115.821 17.6313 115.993 17.5779 116.132 17.6512L116.135 17.6529L118.006 18.6316C118.147 18.7055 118.202 18.88 118.128 19.0213C118.055 19.1626 117.88 19.2175 117.739 19.1436L117.738 19.1431Z" fill="#FA541C"/>
<path fill-rule="evenodd" clip-rule="evenodd" d="M114.011 17.1379L112.171 16.0923C112.038 16.0168 111.992 15.8476 112.067 15.7144C112.143 15.5814 112.312 15.5346 112.445 15.6103L112.447 15.6116L114.284 16.6463L114.287 16.6483C114.422 16.7244 114.47 16.8958 114.394 17.031C114.318 17.1663 114.147 17.2144 114.012 17.1381L114.011 17.1379Z" fill="#FA541C"/>
<path fill-rule="evenodd" clip-rule="evenodd" d="M110.346 15.0211L108.536 13.9263C108.406 13.8484 108.365 13.6803 108.443 13.5512C108.521 13.422 108.689 13.3802 108.818 13.4585L108.82 13.4602L110.626 14.5493L110.629 14.5511C110.759 14.6294 110.801 14.798 110.722 14.9277C110.644 15.0574 110.476 15.0992 110.346 15.0211Z" fill="#FA541C"/>
<path fill-rule="evenodd" clip-rule="evenodd" d="M106.739 12.8078L104.957 11.6662C104.831 11.5855 104.795 11.4178 104.875 11.2916C104.956 11.1654 105.123 11.1287 105.249 11.2094L105.252 11.2111L107.029 12.3472L107.032 12.349C107.158 12.4299 107.195 12.5983 107.115 12.7249C107.034 12.8516 106.865 12.8887 106.739 12.8078Z" fill="#FA541C"/>
<path fill-rule="evenodd" clip-rule="evenodd" d="M103.189 10.5025L101.437 9.31796C101.313 9.23486 101.281 9.06757 101.364 8.94431C101.447 8.82123 101.614 8.7888 101.737 8.8719L101.74 8.87356L103.488 10.0527L103.491 10.0546C103.615 10.1379 103.647 10.3057 103.564 10.4295C103.481 10.5531 103.313 10.5858 103.189 10.5025Z" fill="#FA541C"/>
<path fill-rule="evenodd" clip-rule="evenodd" d="M99.698 8.11271L97.9742 6.88857C97.8541 6.80326 97.8259 6.63671 97.9109 6.51639C97.9961 6.39608 98.1626 6.36771 98.2826 6.45301L98.285 6.45467L100.005 7.67346L100.007 7.67531C100.128 7.7608 100.157 7.92809 100.072 8.04877C99.986 8.16964 99.8187 8.1982 99.698 8.11271Z" fill="#FA541C"/>
<path fill-rule="evenodd" clip-rule="evenodd" d="M96.2425 5.70646L94.4419 4.63728L94.4276 4.62862C94.3019 4.554 94.2605 4.39168 94.335 4.26584C94.4095 4.14 94.5714 4.09836 94.6971 4.17298L96.5275 5.25782C96.6537 5.33244 96.6955 5.4955 96.6208 5.62189C96.5462 5.74829 96.3834 5.79011 96.2572 5.71531L96.2425 5.70646Z" fill="#FA541C"/>
<path fill-rule="evenodd" clip-rule="evenodd" d="M92.5778 3.68489L90.6411 2.84601C90.5082 2.78835 90.4469 2.63376 90.5045 2.50074C90.5619 2.36753 90.7161 2.30617 90.8492 2.36384L92.8019 3.20732C92.9355 3.26518 92.9971 3.42013 92.9395 3.55389C92.8819 3.68765 92.727 3.74919 92.5934 3.69152L92.5778 3.68489Z" fill="#FA541C"/>
<path fill-rule="evenodd" clip-rule="evenodd" d="M88.6859 2.14335L86.6746 1.5615L86.6586 1.55689C86.5206 1.51709 86.441 1.37264 86.4809 1.23427C86.5208 1.09609 86.6647 1.01631 86.8027 1.05629L88.8465 1.64514C88.985 1.68513 89.0651 1.82994 89.0251 1.96887C88.9854 2.10779 88.8406 2.18793 88.702 2.14795L88.6859 2.14335Z" fill="#FA541C"/>
<path fill-rule="evenodd" clip-rule="evenodd" d="M84.6308 1.10891L82.5621 0.786668L82.5459 0.784272C82.4052 0.762163 82.3087 0.630242 82.3306 0.489109C82.3523 0.348161 82.4841 0.251431 82.625 0.273356L84.7264 0.598552C84.8677 0.620293 84.9647 0.75295 84.9428 0.894636C84.9211 1.03632 84.7886 1.13342 84.6473 1.11131L84.6308 1.10891Z" fill="#FA541C"/>
<path fill-rule="evenodd" clip-rule="evenodd" d="M80.4771 0.597312L78.3841 0.539827L78.3681 0.539458C78.2268 0.535405 78.1153 0.417487 78.1192 0.275986C78.123 0.134484 78.2404 0.0230152 78.3817 0.0267001L80.5072 0.0830796C80.6491 0.0867645 80.761 0.205051 80.7573 0.347289C80.7536 0.489343 80.6355 0.601365 80.4936 0.59768L80.4771 0.597312Z" fill="#FA541C"/>
<path fill-rule="evenodd" clip-rule="evenodd" d="M76.291 0.615705L74.2076 0.824088L74.1917 0.825746C74.052 0.839749 73.9278 0.737861 73.9136 0.598018C73.8998 0.458359 74.0014 0.333808 74.1409 0.319805L76.256 0.106079C76.3962 0.091708 76.5212 0.194149 76.5353 0.334361C76.5495 0.474757 76.4474 0.59986 76.3074 0.613863L76.291 0.615705Z" fill="#FA541C"/>
<path fill-rule="evenodd" clip-rule="evenodd" d="M70.1018 1.63687L70.0862 1.64037C69.9506 1.67169 69.8155 1.58712 69.7842 1.45152C69.7529 1.31573 69.837 1.18049 69.9726 1.14917L72.0436 0.668099C72.1796 0.636409 72.3154 0.721346 72.3471 0.857505C72.3785 0.993663 72.2939 1.12982 72.1579 1.16133L70.1018 1.63687Z" fill="#FA541C"/>
<path fill-rule="evenodd" clip-rule="evenodd" d="M68.0956 2.23808L66.1167 2.97101C65.9874 3.01891 65.8437 2.95277 65.7958 2.82343C65.748 2.69372 65.8139 2.55001 65.9432 2.5021L67.9364 1.76162C68.0661 1.71334 68.2104 1.77967 68.2588 1.90957C68.3068 2.03964 68.2405 2.18409 68.1108 2.23237L68.0956 2.23808Z" fill="#FA541C"/>
<path fill-rule="evenodd" clip-rule="evenodd" d="M64.2194 3.8171L62.3757 4.80558L62.3599 4.81424C62.2392 4.87873 62.0893 4.8334 62.0247 4.71272C61.9603 4.59204 62.0054 4.44188 62.1259 4.37739L64.0009 3.36956C64.122 3.30434 64.2727 3.34985 64.3377 3.47108C64.4026 3.59213 64.3572 3.74303 64.2361 3.80807L64.2194 3.8171Z" fill="#FA541C"/>
<path fill-rule="evenodd" clip-rule="evenodd" d="M60.6068 5.92206L58.913 7.15393L58.9005 7.16314C58.7906 7.24292 58.6372 7.2186 58.5575 7.10879C58.4778 6.99879 58.5021 6.84531 58.6118 6.76535L60.3297 5.5134C60.4397 5.43325 60.5939 5.45757 60.6742 5.56775C60.7542 5.67811 60.7299 5.83251 60.6199 5.91284L60.6068 5.92206Z" fill="#FA541C"/>
<path fill-rule="evenodd" clip-rule="evenodd" d="M57.2956 8.48983L55.7622 9.91866L55.7519 9.92843C55.6535 10.02 55.4993 10.0145 55.4079 9.9159C55.3162 9.81733 55.3218 9.6633 55.42 9.57154L56.9729 8.12189C57.0717 8.02958 57.2265 8.03511 57.3185 8.13387C57.4105 8.23281 57.4051 8.38776 57.3063 8.48007L57.2956 8.48983Z" fill="#FA541C"/>
<path fill-rule="evenodd" clip-rule="evenodd" d="M54.314 11.4341L52.9532 13.0306L52.9441 13.0411C52.8577 13.1428 52.7053 13.1548 52.6039 13.068C52.5025 12.9814 52.4904 12.8291 52.5769 12.7277L53.9543 11.1088C54.0409 11.0065 54.1938 10.9943 54.296 11.0813C54.3977 11.1683 54.41 11.3214 54.3232 11.4235L54.314 11.4341Z" fill="#FA541C"/>
<path fill-rule="evenodd" clip-rule="evenodd" d="M50.5162 16.4458L50.5083 16.4574C50.4345 16.5674 50.2861 16.5967 50.1764 16.5229C50.0666 16.4492 50.0373 16.3007 50.1109 16.1908L51.2931 14.4234C51.367 14.313 51.5162 14.2835 51.6264 14.3574C51.7367 14.4315 51.7661 14.5807 51.6923 14.6914L50.5162 16.4458Z" fill="#FA541C"/>
<path fill-rule="evenodd" clip-rule="evenodd" d="M49.4545 18.2551L48.5073 20.1265L48.5003 20.1401C48.4412 20.2569 48.2986 20.3037 48.1818 20.2444C48.065 20.1851 48.0182 20.0427 48.0775 19.9257L49.0365 18.0263C49.0957 17.9087 49.239 17.8615 49.3563 17.9211C49.4738 17.9804 49.5207 18.1239 49.4615 18.2415L49.4545 18.2551Z" fill="#FA541C"/>
<path fill-rule="evenodd" clip-rule="evenodd" d="M47.6844 22.056L46.9976 24.0361L46.9921 24.0522C46.9494 24.175 46.8156 24.2399 46.6931 24.1972C46.5703 24.1548 46.5054 24.0208 46.5481 23.8981L47.2439 21.8854C47.2866 21.762 47.4211 21.6968 47.5442 21.7393C47.6675 21.7821 47.7326 21.9167 47.6899 22.04L47.6844 22.056Z" fill="#FA541C"/>
<path fill-rule="evenodd" clip-rule="evenodd" d="M46.4595 26.0612L46.0829 28.1207L46.0794 28.1397C46.0562 28.2662 45.9349 28.3501 45.8085 28.3268C45.6819 28.3036 45.5982 28.1824 45.6214 28.0558L46.0028 25.9584C46.026 25.831 46.1478 25.7467 46.2748 25.7699C46.4019 25.7931 46.4862 25.9151 46.463 26.0424L46.4595 26.0612Z" fill="#FA541C"/>
<path fill-rule="evenodd" clip-rule="evenodd" d="M45.8802 30.2028L45.8671 32.2935L45.8669 32.315C45.8662 32.4427 45.7624 32.5453 45.6349 32.5448C45.5076 32.5438 45.4049 32.4401 45.4058 32.3124L45.4169 30.1789C45.4176 30.0506 45.5218 29.9473 45.6498 29.948C45.7779 29.9487 45.8811 30.053 45.8804 30.1811L45.8802 30.2028Z" fill="#FA541C"/>
<path fill-rule="evenodd" clip-rule="evenodd" d="M46.0535 34.3755L46.4445 36.4275L46.4489 36.4501C46.4724 36.5743 46.3913 36.6941 46.2673 36.7179C46.1433 36.7416 46.0237 36.6604 46 36.5362L45.5983 34.4391C45.5744 34.3146 45.6559 34.1941 45.7803 34.1701C45.905 34.1462 46.0252 34.2278 46.0491 34.3525L46.0535 34.3755Z" fill="#FA541C"/>
<path fill-rule="evenodd" clip-rule="evenodd" d="M47.841 40.3593L47.8496 40.3805C47.8975 40.4962 47.8426 40.6289 47.7271 40.6768C47.6116 40.7247 47.4793 40.6701 47.4314 40.5542L46.6134 38.5821C46.565 38.466 46.62 38.3326 46.7361 38.2843C46.8522 38.236 46.9852 38.2911 47.0334 38.4072L47.841 40.3593Z" fill="#FA541C"/>
<path fill-rule="evenodd" clip-rule="evenodd" d="M48.8558 42.1699C49.2426 42.7422 49.6805 43.2789 50.1693 43.7642C50.2575 43.8515 50.258 43.9939 50.1708 44.0822C50.0834 44.1705 49.9414 44.1712 49.8532 44.0839C49.3417 43.577 48.8845 43.0176 48.4819 42.4232C48.412 42.3201 48.4389 42.1797 48.5421 42.1095C48.6451 42.0395 48.7857 42.0667 48.8558 42.1699Z" fill="#FA541C"/>
<path fill-rule="evenodd" clip-rule="evenodd" d="M51.7818 45.0485C52.3634 45.4141 52.987 45.7118 53.6368 45.9336C53.7531 45.9732 53.8153 46.0998 53.7756 46.2165C53.736 46.3329 53.6098 46.3952 53.4933 46.3556C52.8107 46.1232 52.1553 45.8111 51.5445 45.4281C51.4396 45.3625 51.4079 45.2243 51.4734 45.1194C51.5389 45.0146 51.6771 44.9827 51.7818 45.0485Z" fill="#FA541C"/>
<path fill-rule="evenodd" clip-rule="evenodd" d="M55.6462 46.3699C56.3299 46.4402 57.0217 46.4349 57.7061 46.3599C57.8272 46.3466 57.9359 46.4342 57.9494 46.5552C57.9624 46.6764 57.8754 46.7853 57.7543 46.7988C57.0405 46.8777 56.3174 46.8841 55.6013 46.8113C55.4795 46.7988 55.3908 46.6899 55.4033 46.5681C55.4156 46.4463 55.5244 46.3575 55.6462 46.3699Z" fill="#FA541C"/>
<path fill-rule="evenodd" clip-rule="evenodd" d="M59.7258 45.9339C60.3841 45.7275 61.0235 45.4594 61.6349 45.1376C61.7416 45.0814 61.8737 45.1226 61.9298 45.2295C61.9859 45.3362 61.9451 45.4683 61.8384 45.5245C61.2047 45.8589 60.5412 46.1378 59.8569 46.353C59.7414 46.3893 59.6181 46.325 59.5819 46.2093C59.5456 46.0936 59.6102 45.9703 59.7258 45.9339Z" fill="#FA541C"/>
<path fill-rule="evenodd" clip-rule="evenodd" d="M63.378 44.0188C63.9256 43.5969 64.4376 43.1286 64.9079 42.6211C64.989 42.5336 65.1259 42.5285 65.2135 42.6099C65.3009 42.6912 65.3062 42.8282 65.2249 42.9158C64.739 43.441 64.2096 43.9262 63.6433 44.3638C63.5482 44.4369 63.4119 44.4194 63.3386 44.3243C63.2652 44.2291 63.2831 44.0922 63.378 44.0188Z" fill="#FA541C"/>
<path fill-rule="evenodd" clip-rule="evenodd" d="M66.1882 40.9896L66.714 40.0926C66.9001 39.7999 67.0386 39.4798 67.1941 39.1694L67.2003 39.1569C67.2533 39.0511 67.3819 39.0084 67.4875 39.0612C67.5933 39.1143 67.636 39.2429 67.5832 39.3485C67.4239 39.6683 67.2815 39.9965 67.0901 40.3003L66.5472 41.2272C66.4872 41.3297 66.3556 41.3641 66.2531 41.3039C66.1508 41.2438 66.1164 41.1121 66.1764 41.0095L66.1882 40.9896Z" fill="#FA541C"/>
<path fill-rule="evenodd" clip-rule="evenodd" d="M67.9185 37.2199C68.1078 36.5532 68.2417 35.8709 68.3117 35.1822C68.3234 35.0655 68.4276 34.9806 68.5441 34.9926C68.6605 35.0042 68.7453 35.1083 68.7336 35.2249C68.6618 35.9398 68.5236 36.6469 68.3282 37.3366C68.2962 37.4499 68.1785 37.5158 68.0653 37.4836C67.952 37.4515 67.8864 37.3334 67.9185 37.2199Z" fill="#FA541C"/>
<path fill-rule="evenodd" clip-rule="evenodd" d="M68.3259 33.1154C68.2643 32.4272 68.1353 31.7455 67.9421 31.0821C67.9096 30.9706 67.9734 30.854 68.0847 30.8215C68.196 30.7889 68.3125 30.8527 68.3451 30.9641C68.5465 31.6532 68.6814 32.362 68.746 33.0775C68.7567 33.1935 68.6711 33.2963 68.555 33.3068C68.4391 33.3173 68.3364 33.2315 68.3259 33.1154Z" fill="#FA541C"/>
<path fill-rule="evenodd" clip-rule="evenodd" d="M67.1779 29.1572C66.8649 28.5403 66.4962 27.9515 66.0822 27.3963C66.0134 27.3042 66.0324 27.1737 66.1244 27.1052C66.2162 27.0363 66.3463 27.0551 66.4151 27.147C66.8432 27.72 67.2252 28.3286 67.5501 28.9676C67.6026 29.0704 67.5617 29.1964 67.4588 29.2487C67.356 29.3012 67.2303 29.2602 67.1779 29.1572Z" fill="#FA541C"/>
<path fill-rule="evenodd" clip-rule="evenodd" d="M64.7122 25.8329C64.2167 25.3473 63.6853 24.8977 63.1265 24.4852C63.0351 24.4175 63.0155 24.2886 63.0831 24.197C63.1504 24.1054 63.279 24.0859 63.3705 24.1533C63.9444 24.5762 64.4908 25.0375 65.0014 25.5368C65.0829 25.6168 65.0846 25.7478 65.0049 25.8296C64.9251 25.9114 64.7939 25.9129 64.7122 25.8329Z" fill="#FA541C"/>
<path fill-rule="evenodd" clip-rule="evenodd" d="M61.3761 23.3598C60.7689 23.0213 60.1411 22.7195 59.4979 22.4544C59.3939 22.4116 59.3444 22.2924 59.3871 22.1883C59.4298 22.0842 59.5487 22.0343 59.6528 22.0772C60.3104 22.3475 60.9531 22.6556 61.5752 23.0018C61.674 23.0567 61.7097 23.1816 61.6547 23.2803C61.5996 23.3793 61.4749 23.4149 61.3761 23.3598Z" fill="#FA541C"/>
<path fill-rule="evenodd" clip-rule="evenodd" d="M57.5264 21.768C56.8589 21.5734 56.1684 21.4474 55.4907 21.2834L55.4745 21.2796C55.3638 21.2527 55.2955 21.1408 55.3224 21.0299C55.3491 20.9188 55.4608 20.8504 55.5717 20.8773H55.5724C56.2608 21.0461 56.954 21.1815 57.6379 21.3779C57.7458 21.4083 57.8083 21.5204 57.7781 21.6281C57.7478 21.7359 57.6359 21.7988 57.5281 21.7685L57.5264 21.768Z" fill="#FA541C"/>
<path fill-rule="evenodd" clip-rule="evenodd" d="M53.422 20.946L51.3355 20.7448L51.3217 20.7435C51.2017 20.7319 51.1138 20.6251 51.1254 20.5047C51.137 20.3846 51.2437 20.2966 51.3637 20.308L51.3649 20.3082L53.4776 20.5237C53.5944 20.5357 53.6794 20.6402 53.6675 20.7572C53.6557 20.8736 53.5521 20.9585 53.4358 20.9473L53.422 20.946Z" fill="#FA541C"/>
<path fill-rule="evenodd" clip-rule="evenodd" d="M49.2395 20.6731L47.1431 20.7247L47.13 20.7251C47.003 20.7282 46.8974 20.6276 46.8943 20.5003C46.8912 20.3732 46.9916 20.2674 47.1188 20.2643H47.1201L49.2428 20.2238C49.3666 20.2215 49.4689 20.3201 49.4713 20.4441C49.4735 20.5677 49.3758 20.6698 49.2526 20.6728L49.2395 20.6731Z" fill="#FA541C"/>
<path fill-rule="evenodd" clip-rule="evenodd" d="M45.0546 20.8944L42.9766 21.178L42.9637 21.1796C42.8315 21.1977 42.7095 21.105 42.6914 20.9724C42.6734 20.8399 42.7661 20.7179 42.8984 20.6999L42.8997 20.6997L45.0048 20.4244C45.134 20.4075 45.2524 20.4987 45.2694 20.628C45.2861 20.757 45.1958 20.8751 45.0673 20.8926L45.0546 20.8944Z" fill="#FA541C"/>
<path fill-rule="evenodd" clip-rule="evenodd" d="M40.9164 21.5704L38.8805 22.0732L38.8676 22.0765C38.7317 22.11 38.5942 22.0269 38.5607 21.8908C38.5273 21.7546 38.6102 21.617 38.7462 21.5837L38.7475 21.5833L40.8119 21.0856C40.9449 21.0534 41.0787 21.1354 41.1107 21.2686C41.1425 21.4012 41.0614 21.5346 40.9293 21.5672L40.9164 21.5704Z" fill="#FA541C"/>
<path fill-rule="evenodd" clip-rule="evenodd" d="M36.8737 22.684L34.9038 23.4013L34.8902 23.4062C34.7526 23.4564 34.6004 23.3854 34.5504 23.2474C34.5003 23.1096 34.5714 22.9572 34.709 22.9071L34.7105 22.9067L36.711 22.1908C36.8459 22.1423 36.9942 22.2127 37.0424 22.3479C37.0904 22.4824 37.0209 22.6304 36.8869 22.6792L36.8737 22.684Z" fill="#FA541C"/>
<path fill-rule="evenodd" clip-rule="evenodd" d="M32.9784 24.2267L31.1039 25.1612L31.0892 25.1686C30.9523 25.237 30.7859 25.1811 30.7179 25.0441C30.6498 24.907 30.7055 24.7406 30.8422 24.6722L30.8437 24.6717L32.7525 23.7333C32.8868 23.6672 33.0493 23.7228 33.1151 23.8573C33.1808 23.9913 33.126 24.1532 32.9928 24.2197L32.9784 24.2267Z" fill="#FA541C"/>
<path fill-rule="evenodd" clip-rule="evenodd" d="M29.291 26.2064L27.5469 27.362L27.5329 27.3714C27.3999 27.4595 27.221 27.423 27.1331 27.2898C27.0451 27.1568 27.0816 26.9777 27.2144 26.8896L27.2157 26.8887L28.9947 25.724C29.1254 25.6384 29.3005 25.6752 29.3859 25.806C29.4711 25.9363 29.4348 26.111 29.3053 26.1968L29.291 26.2064Z" fill="#FA541C"/>
<path fill-rule="evenodd" clip-rule="evenodd" d="M25.8682 28.6154L24.2522 29.9516L24.2415 29.9606C24.1136 30.0662 23.9243 30.0481 23.8189 29.9201C23.7133 29.792 23.7313 29.6024 23.8592 29.4968L23.8605 29.4957L25.5055 28.1507C25.6316 28.0479 25.8169 28.0665 25.9197 28.1928C26.0222 28.3184 26.004 28.5032 25.8792 28.6062L25.8682 28.6154Z" fill="#FA541C"/>
<path fill-rule="evenodd" clip-rule="evenodd" d="M21.1888 32.8387C21.0657 32.9596 20.8683 32.9576 20.7476 32.8343C20.627 32.7111 20.6289 32.5134 20.752 32.3927L20.7533 32.3914L22.2762 30.913C22.3976 30.7951 22.5913 30.7982 22.7091 30.9196C22.8263 31.0407 22.8237 31.234 22.7036 31.3519L21.1888 32.8387Z" fill="#FA541C"/>
<path fill-rule="evenodd" clip-rule="evenodd" d="M19.7549 34.3555L18.3638 35.9301L18.3568 35.9379C18.2385 36.0718 18.0342 36.0843 17.9005 35.9659C17.7669 35.8474 17.7544 35.6429 17.8727 35.5091L17.8738 35.5078L19.2872 33.9248C19.4041 33.7938 19.6048 33.7825 19.7356 33.8995C19.8661 34.0163 19.8777 34.2164 19.7619 34.3474L19.7549 34.3555Z" fill="#FA541C"/>
<path fill-rule="evenodd" clip-rule="evenodd" d="M17.023 37.549L15.7312 39.2072L15.7253 39.2149C15.6119 39.3605 15.4018 39.3865 15.2563 39.2728C15.1107 39.1591 15.0848 38.9489 15.1983 38.8031L15.1994 38.8017L16.5118 37.1351C16.6241 36.9924 16.8309 36.9678 16.9733 37.0804C17.1153 37.1926 17.1402 37.3986 17.029 37.5412L17.023 37.549Z" fill="#FA541C"/>
<path fill-rule="evenodd" clip-rule="evenodd" d="M14.487 40.9017L13.2888 42.6296L13.2835 42.6371C13.1747 42.7939 12.9597 42.8328 12.8031 42.7239C12.6465 42.615 12.6077 42.3996 12.7164 42.2429L12.7175 42.2414L13.9352 40.5047C14.043 40.351 14.255 40.3138 14.4084 40.4218C14.5615 40.5295 14.5987 40.7405 14.4923 40.8942L14.487 40.9017Z" fill="#FA541C"/>
<path fill-rule="evenodd" clip-rule="evenodd" d="M12.1347 44.3897L11.0268 46.1777L11.0222 46.1852C10.9185 46.3525 10.6988 46.4041 10.5317 46.3002C10.3645 46.1965 10.3131 45.9765 10.4167 45.809L10.4176 45.8073L11.5442 44.0104C11.6473 43.846 11.8638 43.7963 12.0278 43.8996C12.1913 44.0023 12.2412 44.218 12.1395 44.3822L12.1347 44.3897Z" fill="#FA541C"/>
<path fill-rule="evenodd" clip-rule="evenodd" d="M9.96411 47.9908L8.94643 49.832L8.94201 49.8399C8.84376 50.0177 8.62021 50.0818 8.44284 49.9836C8.26528 49.8852 8.20107 49.6614 8.29932 49.4836L8.30024 49.4819L9.33632 47.6304C9.4342 47.4559 9.65444 47.3939 9.82887 47.4917C10.0026 47.5892 10.0648 47.8088 9.96852 47.9829L9.96411 47.9908Z" fill="#FA541C"/>
<path fill-rule="evenodd" clip-rule="evenodd" d="M7.04907 53.588L7.04484 53.5965C6.95303 53.7846 6.72635 53.8622 6.53867 53.7699C6.35119 53.6779 6.27354 53.4509 6.36554 53.2632L6.36646 53.2612L7.30979 51.3601C7.40142 51.1753 7.62516 51.0999 7.80952 51.1917C7.99333 51.2831 8.06858 51.5058 7.97842 51.6901L7.04907 53.588Z" fill="#FA541C"/>
<path fill-rule="evenodd" clip-rule="evenodd" d="M6.17282 55.499L5.34669 57.433L5.34245 57.4428C5.258 57.6409 5.02911 57.7328 4.83151 57.6479C4.63371 57.5633 4.54208 57.3343 4.62654 57.1362L4.62745 57.1344L5.4718 55.1856C5.55626 54.9909 5.7822 54.9015 5.97668 54.9861C6.17043 55.0703 6.25967 55.2954 6.17687 55.4896L6.17282 55.499Z" fill="#FA541C"/>
<path fill-rule="evenodd" clip-rule="evenodd" d="M4.57352 59.3899L3.85761 61.3663L3.85337 61.3777C3.77793 61.5857 3.54831 61.6931 3.34059 61.6178C3.13267 61.5422 3.0254 61.3123 3.10066 61.1043L3.10139 61.1023L3.83589 59.1074C3.91133 58.9027 4.13819 58.7977 4.34279 58.8732C4.54666 58.9486 4.65154 59.1747 4.57739 59.379L4.57352 59.3899Z" fill="#FA541C"/>
<path fill-rule="evenodd" clip-rule="evenodd" d="M3.20452 63.3615L2.6174 65.3772L2.61335 65.391C2.54969 65.6093 2.32136 65.7348 2.10332 65.6711C1.88529 65.6077 1.75999 65.3787 1.82365 65.1603L1.82402 65.1583L2.42973 63.1183C2.49376 62.9033 2.7197 62.7808 2.93442 62.8447C3.14859 62.9087 3.27076 63.1334 3.20839 63.3479L3.20452 63.3615Z" fill="#FA541C"/>
<path fill-rule="evenodd" clip-rule="evenodd" d="M2.10398 67.4119L1.67601 69.4622L1.67307 69.4768C1.62523 69.7049 1.40186 69.8515 1.17389 69.8036C0.945739 69.7559 0.799096 69.5341 0.84675 69.3058C0.98861 68.6097 1.14409 67.9164 1.29202 67.2216C1.34004 66.9963 1.56157 66.8525 1.78659 66.9004C2.0118 66.9487 2.15532 67.1704 2.1073 67.3959L2.10398 67.4119Z" fill="#FA541C"/>
<path fill-rule="evenodd" clip-rule="evenodd" d="M1.33468 71.5274L1.08684 73.626C1.05979 73.8554 0.852248 74.0193 0.623176 73.9923C0.394104 73.965 0.230348 73.7581 0.257396 73.5285L0.503396 71.4099C0.530075 71.1792 0.738538 71.0141 0.968714 71.0408C1.19907 71.0677 1.36393 71.2763 1.33725 71.5068L1.33707 71.5077L1.33468 71.5274Z" fill="#FA541C"/>
<path fill-rule="evenodd" clip-rule="evenodd" d="M0.944888 75.6952L0.909743 77.8091C0.90588 78.0378 0.71784 78.2198 0.489506 78.2161C0.261172 78.2122 0.0792044 78.0247 0.0830682 77.796L0.114532 75.6602C0.117844 75.4307 0.306619 75.247 0.536057 75.2505C0.765495 75.2538 0.94875 75.4428 0.945438 75.6728V75.6735L0.944888 75.6952Z" fill="#FA541C"/>
<path fill-rule="evenodd" clip-rule="evenodd" d="M0.987616 79.8763L1.18008 81.9574L1.18228 81.9804C1.20307 82.2057 1.03748 82.4055 0.812455 82.4263C0.58743 82.4471 0.388163 82.282 0.367371 82.0567L0.166633 79.9301C0.145106 79.7035 0.31107 79.5027 0.537199 79.4813C0.763328 79.4597 0.964066 79.6261 0.98541 79.8525L0.985592 79.8533L0.987616 79.8763Z" fill="#FA541C"/>
<path fill-rule="evenodd" clip-rule="evenodd" d="M1.48916 84.0234L1.91657 86.0682L1.92136 86.0909C1.96717 86.3103 1.82679 86.5251 1.60783 86.571C1.38888 86.6169 1.17453 86.4772 1.12871 86.2578L0.687681 84.1684C0.641314 83.9482 0.781887 83.7319 1.00194 83.6853C1.22182 83.6387 1.43782 83.7797 1.48437 83.9998L1.48456 84.0006L1.48916 84.0234Z" fill="#FA541C"/>
<path fill-rule="evenodd" clip-rule="evenodd" d="M2.46149 88.0833L3.12718 90.088C3.19691 90.2985 3.0832 90.5258 2.87326 90.5955C2.66314 90.6655 2.43647 90.5523 2.36673 90.3421L1.68982 88.3167C1.61935 88.1052 1.73306 87.8767 1.9441 87.8061C2.15514 87.7354 2.38347 87.8493 2.45413 88.0608L2.46149 88.0833Z" fill="#FA541C"/>
<path fill-rule="evenodd" clip-rule="evenodd" d="M3.88939 92.0106L4.77274 93.9294C4.86437 94.1285 4.77753 94.3646 4.57863 94.4563C4.37973 94.5482 4.14422 94.462 4.05259 94.2627L3.15636 92.3262C3.06362 92.1262 3.15065 91.8889 3.35047 91.796C3.55029 91.7033 3.78727 91.7905 3.88 91.9904L3.88019 91.9911L3.88939 92.0106Z" fill="#FA541C"/>
<path fill-rule="evenodd" clip-rule="evenodd" d="M5.73632 95.7605L6.8136 97.5769C6.92418 97.7636 6.86291 98.0048 6.67653 98.1157C6.49014 98.2264 6.24966 98.1658 6.13908 97.979L5.048 96.1477C4.93632 95.9605 4.99759 95.7177 5.18471 95.606C5.37183 95.4942 5.61415 95.5554 5.72583 95.7429L5.7262 95.7437L5.73632 95.7605Z" fill="#FA541C"/>
<path fill-rule="evenodd" clip-rule="evenodd" d="M7.95776 99.307L9.19126 101L9.20138 101.014C9.32779 101.187 9.28988 101.43 9.11656 101.557C8.94342 101.683 8.70073 101.646 8.57433 101.473L7.31691 99.7544C7.18958 99.5801 7.2273 99.3356 7.40118 99.2077C7.57505 99.0802 7.8194 99.1178 7.9469 99.2921L7.94746 99.2928L7.95776 99.307Z" fill="#FA541C"/>
<path fill-rule="evenodd" clip-rule="evenodd" d="M10.4972 102.639L11.87 104.223L11.88 104.235C12.0191 104.395 12.0018 104.638 11.8415 104.777C11.6812 104.917 11.4391 104.9 11.3 104.739L9.90403 103.135C9.76383 102.974 9.78057 102.729 9.94157 102.589C10.1024 102.449 10.3465 102.466 10.4866 102.627L10.4871 102.627L10.4972 102.639Z" fill="#FA541C"/>
<path fill-rule="evenodd" clip-rule="evenodd" d="M13.3036 105.754L14.7902 107.233L14.7994 107.242C14.9485 107.39 14.9492 107.631 14.8015 107.78C14.6535 107.929 14.4134 107.93 14.2644 107.782L12.756 106.288C12.6059 106.14 12.6046 105.897 12.7531 105.747C12.9014 105.597 13.1433 105.595 13.2934 105.744L13.294 105.745L13.3036 105.754Z" fill="#FA541C"/>
<path fill-rule="evenodd" clip-rule="evenodd" d="M16.3275 108.661L17.909 110.042L17.9176 110.049C18.074 110.186 18.0904 110.423 17.9538 110.58C17.8175 110.737 17.5807 110.754 17.4241 110.617L15.8226 109.225C15.665 109.088 15.648 108.849 15.7849 108.691C15.9218 108.533 16.1605 108.516 16.3181 108.653L16.3187 108.654L16.3275 108.661Z" fill="#FA541C"/>
<path fill-rule="evenodd" clip-rule="evenodd" d="M19.5313 111.374L21.1902 112.663L21.1979 112.669C21.3602 112.795 21.3897 113.029 21.2638 113.192C21.138 113.354 20.905 113.384 20.7427 113.258L19.0656 111.96C18.9023 111.833 18.8721 111.598 18.9985 111.434C19.1247 111.271 19.3595 111.241 19.5229 111.367L19.5234 111.368L19.5313 111.374Z" fill="#FA541C"/>
<path fill-rule="evenodd" clip-rule="evenodd" d="M22.8822 113.911L24.6043 115.117L24.6113 115.122C24.7777 115.239 24.8183 115.468 24.7019 115.635C24.5856 115.801 24.3571 115.842 24.1905 115.726L22.4518 114.514C22.2844 114.397 22.243 114.166 22.3598 113.998C22.4765 113.83 22.7068 113.789 22.8744 113.906L22.875 113.906L22.8822 113.911Z" fill="#FA541C"/>
<path fill-rule="evenodd" clip-rule="evenodd" d="M26.3542 116.29L28.1149 117.455C28.2827 117.565 28.3296 117.791 28.2196 117.959C28.1095 118.127 27.8838 118.174 27.7158 118.064L25.9504 116.9C25.7818 116.789 25.7351 116.562 25.846 116.393C25.957 116.225 26.1837 116.178 26.3522 116.289L26.3542 116.29Z" fill="#FA541C"/>
<path fill-rule="evenodd" clip-rule="evenodd" d="M29.8794 118.615L31.6459 119.771C31.8122 119.879 31.8592 120.103 31.7508 120.269C31.6424 120.435 31.4202 120.482 31.254 120.374L29.4842 119.221C29.3169 119.112 29.2694 118.888 29.3784 118.721C29.4873 118.553 29.711 118.506 29.8783 118.614L29.8794 118.615Z" fill="#FA541C"/>
<path fill-rule="evenodd" clip-rule="evenodd" d="M33.4141 120.927L35.1803 122.083C35.3446 122.191 35.3906 122.411 35.2833 122.576C35.1758 122.74 34.956 122.786 34.7919 122.679L33.0242 121.526C32.8586 121.419 32.8115 121.197 32.919 121.031C33.0264 120.866 33.2476 120.819 33.4132 120.926L33.4141 120.927Z" fill="#FA541C"/>
<path fill-rule="evenodd" clip-rule="evenodd" d="M36.9443 123.244L38.7038 124.412C38.8654 124.519 38.9095 124.737 38.8026 124.899C38.6955 125.06 38.4771 125.104 38.3154 124.997L36.5562 123.835C36.393 123.728 36.3472 123.509 36.4539 123.346C36.5605 123.182 36.7794 123.136 36.9426 123.243L36.9443 123.244Z" fill="#FA541C"/>
<path fill-rule="evenodd" clip-rule="evenodd" d="M40.4562 125.587L42.2021 126.775C42.3605 126.883 42.4018 127.098 42.2941 127.257C42.1867 127.416 41.971 127.457 41.8126 127.349L41.811 127.348L40.0667 126.167L40.0649 126.166C39.9052 126.057 39.8634 125.84 39.9712 125.681C40.0792 125.521 40.296 125.479 40.4557 125.587L40.4562 125.587Z" fill="#FA541C"/>
<path fill-rule="evenodd" clip-rule="evenodd" d="M43.9425 127.977L45.6704 129.196C45.8249 129.305 45.8619 129.519 45.753 129.674C45.6441 129.829 45.4305 129.866 45.2757 129.757L45.2735 129.756L43.5488 128.544L43.546 128.542C43.3903 128.433 43.3526 128.217 43.4619 128.061C43.5712 127.905 43.7861 127.868 43.9419 127.977L43.9425 127.977Z" fill="#FA541C"/>
<path fill-rule="evenodd" clip-rule="evenodd" d="M47.3825 130.433L49.0817 131.69C49.232 131.801 49.2636 132.013 49.1525 132.164C49.0416 132.314 48.8298 132.346 48.6795 132.235L48.6763 132.233L46.9819 130.984L46.9784 130.982C46.827 130.87 46.7945 130.657 46.906 130.505C47.0175 130.353 47.2305 130.321 47.3819 130.432L47.3825 130.433Z" fill="#FA541C"/>
<path fill-rule="evenodd" clip-rule="evenodd" d="M50.766 132.969L52.4312 134.275C52.5763 134.389 52.6019 134.6 52.488 134.745C52.3743 134.891 52.1642 134.916 52.019 134.802L52.0153 134.799L50.3557 133.503L50.3519 133.5C50.2054 133.385 50.1793 133.174 50.2935 133.027C50.4076 132.88 50.619 132.854 50.7655 132.969L50.766 132.969Z" fill="#FA541C"/>
<path fill-rule="evenodd" clip-rule="evenodd" d="M54.0768 135.602L55.7083 136.945C55.849 137.061 55.8695 137.269 55.7537 137.41C55.638 137.551 55.4301 137.572 55.2892 137.456L55.2866 137.453L53.6584 136.119L53.6555 136.116C53.5136 136 53.4926 135.79 53.6089 135.648C53.725 135.506 53.9344 135.485 54.0763 135.601L54.0768 135.602Z" fill="#FA541C"/>
<path fill-rule="evenodd" clip-rule="evenodd" d="M57.3252 138.313L58.9199 139.705C59.0555 139.823 59.0696 140.029 58.9513 140.165C58.8332 140.301 58.6273 140.315 58.4917 140.196L58.4879 140.193L56.8989 138.812L56.8947 138.808C56.758 138.689 56.7432 138.482 56.8621 138.345C56.9808 138.208 57.1879 138.193 57.3246 138.312L57.3252 138.313Z" fill="#FA541C"/>
<path fill-rule="evenodd" clip-rule="evenodd" d="M60.4892 141.124L62.0298 142.578C62.1592 142.7 62.1652 142.904 62.0432 143.034C61.9214 143.163 61.7179 143.169 61.5886 143.047L61.5838 143.043L60.0506 141.601L60.0456 141.596C59.9152 141.474 59.9087 141.268 60.0311 141.138C60.1535 141.008 60.3584 141.001 60.4887 141.124L60.4892 141.124Z" fill="#FA541C"/>
<path fill-rule="evenodd" clip-rule="evenodd" d="M63.537 144.07L65.0049 145.6C65.1264 145.727 65.1223 145.928 64.9957 146.05C64.8693 146.171 64.6684 146.167 64.547 146.041L64.5413 146.035L63.0825 144.52L63.0765 144.514C62.9539 144.387 62.9576 144.184 63.0847 144.062C63.2117 143.939 63.4141 143.942 63.5364 144.07L63.537 144.07Z" fill="#FA541C"/>
<path fill-rule="evenodd" clip-rule="evenodd" d="M66.4268 147.173L67.7989 148.793C67.9108 148.925 67.8946 149.123 67.7626 149.235C67.6307 149.347 67.4331 149.331 67.3211 149.199L67.3144 149.191L65.953 147.591L65.9462 147.583C65.8333 147.45 65.8491 147.251 65.9817 147.137C66.1144 147.024 66.3133 147.04 66.4263 147.173L66.4268 147.173Z" fill="#FA541C"/>
<path fill-rule="evenodd" clip-rule="evenodd" d="M69.1139 150.46L70.3619 152.179C70.4624 152.318 70.4319 152.511 70.2937 152.611C70.1557 152.712 69.9625 152.681 69.862 152.543L69.8549 152.533L68.6184 150.837L68.6109 150.827C68.5097 150.688 68.54 150.493 68.6787 150.391C68.8175 150.29 69.0122 150.32 69.1135 150.459L69.1139 150.46Z" fill="#FA541C"/>
<path fill-rule="evenodd" clip-rule="evenodd" d="M71.5355 153.953L72.6259 155.778C72.7122 155.923 72.6651 156.111 72.5206 156.197C72.3762 156.284 72.189 156.236 72.1026 156.092L72.095 156.079L71.0166 154.281L71.0091 154.269C70.9217 154.123 70.9686 153.934 71.114 153.847C71.2593 153.76 71.4481 153.807 71.5355 153.953Z" fill="#FA541C"/>
<path fill-rule="evenodd" clip-rule="evenodd" d="M73.6224 157.656L74.5142 159.588C74.5832 159.737 74.5183 159.914 74.3692 159.983C74.2208 160.051 74.0451 159.987 73.9757 159.839L73.9685 159.824L73.0806 157.927L73.0734 157.912C73.0024 157.76 73.0677 157.58 73.2191 157.509C73.3704 157.438 73.5507 157.503 73.6217 157.654L73.6224 157.656Z" fill="#FA541C"/>
<path fill-rule="evenodd" clip-rule="evenodd" d="M75.2955 161.569L75.9559 163.593C76.0048 163.743 75.9231 163.905 75.7731 163.954C75.6239 164.002 75.4635 163.921 75.4138 163.772L75.4083 163.756L74.7479 161.769L74.7424 161.752C74.6914 161.599 74.7741 161.434 74.9268 161.383C75.0793 161.332 75.2443 161.415 75.2951 161.568L75.2955 161.569Z" fill="#FA541C"/>
<path fill-rule="evenodd" clip-rule="evenodd" d="M76.488 165.654L76.8893 167.745C76.9178 167.895 76.8207 168.038 76.6722 168.068C76.5241 168.095 76.3813 168 76.3518 167.85L76.3485 167.834L75.9425 165.779L75.9391 165.762C75.9092 165.61 76.0076 165.462 76.1592 165.432C76.3106 165.403 76.4578 165.501 76.4876 165.653L76.488 165.654Z" fill="#FA541C"/>
<path fill-rule="evenodd" clip-rule="evenodd" d="M77.1572 169.857L77.2879 171.984C77.2967 172.129 77.1869 172.254 77.0424 172.262C76.8984 172.271 76.7744 172.162 76.7648 172.019L76.7635 172.002L76.6224 169.892C76.6124 169.745 76.7241 169.616 76.8719 169.607C77.0196 169.598 77.1473 169.708 77.1572 169.857Z" fill="#FA541C"/>
<path fill-rule="evenodd" clip-rule="evenodd" d="M77.2715 174.117L77.117 176.236C77.1069 176.374 76.9869 176.477 76.8489 176.468C76.7115 176.459 76.6081 176.339 76.6172 176.201L76.6182 176.188L76.7591 174.095L76.76 174.082C76.7696 173.94 76.8918 173.833 77.0331 173.843C77.1744 173.852 77.2811 173.975 77.2717 174.115L77.2715 174.117Z" fill="#FA541C"/>
<path fill-rule="evenodd" clip-rule="evenodd" d="M76.8635 178.344L76.5182 180.439C76.4969 180.57 76.374 180.658 76.2437 180.636C76.114 180.614 76.026 180.492 76.0466 180.363L76.0483 180.352L76.3787 178.276L76.3804 178.265C76.4017 178.132 76.527 178.04 76.6606 178.062C76.794 178.084 76.8851 178.209 76.8637 178.342L76.8635 178.344Z" fill="#FA541C"/>
<path fill-rule="evenodd" clip-rule="evenodd" d="M76.0796 182.517L75.5408 184.573C75.509 184.695 75.3848 184.767 75.2634 184.735C75.1425 184.704 75.07 184.581 75.1011 184.459L75.104 184.446L75.6255 182.412L75.6284 182.401C75.6604 182.276 75.7874 182.2 75.912 182.231C76.0367 182.265 76.1116 182.392 76.0796 182.517Z" fill="#FA541C"/>
<path fill-rule="evenodd" clip-rule="evenodd" d="M74.8851 186.596L74.086 188.571C74.0413 188.68 73.9156 188.734 73.8054 188.689C73.6956 188.645 73.6424 188.52 73.6862 188.409L74.4682 186.447L74.4745 186.43C74.5197 186.316 74.6485 186.261 74.762 186.307C74.8757 186.353 74.9309 186.482 74.8857 186.594L74.8851 186.596Z" fill="#FA541C"/>
<path fill-rule="evenodd" clip-rule="evenodd" d="M73.1059 190.468C72.7435 191.081 72.342 191.675 71.8892 192.231C71.818 192.318 71.6894 192.331 71.6022 192.26C71.5151 192.189 71.5021 192.062 71.5725 191.973C72.0068 191.435 72.3937 190.857 72.7442 190.256C72.8025 190.155 72.9309 190.121 73.031 190.18C73.1313 190.237 73.165 190.366 73.1067 190.468H73.1059Z" fill="#FA541C"/>
<path fill-rule="evenodd" clip-rule="evenodd" d="M70.3623 193.749C69.795 194.195 69.1628 194.567 68.4817 194.821C68.3821 194.858 68.2714 194.806 68.2342 194.707C68.1972 194.607 68.2476 194.497 68.3464 194.46C68.9847 194.219 69.5794 193.865 70.1168 193.437C70.2026 193.369 70.3273 193.384 70.3952 193.469C70.4633 193.555 70.4489 193.681 70.3632 193.749H70.3623Z" fill="#FA541C"/>
</g>
</g>
<defs>
<clipPath id="clip0_328_3302">
<rect width="358" height="269" fill="white"/>
</clipPath>
</defs>
</svg>
