<svg width="525" height="89" viewBox="0 0 525 89" fill="none" xmlns="http://www.w3.org/2000/svg">
<path d="M22.64 17.96C22.2933 15.7467 21.5467 14.08 20.4 12.96C19.28 11.84 17.7867 11.2667 15.92 11.24C14.5333 11.24 13.32 11.56 12.28 12.2C11.24 12.84 10.3733 13.6933 9.68 14.76C9.01333 15.8267 8.50667 17.04 8.16 18.4C7.84 19.76 7.68 21.16 7.68 22.6C7.68 24.8933 8 26.9333 8.64 28.72C9.30667 30.48 10.2667 31.8667 11.52 32.88C12.7733 33.8933 14.2933 34.4 16.08 34.4C17.76 34.4 19.4267 33.9733 21.08 33.12C22.7333 32.24 24.12 31.0267 25.24 29.48L27.16 31.24C25.8533 33.0267 24.48 34.3867 23.04 35.32C21.6 36.2267 20.1867 36.84 18.8 37.16C17.44 37.48 16.2133 37.64 15.12 37.64C13.0667 37.64 11.2 37.28 9.52 36.56C7.84 35.8133 6.38667 34.8 5.16 33.52C3.96 32.2133 3.02667 30.7067 2.36 29C1.72 27.2667 1.4 25.4 1.4 23.4C1.4 21.5867 1.69333 19.7867 2.28 18C2.86667 16.2133 3.73333 14.6 4.88 13.16C6.05333 11.6933 7.52 10.5333 9.28 9.68C11.04 8.8 13.08 8.36 15.4 8.36C16.44 8.36 17.5733 8.53333 18.8 8.88C20.0533 9.2 21.2267 9.68 22.32 10.32L22.16 8.64H25.24V17.96H22.64ZM38.9791 37.64C37.0591 37.64 35.3257 37.2267 33.7791 36.4C32.2324 35.5733 31.0057 34.4 30.0991 32.88C29.2191 31.3333 28.7791 29.52 28.7791 27.44C28.7791 25.2267 29.2324 23.2933 30.1391 21.64C31.0724 19.96 32.2991 18.6667 33.8191 17.76C35.3657 16.8267 37.0457 16.36 38.8591 16.36C40.7791 16.36 42.4991 16.7733 44.0191 17.6C45.5391 18.4267 46.7391 19.6133 47.6191 21.16C48.4991 22.68 48.9391 24.5067 48.9391 26.64C48.9391 28.88 48.5124 30.8267 47.6591 32.48C46.8057 34.1333 45.6324 35.4133 44.1391 36.32C42.6457 37.2 40.9257 37.64 38.9791 37.64ZM39.1391 34.8C40.2057 34.7733 41.0057 34.4 41.5391 33.68C42.0991 32.96 42.4857 32.0533 42.6991 30.96C42.9124 29.8667 43.0191 28.76 43.0191 27.64C43.0191 26.6533 42.9391 25.6533 42.7791 24.64C42.6457 23.6267 42.4191 22.7067 42.0991 21.88C41.7791 21.0533 41.3391 20.3867 40.7791 19.88C40.2457 19.3733 39.5791 19.1333 38.7791 19.16C37.7391 19.1867 36.9124 19.56 36.2991 20.28C35.7124 21 35.2857 21.9067 35.0191 23C34.7791 24.0667 34.6591 25.1867 34.6591 26.36C34.6591 27.72 34.8057 29.0533 35.0991 30.36C35.3924 31.6667 35.8591 32.7467 36.4991 33.6C37.1657 34.4267 38.0457 34.8267 39.1391 34.8ZM43.9391 14.52L38.8591 10.32H38.8191L33.6991 14.24L32.0191 12.32L38.8591 5.68H39.2591L45.6591 12.48L43.9391 14.52ZM51.8353 37V34.4C52.582 34.4 53.1153 34.2533 53.4353 33.96C53.7553 33.6667 53.9553 33.2533 54.0353 32.72C54.142 32.16 54.1953 31.5333 54.1953 30.84V24.12C54.1953 23.64 54.2086 23.1067 54.2353 22.52C54.262 21.9067 54.302 21.3067 54.3553 20.72C53.9286 20.7467 53.422 20.7733 52.8353 20.8C52.2753 20.8 51.8486 20.8133 51.5553 20.84V17.8C52.782 17.8 53.822 17.7333 54.6753 17.6C55.5286 17.4667 56.1953 17.3067 56.6753 17.12C57.182 16.9333 57.5286 16.76 57.7153 16.6H59.6753C59.7286 16.9467 59.7553 17.2 59.7553 17.36C59.7553 17.52 59.7553 17.68 59.7553 17.84C59.782 17.9733 59.8353 18.2267 59.9153 18.6C60.4486 18.1733 61.062 17.8 61.7553 17.48C62.4486 17.1333 63.142 16.8667 63.8353 16.68C64.5286 16.4667 65.142 16.36 65.6753 16.36C68.1286 16.36 69.862 17.0667 70.8753 18.48C71.9153 19.8667 72.4353 22.1067 72.4353 25.2V30.56C72.4353 30.9333 72.422 31.4667 72.3953 32.16C72.3686 32.8267 72.3286 33.4667 72.2753 34.08C72.7286 34.0267 73.2086 34 73.7153 34C74.222 33.9733 74.6086 33.96 74.8753 33.96V37H64.3953V34.4C65.142 34.4 65.6753 34.2533 65.9953 33.96C66.342 33.6667 66.5553 33.2533 66.6353 32.72C66.742 32.16 66.7953 31.5333 66.7953 30.84L66.7553 25.16C66.7553 23.4267 66.502 22.1467 65.9953 21.32C65.5153 20.4667 64.6886 20.04 63.5153 20.04C62.8486 20.04 62.182 20.1867 61.5153 20.48C60.8753 20.7733 60.3286 21.12 59.8753 21.52C59.8753 21.8933 59.8753 22.28 59.8753 22.68C59.8753 23.0533 59.8753 23.4267 59.8753 23.8V30.56C59.8753 30.9333 59.862 31.4667 59.8353 32.16C59.8086 32.8267 59.7686 33.4667 59.7153 34.08C60.142 34.0267 60.6086 34 61.1153 34C61.6486 33.9733 62.0486 33.96 62.3153 33.96V37H51.8353ZM85.865 47.84C83.5717 47.84 81.7583 47.5867 80.425 47.08C79.0917 46.6 78.145 45.96 77.585 45.16C77.025 44.36 76.745 43.5067 76.745 42.6C76.745 42.04 76.865 41.48 77.105 40.92C77.345 40.36 77.7317 39.8133 78.265 39.28C78.825 38.7733 79.585 38.3467 80.545 38C79.4517 37.7067 78.6783 37.24 78.225 36.6C77.7983 35.9333 77.585 35.2267 77.585 34.48C77.585 33.7867 77.865 33.0133 78.425 32.16C78.985 31.28 79.9983 30.6133 81.465 30.16C80.345 29.7067 79.425 29 78.705 28.04C77.985 27.08 77.5983 25.92 77.545 24.56C77.4917 22.96 77.8917 21.5467 78.745 20.32C79.5983 19.0667 80.7183 18.0933 82.105 17.4C83.4917 16.7067 84.945 16.36 86.465 16.36C87.1583 16.36 87.9583 16.4533 88.865 16.64C89.7717 16.8267 90.5583 17.1467 91.225 17.6C91.5183 16.7733 91.8917 16 92.345 15.28C92.825 14.5333 93.3983 13.9333 94.065 13.48C94.7317 13 95.4783 12.76 96.305 12.76C97.2117 12.76 97.8917 13 98.345 13.48C98.825 13.9333 99.065 14.5467 99.065 15.32C99.065 15.64 98.985 16 98.825 16.4C98.6917 16.7733 98.4383 17.0933 98.065 17.36C97.7183 17.6267 97.225 17.76 96.585 17.76C96.185 17.76 95.785 17.6133 95.385 17.32C94.985 17 94.745 16.6267 94.665 16.2C94.3183 16.3067 93.9717 16.6533 93.625 17.24C93.2783 17.8267 93.0783 18.3467 93.025 18.8C93.7983 19.4667 94.385 20.24 94.785 21.12C95.185 22 95.385 22.9467 95.385 23.96C95.385 25.5067 94.945 26.88 94.065 28.08C93.2117 29.2533 92.0917 30.1867 90.705 30.88C89.345 31.5467 87.8783 31.88 86.305 31.88C85.9583 31.88 85.5717 31.8667 85.145 31.84C84.7183 31.7867 84.305 31.76 83.905 31.76C83.3183 31.76 82.825 31.8667 82.425 32.08C82.025 32.2933 81.825 32.5867 81.825 32.96C81.825 33.4667 82.2117 33.8133 82.985 34C83.7583 34.1867 85.0783 34.3333 86.945 34.44C88.9983 34.5467 90.785 34.8133 92.305 35.24C93.8517 35.64 95.0517 36.28 95.905 37.16C96.7583 38.04 97.185 39.2533 97.185 40.8C97.185 41.9467 96.8517 42.9467 96.185 43.8C95.5183 44.68 94.625 45.4133 93.505 46C92.4117 46.6133 91.1983 47.0667 89.865 47.36C88.5317 47.68 87.1983 47.84 85.865 47.84ZM87.025 45.08C88.9183 45.08 90.345 44.7333 91.305 44.04C92.2917 43.3467 92.785 42.6267 92.785 41.88C92.785 41.32 92.5717 40.8533 92.145 40.48C91.7183 40.1333 91.0783 39.8533 90.225 39.64C89.3983 39.4267 88.3317 39.2933 87.025 39.24C86.4383 39.1867 85.7583 39.1467 84.985 39.12C84.2117 39.0933 83.5317 39.0267 82.945 38.92C82.545 39.24 82.2383 39.64 82.025 40.12C81.8117 40.6 81.6917 41.0667 81.665 41.52C81.6117 42.5867 82.065 43.44 83.025 44.08C84.0117 44.7467 85.345 45.08 87.025 45.08ZM86.465 29.2C87.185 29.2 87.785 28.9733 88.265 28.52C88.7717 28.0667 89.145 27.4933 89.385 26.8C89.6517 26.1067 89.785 25.4 89.785 24.68C89.785 23.7467 89.665 22.8533 89.425 22C89.185 21.12 88.8117 20.4133 88.305 19.88C87.825 19.32 87.1983 19.04 86.425 19.04C85.3583 19.04 84.5317 19.52 83.945 20.48C83.3583 21.44 83.065 22.5333 83.065 23.76C83.065 24.6933 83.1983 25.5867 83.465 26.44C83.7317 27.2667 84.1183 27.9333 84.625 28.44C85.1317 28.9467 85.745 29.2 86.465 29.2ZM117.958 37.64C117.158 37.64 116.385 37.5467 115.638 37.36C114.918 37.1733 114.252 36.8267 113.638 36.32C113.052 35.7867 112.585 35.0133 112.238 34C111.892 32.9867 111.718 31.64 111.718 29.96L111.798 20.32H109.078V17C109.905 16.9733 110.705 16.6933 111.478 16.16C112.252 15.6267 112.905 14.9333 113.438 14.08C113.998 13.2267 114.372 12.3333 114.558 11.4H117.518L117.478 17H122.558V20.08L117.478 20.2L117.438 30.04C117.438 30.6533 117.492 31.2667 117.598 31.88C117.732 32.4667 117.972 32.96 118.318 33.36C118.665 33.7333 119.172 33.92 119.838 33.92C120.212 33.92 120.718 33.7867 121.358 33.52C122.025 33.2533 122.732 32.5867 123.478 31.52L125.398 33.32C124.678 34.3867 123.932 35.2133 123.158 35.8C122.385 36.3867 121.638 36.8133 120.918 37.08C120.225 37.3467 119.612 37.5067 119.078 37.56C118.545 37.6133 118.172 37.64 117.958 37.64ZM130.842 47.84C129.829 47.84 128.962 47.5333 128.242 46.92C127.549 46.3333 127.202 45.5467 127.202 44.56C127.202 43.84 127.429 43.2 127.882 42.64C128.362 42.1067 128.975 41.8267 129.722 41.8C130.309 41.7733 130.802 41.96 131.202 42.36C131.629 42.7867 131.842 43.36 131.842 44.08C131.842 44.16 131.842 44.24 131.842 44.32C131.842 44.4 131.829 44.4933 131.802 44.6C131.855 44.6 131.922 44.5867 132.002 44.56C132.242 44.48 132.495 44.2533 132.762 43.88C133.055 43.5333 133.335 43.0667 133.602 42.48C133.895 41.8667 134.175 41.1733 134.442 40.4C134.735 39.6533 134.989 38.8667 135.202 38.04L128.882 25.36C128.135 23.8667 127.642 22.7467 127.402 22C127.189 21.2267 127.042 20.5467 126.962 19.96L125.122 20.04V17H135.082V19.56C134.095 19.6667 133.549 20.04 133.442 20.68C133.362 21.32 133.482 21.9867 133.802 22.68L137.722 31.64C137.989 30.9467 138.335 29.88 138.762 28.44C139.189 26.9733 139.695 25.3867 140.282 23.68C140.389 23.3333 140.522 22.9333 140.682 22.48C140.869 22 141.069 21.5333 141.282 21.08C141.495 20.6 141.722 20.2133 141.962 19.92L139.682 20.04V17H146.802V19.56C145.975 19.7467 145.282 20.2533 144.722 21.08C144.189 21.9067 143.709 22.92 143.282 24.12L138.282 38.4C137.535 40.56 136.829 42.3333 136.162 43.72C135.495 45.1333 134.749 46.1733 133.922 46.84C133.095 47.5067 132.069 47.84 130.842 47.84ZM180.101 17.96C179.754 15.7467 179.008 14.08 177.861 12.96C176.741 11.84 175.248 11.2667 173.381 11.24C171.994 11.24 170.781 11.56 169.741 12.2C168.701 12.84 167.834 13.6933 167.141 14.76C166.474 15.8267 165.968 17.04 165.621 18.4C165.301 19.76 165.141 21.16 165.141 22.6C165.141 24.8933 165.461 26.9333 166.101 28.72C166.768 30.48 167.728 31.8667 168.981 32.88C170.234 33.8933 171.754 34.4 173.541 34.4C175.221 34.4 176.888 33.9733 178.541 33.12C180.194 32.24 181.581 31.0267 182.701 29.48L184.621 31.24C183.314 33.0267 181.941 34.3867 180.501 35.32C179.061 36.2267 177.648 36.84 176.261 37.16C174.901 37.48 173.674 37.64 172.581 37.64C170.528 37.64 168.661 37.28 166.981 36.56C165.301 35.8133 163.848 34.8 162.621 33.52C161.421 32.2133 160.488 30.7067 159.821 29C159.181 27.2667 158.861 25.4 158.861 23.4C158.861 21.5867 159.154 19.7867 159.741 18C160.328 16.2133 161.194 14.6 162.341 13.16C163.514 11.6933 164.981 10.5333 166.741 9.68C168.501 8.8 170.541 8.36 172.861 8.36C173.901 8.36 175.034 8.53333 176.261 8.88C177.514 9.2 178.688 9.68 179.781 10.32L179.621 8.64H182.701V17.96H180.101ZM196.44 37.64C194.52 37.64 192.787 37.2267 191.24 36.4C189.693 35.5733 188.467 34.4 187.56 32.88C186.68 31.3333 186.24 29.52 186.24 27.44C186.24 25.2267 186.693 23.2933 187.6 21.64C188.533 19.96 189.76 18.6667 191.28 17.76C192.827 16.8267 194.507 16.36 196.32 16.36C198.24 16.36 199.96 16.7733 201.48 17.6C203 18.4267 204.2 19.6133 205.08 21.16C205.96 22.68 206.4 24.5067 206.4 26.64C206.4 28.88 205.973 30.8267 205.12 32.48C204.267 34.1333 203.093 35.4133 201.6 36.32C200.107 37.2 198.387 37.64 196.44 37.64ZM196.6 34.8C197.667 34.7733 198.467 34.4 199 33.68C199.56 32.96 199.947 32.0533 200.16 30.96C200.373 29.8667 200.48 28.76 200.48 27.64C200.48 26.6533 200.4 25.6533 200.24 24.64C200.107 23.6267 199.88 22.7067 199.56 21.88C199.24 21.0533 198.8 20.3867 198.24 19.88C197.707 19.3733 197.04 19.1333 196.24 19.16C195.2 19.1867 194.373 19.56 193.76 20.28C193.173 21 192.747 21.9067 192.48 23C192.24 24.0667 192.12 25.1867 192.12 26.36C192.12 27.72 192.267 29.0533 192.56 30.36C192.853 31.6667 193.32 32.7467 193.96 33.6C194.627 34.4267 195.507 34.8267 196.6 34.8ZM200.96 14.52L196.36 11.64L191.64 14.48L190.72 13L196.2 8.04H196.8L202 13L200.96 14.52ZM200.84 8.92C200.84 8.36 201.013 7.93333 201.36 7.64C201.733 7.32 202.08 6.98666 202.4 6.64C202.587 6.42667 202.747 6.2 202.88 5.96C203.013 5.72 203.08 5.42667 203.08 5.08C203.08 4.52 202.88 4.10666 202.48 3.84C202.107 3.54667 201.64 3.4 201.08 3.4C200.333 3.4 199.787 3.53333 199.44 3.8C199.12 4.06666 198.933 4.29333 198.88 4.48C199.28 4.48 199.573 4.58667 199.76 4.8C199.973 5.01333 200.08 5.26667 200.08 5.56C200.08 5.85333 199.96 6.13333 199.72 6.4C199.48 6.66666 199.133 6.8 198.68 6.8C198.067 6.8 197.56 6.6 197.16 6.2C196.787 5.8 196.6 5.32 196.6 4.76C196.6 4.14666 196.773 3.56 197.12 3C197.467 2.41333 197.973 1.93333 198.64 1.56C199.333 1.18667 200.147 0.999999 201.08 0.999999C202.653 0.999999 203.88 1.33333 204.76 2C205.64 2.66667 206.08 3.57333 206.08 4.72C206.08 5.44 205.893 5.98667 205.52 6.36C205.147 6.70667 204.773 7.04 204.4 7.36C204.08 7.62667 203.813 7.89333 203.6 8.16C203.413 8.42667 203.32 8.68 203.32 8.92H200.84ZM219.404 47.2V44.6C220.151 44.6 220.684 44.4533 221.004 44.16C221.351 43.8667 221.564 43.44 221.644 42.88C221.751 42.3467 221.804 41.7333 221.804 41.04V24.12C221.804 23.64 221.817 23.1067 221.844 22.52C221.871 21.9067 221.911 21.3067 221.964 20.72C221.537 20.7467 221.031 20.7733 220.444 20.8C219.857 20.8 219.417 20.8133 219.124 20.84V17.8C220.377 17.8 221.417 17.7333 222.244 17.6C223.097 17.4667 223.764 17.3067 224.244 17.12C224.751 16.9333 225.097 16.76 225.284 16.6H227.244C227.297 16.8667 227.337 17.2 227.364 17.6C227.391 17.9733 227.417 18.28 227.444 18.52C228.377 17.72 229.297 17.16 230.204 16.84C231.137 16.52 232.017 16.36 232.844 16.36C234.444 16.36 235.844 16.7733 237.044 17.6C238.271 18.4267 239.217 19.6 239.884 21.12C240.577 22.64 240.924 24.4267 240.924 26.48C240.924 28.6133 240.511 30.5333 239.684 32.24C238.857 33.92 237.697 35.24 236.204 36.2C234.737 37.16 233.004 37.64 231.004 37.64C230.284 37.64 229.631 37.56 229.044 37.4C228.484 37.2667 227.951 37.1067 227.444 36.92V40.76C227.444 41.1333 227.431 41.6533 227.404 42.32C227.404 43.0133 227.377 43.6667 227.324 44.28C227.751 44.2267 228.217 44.1867 228.724 44.16C229.231 44.16 229.617 44.16 229.884 44.16V47.2H219.404ZM230.364 34.64C231.591 34.6133 232.537 34.2533 233.204 33.56C233.897 32.84 234.377 31.9067 234.644 30.76C234.911 29.6133 235.044 28.3867 235.044 27.08C235.044 25.8533 234.897 24.6933 234.604 23.6C234.311 22.5067 233.844 21.6267 233.204 20.96C232.564 20.2667 231.724 19.9333 230.684 19.96C230.017 19.9867 229.404 20.16 228.844 20.48C228.284 20.7733 227.817 21.1867 227.444 21.72C227.444 22.5467 227.444 23.3733 227.444 24.2C227.444 25 227.444 25.8 227.444 26.6C227.444 27.4 227.444 28.2133 227.444 29.04C227.444 29.84 227.444 30.6533 227.444 31.48C227.444 32.28 227.444 33.0933 227.444 33.92C227.737 34.1067 228.151 34.28 228.684 34.44C229.217 34.6 229.777 34.6667 230.364 34.64ZM255.591 34.4C256.338 34.4 256.871 34.2533 257.191 33.96C257.538 33.6667 257.751 33.2533 257.831 32.72C257.938 32.16 257.991 31.5333 257.991 30.84L257.951 25.16C257.951 23.4267 257.685 22.1467 257.151 21.32C256.645 20.4667 255.831 20.04 254.711 20.04C254.045 20.04 253.378 20.1867 252.711 20.48C252.071 20.7733 251.525 21.12 251.071 21.52V30.56C251.071 30.9333 251.058 31.4667 251.031 32.16C251.005 32.8267 250.965 33.4667 250.911 34.08C251.365 34.0267 251.845 34 252.351 34C252.858 33.9733 253.245 33.96 253.511 33.96V37H243.031V34.4C243.778 34.4 244.311 34.2533 244.631 33.96C244.978 33.6667 245.191 33.2533 245.271 32.72C245.351 32.16 245.391 31.5333 245.391 30.84V14.4C245.391 13.92 245.405 13.3733 245.431 12.76C245.458 12.12 245.498 11.5067 245.551 10.92C245.125 10.9467 244.618 10.9733 244.031 11C243.471 11 243.045 11.0133 242.751 11.04V8C244.005 8 245.045 7.93333 245.871 7.8C246.725 7.66667 247.391 7.50667 247.871 7.32C248.378 7.13333 248.725 6.96 248.911 6.8H251.071V18.6C251.605 18.1733 252.218 17.8 252.911 17.48C253.605 17.1333 254.311 16.8667 255.031 16.68C255.751 16.4667 256.378 16.36 256.911 16.36C259.365 16.36 261.098 17.0667 262.111 18.48C263.125 19.8667 263.645 22.1067 263.671 25.2V30.56C263.671 30.9333 263.658 31.4667 263.631 32.16C263.605 32.8267 263.565 33.4667 263.511 34.08C263.938 34.0267 264.405 34 264.911 34C265.418 33.9733 265.818 33.96 266.111 33.96V37H255.591V34.4ZM279.635 37C279.582 36.6267 279.542 36.32 279.515 36.08C279.515 35.8133 279.502 35.5067 279.475 35.16C278.568 36.0667 277.608 36.7067 276.595 37.08C275.582 37.4533 274.555 37.64 273.515 37.64C271.808 37.64 270.475 37.1333 269.515 36.12C268.555 35.1067 268.075 33.84 268.075 32.32C268.075 31.04 268.395 29.9467 269.035 29.04C269.702 28.1333 270.568 27.4 271.635 26.84C272.728 26.2533 273.928 25.8133 275.235 25.52C276.568 25.2 277.902 25.0133 279.235 24.96V22.88C279.235 22.1867 279.142 21.56 278.955 21C278.795 20.44 278.502 20 278.075 19.68C277.675 19.36 277.102 19.2133 276.355 19.24C275.848 19.2667 275.355 19.3733 274.875 19.56C274.395 19.7467 273.982 20.0133 273.635 20.36C273.848 20.6 273.982 20.8667 274.035 21.16C274.088 21.4267 274.115 21.6667 274.115 21.88C274.115 22.4133 273.902 22.9733 273.475 23.56C273.048 24.12 272.368 24.3867 271.435 24.36C270.635 24.3333 270.022 24.0533 269.595 23.52C269.168 22.9867 268.955 22.36 268.955 21.64C268.955 20.5733 269.328 19.6533 270.075 18.88C270.848 18.08 271.875 17.4667 273.155 17.04C274.435 16.5867 275.848 16.36 277.395 16.36C279.742 16.36 281.555 16.9733 282.835 18.2C284.142 19.4 284.795 21.3333 284.795 24C284.795 24.9067 284.795 25.68 284.795 26.32C284.795 26.96 284.782 27.6 284.755 28.24C284.755 28.88 284.755 29.6533 284.755 30.56C284.755 30.9333 284.742 31.4667 284.715 32.16C284.688 32.8267 284.648 33.4667 284.595 34.08C285.048 34.0267 285.528 34 286.035 34C286.542 33.9733 286.928 33.96 287.195 33.96V37H279.635ZM279.195 27.8C278.448 27.88 277.742 28.0133 277.075 28.2C276.408 28.3867 275.822 28.64 275.315 28.96C274.835 29.28 274.448 29.6667 274.155 30.12C273.888 30.5733 273.755 31.08 273.755 31.64C273.782 32.3867 274.022 32.92 274.475 33.24C274.928 33.56 275.448 33.72 276.035 33.72C276.648 33.72 277.222 33.5867 277.755 33.32C278.288 33.0533 278.768 32.7067 279.195 32.28C279.195 32.0133 279.195 31.76 279.195 31.52C279.195 31.2533 279.195 30.9867 279.195 30.72C279.195 30.24 279.195 29.76 279.195 29.28C279.195 28.7733 279.195 28.28 279.195 27.8ZM281.595 14.52L276.995 11.64L272.275 14.48L271.355 13L276.835 8.04H277.435L282.635 13L281.595 14.52ZM283.075 9.28L278.235 5.04C277.888 4.69333 277.608 4.29333 277.395 3.84C277.182 3.36 277.102 2.88 277.155 2.4C277.235 1.89333 277.488 1.45333 277.915 1.08C278.342 0.733331 278.782 0.573331 279.235 0.599999C279.715 0.599999 280.168 0.733332 280.595 0.999999C281.022 1.24 281.368 1.58667 281.635 2.04L284.915 7.64L283.075 9.28ZM289.492 37V34.4C290.238 34.4 290.772 34.2533 291.092 33.96C291.412 33.6667 291.612 33.2533 291.692 32.72C291.798 32.16 291.852 31.5333 291.852 30.84V24.12C291.852 23.64 291.865 23.1067 291.892 22.52C291.918 21.9067 291.958 21.3067 292.012 20.72C291.585 20.7467 291.078 20.7733 290.492 20.8C289.932 20.8 289.505 20.8133 289.212 20.84V17.8C290.438 17.8 291.478 17.7333 292.332 17.6C293.185 17.4667 293.852 17.3067 294.332 17.12C294.838 16.9333 295.185 16.76 295.372 16.6H297.332C297.385 16.9467 297.412 17.2 297.412 17.36C297.412 17.52 297.412 17.68 297.412 17.84C297.438 17.9733 297.492 18.2267 297.572 18.6C298.105 18.1733 298.718 17.8 299.412 17.48C300.105 17.1333 300.798 16.8667 301.492 16.68C302.185 16.4667 302.798 16.36 303.332 16.36C305.785 16.36 307.518 17.0667 308.532 18.48C309.572 19.8667 310.092 22.1067 310.092 25.2V30.56C310.092 30.9333 310.078 31.4667 310.052 32.16C310.025 32.8267 309.985 33.4667 309.932 34.08C310.385 34.0267 310.865 34 311.372 34C311.878 33.9733 312.265 33.96 312.532 33.96V37H302.052V34.4C302.798 34.4 303.332 34.2533 303.652 33.96C303.998 33.6667 304.212 33.2533 304.292 32.72C304.398 32.16 304.452 31.5333 304.452 30.84L304.412 25.16C304.412 23.4267 304.158 22.1467 303.652 21.32C303.172 20.4667 302.345 20.04 301.172 20.04C300.505 20.04 299.838 20.1867 299.172 20.48C298.532 20.7733 297.985 21.12 297.532 21.52C297.532 21.8933 297.532 22.28 297.532 22.68C297.532 23.0533 297.532 23.4267 297.532 23.8V30.56C297.532 30.9333 297.518 31.4667 297.492 32.16C297.465 32.8267 297.425 33.4667 297.372 34.08C297.798 34.0267 298.265 34 298.772 34C299.305 33.9733 299.705 33.96 299.972 33.96V37H289.492ZM346.429 17.96C346.082 15.7467 345.336 14.08 344.189 12.96C343.069 11.84 341.576 11.2667 339.709 11.24C338.322 11.24 337.109 11.56 336.069 12.2C335.029 12.84 334.162 13.6933 333.469 14.76C332.802 15.8267 332.296 17.04 331.949 18.4C331.629 19.76 331.469 21.16 331.469 22.6C331.469 24.8933 331.789 26.9333 332.429 28.72C333.096 30.48 334.056 31.8667 335.309 32.88C336.562 33.8933 338.082 34.4 339.869 34.4C341.549 34.4 343.216 33.9733 344.869 33.12C346.522 32.24 347.909 31.0267 349.029 29.48L350.949 31.24C349.642 33.0267 348.269 34.3867 346.829 35.32C345.389 36.2267 343.976 36.84 342.589 37.16C341.229 37.48 340.002 37.64 338.909 37.64C336.856 37.64 334.989 37.28 333.309 36.56C331.629 35.8133 330.176 34.8 328.949 33.52C327.749 32.2133 326.816 30.7067 326.149 29C325.509 27.2667 325.189 25.4 325.189 23.4C325.189 21.5867 325.482 19.7867 326.069 18C326.656 16.2133 327.522 14.6 328.669 13.16C329.842 11.6933 331.309 10.5333 333.069 9.68C334.829 8.8 336.869 8.36 339.189 8.36C340.229 8.36 341.362 8.53333 342.589 8.88C343.842 9.2 345.016 9.68 346.109 10.32L345.949 8.64H349.029V17.96H346.429ZM362.768 37.64C360.848 37.64 359.115 37.2267 357.568 36.4C356.021 35.5733 354.795 34.4 353.888 32.88C353.008 31.3333 352.568 29.52 352.568 27.44C352.568 25.2267 353.021 23.2933 353.928 21.64C354.861 19.96 356.088 18.6667 357.608 17.76C359.155 16.8267 360.835 16.36 362.648 16.36C364.568 16.36 366.288 16.7733 367.808 17.6C369.328 18.4267 370.528 19.6133 371.408 21.16C372.288 22.68 372.728 24.5067 372.728 26.64C372.728 28.88 372.301 30.8267 371.448 32.48C370.595 34.1333 369.421 35.4133 367.928 36.32C366.435 37.2 364.715 37.64 362.768 37.64ZM362.928 34.8C363.995 34.7733 364.795 34.4 365.328 33.68C365.888 32.96 366.275 32.0533 366.488 30.96C366.701 29.8667 366.808 28.76 366.808 27.64C366.808 26.6533 366.728 25.6533 366.568 24.64C366.435 23.6267 366.208 22.7067 365.888 21.88C365.568 21.0533 365.128 20.3867 364.568 19.88C364.035 19.3733 363.368 19.1333 362.568 19.16C361.528 19.1867 360.701 19.56 360.088 20.28C359.501 21 359.075 21.9067 358.808 23C358.568 24.0667 358.448 25.1867 358.448 26.36C358.448 27.72 358.595 29.0533 358.888 30.36C359.181 31.6667 359.648 32.7467 360.288 33.6C360.955 34.4267 361.835 34.8267 362.928 34.8ZM367.728 14.52L362.648 10.32H362.608L357.488 14.24L355.808 12.32L362.648 5.68H363.048L369.448 12.48L367.728 14.52ZM375.624 37V34.4C376.371 34.4 376.904 34.2533 377.224 33.96C377.544 33.6667 377.744 33.2533 377.824 32.72C377.931 32.16 377.984 31.5333 377.984 30.84V24.12C377.984 23.64 377.998 23.1067 378.024 22.52C378.051 21.9067 378.091 21.3067 378.144 20.72C377.718 20.7467 377.211 20.7733 376.624 20.8C376.064 20.8 375.638 20.8133 375.344 20.84V17.8C376.571 17.8 377.611 17.7333 378.464 17.6C379.318 17.4667 379.984 17.3067 380.464 17.12C380.971 16.9333 381.318 16.76 381.504 16.6H383.464C383.518 16.9467 383.544 17.2 383.544 17.36C383.544 17.52 383.544 17.68 383.544 17.84C383.571 17.9733 383.624 18.2267 383.704 18.6C384.238 18.1733 384.851 17.8 385.544 17.48C386.238 17.1333 386.931 16.8667 387.624 16.68C388.318 16.4667 388.931 16.36 389.464 16.36C391.918 16.36 393.651 17.0667 394.664 18.48C395.704 19.8667 396.224 22.1067 396.224 25.2V30.56C396.224 30.9333 396.211 31.4667 396.184 32.16C396.158 32.8267 396.118 33.4667 396.064 34.08C396.518 34.0267 396.998 34 397.504 34C398.011 33.9733 398.398 33.96 398.664 33.96V37H388.184V34.4C388.931 34.4 389.464 34.2533 389.784 33.96C390.131 33.6667 390.344 33.2533 390.424 32.72C390.531 32.16 390.584 31.5333 390.584 30.84L390.544 25.16C390.544 23.4267 390.291 22.1467 389.784 21.32C389.304 20.4667 388.478 20.04 387.304 20.04C386.638 20.04 385.971 20.1867 385.304 20.48C384.664 20.7733 384.118 21.12 383.664 21.52C383.664 21.8933 383.664 22.28 383.664 22.68C383.664 23.0533 383.664 23.4267 383.664 23.8V30.56C383.664 30.9333 383.651 31.4667 383.624 32.16C383.598 32.8267 383.558 33.4667 383.504 34.08C383.931 34.0267 384.398 34 384.904 34C385.438 33.9733 385.838 33.96 386.104 33.96V37H375.624ZM409.654 47.84C407.361 47.84 405.547 47.5867 404.214 47.08C402.881 46.6 401.934 45.96 401.374 45.16C400.814 44.36 400.534 43.5067 400.534 42.6C400.534 42.04 400.654 41.48 400.894 40.92C401.134 40.36 401.521 39.8133 402.054 39.28C402.614 38.7733 403.374 38.3467 404.334 38C403.241 37.7067 402.467 37.24 402.014 36.6C401.587 35.9333 401.374 35.2267 401.374 34.48C401.374 33.7867 401.654 33.0133 402.214 32.16C402.774 31.28 403.787 30.6133 405.254 30.16C404.134 29.7067 403.214 29 402.494 28.04C401.774 27.08 401.387 25.92 401.334 24.56C401.281 22.96 401.681 21.5467 402.534 20.32C403.387 19.0667 404.507 18.0933 405.894 17.4C407.281 16.7067 408.734 16.36 410.254 16.36C410.947 16.36 411.747 16.4533 412.654 16.64C413.561 16.8267 414.347 17.1467 415.014 17.6C415.307 16.7733 415.681 16 416.134 15.28C416.614 14.5333 417.187 13.9333 417.854 13.48C418.521 13 419.267 12.76 420.094 12.76C421.001 12.76 421.681 13 422.134 13.48C422.614 13.9333 422.854 14.5467 422.854 15.32C422.854 15.64 422.774 16 422.614 16.4C422.481 16.7733 422.227 17.0933 421.854 17.36C421.507 17.6267 421.014 17.76 420.374 17.76C419.974 17.76 419.574 17.6133 419.174 17.32C418.774 17 418.534 16.6267 418.454 16.2C418.107 16.3067 417.761 16.6533 417.414 17.24C417.067 17.8267 416.867 18.3467 416.814 18.8C417.587 19.4667 418.174 20.24 418.574 21.12C418.974 22 419.174 22.9467 419.174 23.96C419.174 25.5067 418.734 26.88 417.854 28.08C417.001 29.2533 415.881 30.1867 414.494 30.88C413.134 31.5467 411.667 31.88 410.094 31.88C409.747 31.88 409.361 31.8667 408.934 31.84C408.507 31.7867 408.094 31.76 407.694 31.76C407.107 31.76 406.614 31.8667 406.214 32.08C405.814 32.2933 405.614 32.5867 405.614 32.96C405.614 33.4667 406.001 33.8133 406.774 34C407.547 34.1867 408.867 34.3333 410.734 34.44C412.787 34.5467 414.574 34.8133 416.094 35.24C417.641 35.64 418.841 36.28 419.694 37.16C420.547 38.04 420.974 39.2533 420.974 40.8C420.974 41.9467 420.641 42.9467 419.974 43.8C419.307 44.68 418.414 45.4133 417.294 46C416.201 46.6133 414.987 47.0667 413.654 47.36C412.321 47.68 410.987 47.84 409.654 47.84ZM410.814 45.08C412.707 45.08 414.134 44.7333 415.094 44.04C416.081 43.3467 416.574 42.6267 416.574 41.88C416.574 41.32 416.361 40.8533 415.934 40.48C415.507 40.1333 414.867 39.8533 414.014 39.64C413.187 39.4267 412.121 39.2933 410.814 39.24C410.227 39.1867 409.547 39.1467 408.774 39.12C408.001 39.0933 407.321 39.0267 406.734 38.92C406.334 39.24 406.027 39.64 405.814 40.12C405.601 40.6 405.481 41.0667 405.454 41.52C405.401 42.5867 405.854 43.44 406.814 44.08C407.801 44.7467 409.134 45.08 410.814 45.08ZM410.254 29.2C410.974 29.2 411.574 28.9733 412.054 28.52C412.561 28.0667 412.934 27.4933 413.174 26.8C413.441 26.1067 413.574 25.4 413.574 24.68C413.574 23.7467 413.454 22.8533 413.214 22C412.974 21.12 412.601 20.4133 412.094 19.88C411.614 19.32 410.987 19.04 410.214 19.04C409.147 19.04 408.321 19.52 407.734 20.48C407.147 21.44 406.854 22.5333 406.854 23.76C406.854 24.6933 406.987 25.5867 407.254 26.44C407.521 27.2667 407.907 27.9333 408.414 28.44C408.921 28.9467 409.534 29.2 410.254 29.2ZM433.828 37V34.4C434.574 34.4 435.108 34.2533 435.428 33.96C435.748 33.6667 435.948 33.2533 436.028 32.72C436.134 32.16 436.188 31.5333 436.188 30.84V24.12C436.188 23.64 436.201 23.1067 436.228 22.52C436.254 21.9067 436.294 21.3067 436.348 20.72C435.921 20.7467 435.414 20.7733 434.827 20.8C434.268 20.8 433.841 20.8133 433.548 20.84V17.8C434.774 17.8 435.814 17.7333 436.668 17.6C437.521 17.4667 438.188 17.3067 438.668 17.12C439.174 16.9333 439.521 16.76 439.708 16.6H441.668C441.721 16.9467 441.748 17.2 441.748 17.36C441.748 17.52 441.748 17.68 441.748 17.84C441.774 17.9733 441.828 18.2267 441.908 18.6C442.441 18.1733 443.054 17.8 443.748 17.48C444.441 17.1333 445.134 16.8667 445.828 16.68C446.521 16.4667 447.134 16.36 447.668 16.36C450.121 16.36 451.854 17.0667 452.868 18.48C453.908 19.8667 454.428 22.1067 454.428 25.2V30.56C454.428 30.9333 454.414 31.4667 454.388 32.16C454.361 32.8267 454.321 33.4667 454.268 34.08C454.721 34.0267 455.201 34 455.707 34C456.214 33.9733 456.601 33.96 456.868 33.96V37H446.388V34.4C447.134 34.4 447.668 34.2533 447.988 33.96C448.334 33.6667 448.548 33.2533 448.628 32.72C448.734 32.16 448.788 31.5333 448.788 30.84L448.748 25.16C448.748 23.4267 448.494 22.1467 447.988 21.32C447.508 20.4667 446.681 20.04 445.508 20.04C444.841 20.04 444.174 20.1867 443.508 20.48C442.868 20.7733 442.321 21.12 441.868 21.52C441.868 21.8933 441.868 22.28 441.868 22.68C441.868 23.0533 441.868 23.4267 441.868 23.8V30.56C441.868 30.9333 441.854 31.4667 441.828 32.16C441.801 32.8267 441.761 33.4667 441.708 34.08C442.134 34.0267 442.601 34 443.108 34C443.641 33.9733 444.041 33.96 444.308 33.96V37H433.828ZM467.857 47.84C465.564 47.84 463.751 47.5867 462.417 47.08C461.084 46.6 460.137 45.96 459.577 45.16C459.017 44.36 458.737 43.5067 458.737 42.6C458.737 42.04 458.857 41.48 459.097 40.92C459.337 40.36 459.724 39.8133 460.257 39.28C460.817 38.7733 461.577 38.3467 462.537 38C461.444 37.7067 460.671 37.24 460.217 36.6C459.791 35.9333 459.577 35.2267 459.577 34.48C459.577 33.7867 459.857 33.0133 460.417 32.16C460.977 31.28 461.991 30.6133 463.457 30.16C462.337 29.7067 461.417 29 460.697 28.04C459.977 27.08 459.591 25.92 459.537 24.56C459.484 22.96 459.884 21.5467 460.737 20.32C461.591 19.0667 462.711 18.0933 464.097 17.4C465.484 16.7067 466.937 16.36 468.457 16.36C469.151 16.36 469.951 16.4533 470.857 16.64C471.764 16.8267 472.551 17.1467 473.217 17.6C473.511 16.7733 473.884 16 474.337 15.28C474.817 14.5333 475.391 13.9333 476.057 13.48C476.724 13 477.471 12.76 478.297 12.76C479.204 12.76 479.884 13 480.337 13.48C480.817 13.9333 481.057 14.5467 481.057 15.32C481.057 15.64 480.977 16 480.817 16.4C480.684 16.7733 480.431 17.0933 480.057 17.36C479.711 17.6267 479.217 17.76 478.577 17.76C478.177 17.76 477.777 17.6133 477.377 17.32C476.977 17 476.737 16.6267 476.657 16.2C476.311 16.3067 475.964 16.6533 475.617 17.24C475.271 17.8267 475.071 18.3467 475.017 18.8C475.791 19.4667 476.377 20.24 476.777 21.12C477.177 22 477.377 22.9467 477.377 23.96C477.377 25.5067 476.937 26.88 476.057 28.08C475.204 29.2533 474.084 30.1867 472.697 30.88C471.337 31.5467 469.871 31.88 468.297 31.88C467.951 31.88 467.564 31.8667 467.137 31.84C466.711 31.7867 466.297 31.76 465.897 31.76C465.311 31.76 464.817 31.8667 464.417 32.08C464.017 32.2933 463.817 32.5867 463.817 32.96C463.817 33.4667 464.204 33.8133 464.977 34C465.751 34.1867 467.071 34.3333 468.937 34.44C470.991 34.5467 472.777 34.8133 474.297 35.24C475.844 35.64 477.044 36.28 477.897 37.16C478.751 38.04 479.177 39.2533 479.177 40.8C479.177 41.9467 478.844 42.9467 478.177 43.8C477.511 44.68 476.617 45.4133 475.497 46C474.404 46.6133 473.191 47.0667 471.857 47.36C470.524 47.68 469.191 47.84 467.857 47.84ZM469.017 45.08C470.911 45.08 472.337 44.7333 473.297 44.04C474.284 43.3467 474.777 42.6267 474.777 41.88C474.777 41.32 474.564 40.8533 474.137 40.48C473.711 40.1333 473.071 39.8533 472.217 39.64C471.391 39.4267 470.324 39.2933 469.017 39.24C468.431 39.1867 467.751 39.1467 466.977 39.12C466.204 39.0933 465.524 39.0267 464.937 38.92C464.537 39.24 464.231 39.64 464.017 40.12C463.804 40.6 463.684 41.0667 463.657 41.52C463.604 42.5867 464.057 43.44 465.017 44.08C466.004 44.7467 467.337 45.08 469.017 45.08ZM468.457 29.2C469.177 29.2 469.777 28.9733 470.257 28.52C470.764 28.0667 471.137 27.4933 471.377 26.8C471.644 26.1067 471.777 25.4 471.777 24.68C471.777 23.7467 471.657 22.8533 471.417 22C471.177 21.12 470.804 20.4133 470.297 19.88C469.817 19.32 469.191 19.04 468.417 19.04C467.351 19.04 466.524 19.52 465.937 20.48C465.351 21.44 465.057 22.5333 465.057 23.76C465.057 24.6933 465.191 25.5867 465.457 26.44C465.724 27.2667 466.111 27.9333 466.617 28.44C467.124 28.9467 467.737 29.2 468.457 29.2ZM493.208 34.4C493.955 34.4 494.488 34.2533 494.808 33.96C495.155 33.6667 495.368 33.2533 495.448 32.72C495.555 32.16 495.608 31.5333 495.608 30.84L495.568 25.16C495.568 23.4267 495.302 22.1467 494.768 21.32C494.262 20.4667 493.448 20.04 492.328 20.04C491.662 20.04 490.995 20.1867 490.328 20.48C489.688 20.7733 489.142 21.12 488.688 21.52V30.56C488.688 30.9333 488.675 31.4667 488.648 32.16C488.622 32.8267 488.582 33.4667 488.528 34.08C488.982 34.0267 489.462 34 489.968 34C490.475 33.9733 490.862 33.96 491.128 33.96V37H480.648V34.4C481.395 34.4 481.928 34.2533 482.248 33.96C482.595 33.6667 482.808 33.2533 482.888 32.72C482.968 32.16 483.008 31.5333 483.008 30.84V14.4C483.008 13.92 483.022 13.3733 483.048 12.76C483.075 12.12 483.115 11.5067 483.168 10.92C482.742 10.9467 482.235 10.9733 481.648 11C481.088 11 480.662 11.0133 480.368 11.04V8C481.622 8 482.662 7.93333 483.488 7.8C484.342 7.66667 485.008 7.50667 485.488 7.32C485.995 7.13333 486.342 6.96 486.528 6.8H488.688V18.6C489.222 18.1733 489.835 17.8 490.528 17.48C491.222 17.1333 491.928 16.8667 492.648 16.68C493.368 16.4667 493.995 16.36 494.528 16.36C496.982 16.36 498.715 17.0667 499.728 18.48C500.742 19.8667 501.262 22.1067 501.288 25.2V30.56C501.288 30.9333 501.275 31.4667 501.248 32.16C501.222 32.8267 501.182 33.4667 501.128 34.08C501.555 34.0267 502.022 34 502.528 34C503.035 33.9733 503.435 33.96 503.728 33.96V37H493.208V34.4ZM518.052 44.64C517.306 44.64 516.706 44.3867 516.252 43.88C515.799 43.3733 515.572 42.7733 515.572 42.08C515.572 41.36 515.812 40.7467 516.292 40.24C516.799 39.7333 517.372 39.48 518.012 39.48C518.679 39.48 519.239 39.7333 519.692 40.24C520.146 40.7467 520.372 41.36 520.372 42.08C520.372 42.7733 520.159 43.3733 519.732 43.88C519.306 44.3867 518.746 44.64 518.052 44.64ZM515.612 37.64C513.666 37.64 511.946 37.2133 510.452 36.36C508.959 35.48 507.799 34.2533 506.972 32.68C506.146 31.08 505.732 29.2 505.732 27.04C505.732 25.1733 506.146 23.4267 506.972 21.8C507.799 20.1733 508.959 18.8667 510.452 17.88C511.972 16.8667 513.732 16.36 515.732 16.36C516.852 16.36 517.946 16.52 519.012 16.84C520.079 17.1333 521.039 17.6533 521.892 18.4C522.772 19.1467 523.466 20.16 523.972 21.44C524.506 22.72 524.759 24.32 524.732 26.24L511.612 26.48C511.612 27.92 511.786 29.2133 512.132 30.36C512.506 31.5067 513.106 32.4133 513.932 33.08C514.759 33.7467 515.866 34.08 517.252 34.08C517.786 34.08 518.386 33.9867 519.052 33.8C519.746 33.6133 520.439 33.3067 521.132 32.88C521.852 32.4267 522.519 31.8267 523.132 31.08L524.932 32.76C523.972 34.12 522.946 35.16 521.852 35.88C520.759 36.5733 519.666 37.04 518.572 37.28C517.506 37.52 516.519 37.64 515.612 37.64ZM511.852 23.68H519.212C519.186 22.56 519.026 21.68 518.732 21.04C518.466 20.3733 518.092 19.8933 517.612 19.6C517.132 19.3067 516.572 19.16 515.932 19.16C514.759 19.16 513.839 19.5867 513.172 20.44C512.506 21.2667 512.066 22.3467 511.852 23.68ZM520.932 14.52L515.852 10.32H515.812L510.692 14.24L509.012 12.32L515.852 5.68H516.252L522.652 12.48L520.932 14.52ZM113.968 68.96C113.621 66.7467 112.875 65.08 111.728 63.96C110.608 62.84 109.115 62.2667 107.248 62.24C105.861 62.24 104.648 62.56 103.608 63.2C102.568 63.84 101.701 64.6933 101.008 65.76C100.341 66.8267 99.8348 68.04 99.4881 69.4C99.1681 70.76 99.0081 72.16 99.0081 73.6C99.0081 75.8933 99.3281 77.9333 99.9681 79.72C100.635 81.48 101.595 82.8667 102.848 83.88C104.101 84.8933 105.621 85.4 107.408 85.4C109.088 85.4 110.755 84.9733 112.408 84.12C114.061 83.24 115.448 82.0267 116.568 80.48L118.488 82.24C117.181 84.0267 115.808 85.3867 114.368 86.32C112.928 87.2267 111.515 87.84 110.128 88.16C108.768 88.48 107.541 88.64 106.448 88.64C104.395 88.64 102.528 88.28 100.848 87.56C99.1681 86.8133 97.7148 85.8 96.4881 84.52C95.2881 83.2133 94.3548 81.7067 93.6881 80C93.0481 78.2667 92.7281 76.4 92.7281 74.4C92.7281 72.5867 93.0215 70.7867 93.6081 69C94.1948 67.2133 95.0615 65.6 96.2081 64.16C97.3815 62.6933 98.8481 61.5333 100.608 60.68C102.368 59.8 104.408 59.36 106.728 59.36C107.768 59.36 108.901 59.5333 110.128 59.88C111.381 60.2 112.555 60.68 113.648 61.32L113.488 59.64H116.568V68.96H113.968ZM130.307 88.64C128.387 88.64 126.654 88.2267 125.107 87.4C123.561 86.5733 122.334 85.4 121.427 83.88C120.547 82.3333 120.107 80.52 120.107 78.44C120.107 76.2267 120.561 74.2933 121.467 72.64C122.401 70.96 123.627 69.6667 125.147 68.76C126.694 67.8267 128.374 67.36 130.187 67.36C132.107 67.36 133.827 67.7733 135.347 68.6C136.867 69.4267 138.067 70.6133 138.947 72.16C139.827 73.68 140.267 75.5067 140.267 77.64C140.267 79.88 139.841 81.8267 138.987 83.48C138.134 85.1333 136.961 86.4133 135.467 87.32C133.974 88.2 132.254 88.64 130.307 88.64ZM130.467 85.8C131.534 85.7733 132.334 85.4 132.867 84.68C133.427 83.96 133.814 83.0533 134.027 81.96C134.241 80.8667 134.347 79.76 134.347 78.64C134.347 77.6533 134.267 76.6533 134.107 75.64C133.974 74.6267 133.747 73.7067 133.427 72.88C133.107 72.0533 132.667 71.3867 132.107 70.88C131.574 70.3733 130.907 70.1333 130.107 70.16C129.067 70.1867 128.241 70.56 127.627 71.28C127.041 72 126.614 72.9067 126.347 74C126.107 75.0667 125.987 76.1867 125.987 77.36C125.987 78.72 126.134 80.0533 126.427 81.36C126.721 82.6667 127.187 83.7467 127.827 84.6C128.494 85.4267 129.374 85.8267 130.467 85.8ZM143.163 88V85.4C143.91 85.4 144.443 85.2533 144.763 84.96C145.083 84.6667 145.283 84.2533 145.363 83.72C145.47 83.16 145.523 82.5333 145.523 81.84V75.12C145.523 74.64 145.537 74.1067 145.563 73.52C145.59 72.9067 145.63 72.3067 145.683 71.72C145.257 71.7467 144.75 71.7733 144.163 71.8C143.603 71.8 143.177 71.8133 142.883 71.84V68.8C144.11 68.8 145.15 68.7333 146.003 68.6C146.857 68.4667 147.523 68.3067 148.003 68.12C148.51 67.9333 148.857 67.76 149.043 67.6H151.003C151.057 67.9467 151.083 68.2 151.083 68.36C151.083 68.52 151.083 68.68 151.083 68.84C151.11 68.9733 151.163 69.2267 151.243 69.6C151.777 69.1733 152.39 68.8 153.083 68.48C153.777 68.1333 154.47 67.8667 155.163 67.68C155.857 67.4667 156.47 67.36 157.003 67.36C159.457 67.36 161.19 68.0667 162.203 69.48C163.243 70.8667 163.763 73.1067 163.763 76.2V81.56C163.763 81.9333 163.75 82.4667 163.723 83.16C163.697 83.8267 163.657 84.4667 163.603 85.08C164.057 85.0267 164.537 85 165.043 85C165.55 84.9733 165.937 84.96 166.203 84.96V88H155.723V85.4C156.47 85.4 157.003 85.2533 157.323 84.96C157.67 84.6667 157.883 84.2533 157.963 83.72C158.07 83.16 158.123 82.5333 158.123 81.84L158.083 76.16C158.083 74.4267 157.83 73.1467 157.323 72.32C156.843 71.4667 156.017 71.04 154.843 71.04C154.177 71.04 153.51 71.1867 152.843 71.48C152.203 71.7733 151.657 72.12 151.203 72.52C151.203 72.8933 151.203 73.28 151.203 73.68C151.203 74.0533 151.203 74.4267 151.203 74.8V81.56C151.203 81.9333 151.19 82.4667 151.163 83.16C151.137 83.8267 151.097 84.4667 151.043 85.08C151.47 85.0267 151.937 85 152.443 85C152.977 84.9733 153.377 84.96 153.643 84.96V88H143.163ZM168.593 88V85.4C169.34 85.4 169.873 85.2533 170.193 84.96C170.513 84.6667 170.713 84.2533 170.793 83.72C170.9 83.16 170.953 82.5333 170.953 81.84V75.12C170.953 74.64 170.966 74.1067 170.993 73.52C171.02 72.9067 171.06 72.3067 171.113 71.72C170.686 71.7467 170.18 71.7733 169.593 71.8C169.033 71.8 168.606 71.8133 168.313 71.84V68.8C169.54 68.8 170.58 68.7333 171.433 68.6C172.286 68.4667 172.953 68.3067 173.433 68.12C173.94 67.9333 174.286 67.76 174.473 67.6H176.433C176.486 67.9467 176.513 68.2 176.513 68.36C176.513 68.52 176.513 68.68 176.513 68.84C176.54 68.9733 176.593 69.2267 176.673 69.6C177.206 69.1733 177.82 68.8 178.513 68.48C179.206 68.1333 179.9 67.8667 180.593 67.68C181.286 67.4667 181.9 67.36 182.433 67.36C184.886 67.36 186.62 68.0667 187.633 69.48C188.673 70.8667 189.193 73.1067 189.193 76.2V81.56C189.193 81.9333 189.18 82.4667 189.153 83.16C189.126 83.8267 189.086 84.4667 189.033 85.08C189.486 85.0267 189.966 85 190.473 85C190.98 84.9733 191.366 84.96 191.633 84.96V88H181.153V85.4C181.9 85.4 182.433 85.2533 182.753 84.96C183.1 84.6667 183.313 84.2533 183.393 83.72C183.5 83.16 183.553 82.5333 183.553 81.84L183.513 76.16C183.513 74.4267 183.26 73.1467 182.753 72.32C182.273 71.4667 181.446 71.04 180.273 71.04C179.606 71.04 178.94 71.1867 178.273 71.48C177.633 71.7733 177.086 72.12 176.633 72.52C176.633 72.8933 176.633 73.28 176.633 73.68C176.633 74.0533 176.633 74.4267 176.633 74.8V81.56C176.633 81.9333 176.62 82.4667 176.593 83.16C176.566 83.8267 176.526 84.4667 176.473 85.08C176.9 85.0267 177.366 85 177.873 85C178.406 84.9733 178.806 84.96 179.073 84.96V88H168.593ZM203.503 88.64C201.556 88.64 199.836 88.2133 198.343 87.36C196.849 86.48 195.689 85.2533 194.863 83.68C194.036 82.08 193.623 80.2 193.623 78.04C193.623 76.1733 194.036 74.4267 194.863 72.8C195.689 71.1733 196.849 69.8667 198.343 68.88C199.863 67.8667 201.623 67.36 203.623 67.36C204.743 67.36 205.836 67.52 206.903 67.84C207.969 68.1333 208.929 68.6533 209.783 69.4C210.663 70.1467 211.356 71.16 211.863 72.44C212.396 73.72 212.649 75.32 212.623 77.24L199.503 77.48C199.503 78.92 199.676 80.2133 200.023 81.36C200.396 82.5067 200.996 83.4133 201.823 84.08C202.649 84.7467 203.756 85.08 205.143 85.08C205.676 85.08 206.276 84.9867 206.943 84.8C207.636 84.6133 208.329 84.3067 209.023 83.88C209.743 83.4267 210.409 82.8267 211.023 82.08L212.823 83.76C211.863 85.12 210.836 86.16 209.743 86.88C208.649 87.5733 207.556 88.04 206.463 88.28C205.396 88.52 204.409 88.64 203.503 88.64ZM199.743 74.68H207.103C207.076 73.56 206.916 72.68 206.623 72.04C206.356 71.3733 205.983 70.8933 205.503 70.6C205.023 70.3067 204.463 70.16 203.823 70.16C202.649 70.16 201.729 70.5867 201.063 71.44C200.396 72.2667 199.956 73.3467 199.743 74.68ZM224.986 88.64C223.2 88.64 221.56 88.24 220.066 87.44C218.573 86.64 217.373 85.48 216.466 83.96C215.586 82.44 215.146 80.6 215.146 78.44C215.146 76.92 215.4 75.4933 215.906 74.16C216.413 72.8267 217.12 71.6533 218.026 70.64C218.96 69.6267 220.053 68.8267 221.306 68.24C222.586 67.6533 224 67.36 225.546 67.36C227.253 67.36 228.666 67.6267 229.786 68.16C230.933 68.6667 231.786 69.3467 232.346 70.2C232.933 71.0267 233.226 71.9067 233.226 72.84C233.226 73.6133 232.986 74.3067 232.506 74.92C232.053 75.5067 231.4 75.8133 230.546 75.84C229.533 75.8667 228.826 75.5867 228.426 75C228.026 74.3867 227.826 73.8 227.826 73.24C227.826 73 227.866 72.72 227.946 72.4C228.026 72.0533 228.146 71.7467 228.306 71.48C228.12 71.08 227.84 70.7867 227.466 70.6C227.093 70.4133 226.706 70.2933 226.306 70.24C225.933 70.16 225.626 70.1333 225.386 70.16C224.106 70.24 223.053 70.88 222.226 72.08C221.4 73.28 220.986 75.0133 220.986 77.28C220.986 78.6133 221.146 79.8667 221.466 81.04C221.813 82.1867 222.373 83.1333 223.146 83.88C223.92 84.6267 224.96 85.0267 226.266 85.08C227.386 85.1067 228.48 84.84 229.546 84.28C230.613 83.72 231.52 82.96 232.266 82L234.106 83.8C233.146 85.1333 232.146 86.1467 231.106 86.84C230.066 87.5333 229.026 88 227.986 88.24C226.973 88.5067 225.973 88.64 224.986 88.64ZM244.169 88.64C243.369 88.64 242.596 88.5467 241.849 88.36C241.129 88.1733 240.463 87.8267 239.849 87.32C239.263 86.7867 238.796 86.0133 238.449 85C238.103 83.9867 237.929 82.64 237.929 80.96L238.009 71.32H235.289V68C236.116 67.9733 236.916 67.6933 237.689 67.16C238.463 66.6267 239.116 65.9333 239.649 65.08C240.209 64.2267 240.583 63.3333 240.769 62.4H243.729L243.689 68H248.769V71.08L243.689 71.2L243.649 81.04C243.649 81.6533 243.703 82.2667 243.809 82.88C243.943 83.4667 244.183 83.96 244.529 84.36C244.876 84.7333 245.383 84.92 246.049 84.92C246.423 84.92 246.929 84.7867 247.569 84.52C248.236 84.2533 248.943 83.5867 249.689 82.52L251.609 84.32C250.889 85.3867 250.143 86.2133 249.369 86.8C248.596 87.3867 247.849 87.8133 247.129 88.08C246.436 88.3467 245.823 88.5067 245.289 88.56C244.756 88.6133 244.383 88.64 244.169 88.64Z" fill="#0DC5AE"/>
<path d="M22.68 69.04C22.68 67.6 22.48 66.4133 22.08 65.48C21.68 64.52 21.1067 63.8133 20.36 63.36C19.64 62.88 18.7733 62.6533 17.76 62.68H15.84V81.44C15.84 82.16 15.8267 82.8533 15.8 83.52C15.7733 84.1867 15.7333 84.6933 15.68 85.04C16.1333 84.9867 16.7067 84.96 17.4 84.96C18.12 84.9333 18.6133 84.92 18.88 84.92V88H7.2V85.36C7.81333 85.3333 8.32 85.2533 8.72 85.12C9.14667 84.9867 9.46667 84.68 9.68 84.2C9.92 83.72 10.04 82.9467 10.04 81.88V62.72H8.2C6.68 62.7467 5.48 63.2667 4.6 64.28C3.72 65.2933 3.28 66.88 3.28 69.04H0.64L0.84 60H25.08L25.32 69.04H22.68ZM27.4994 85.4C28.246 85.4 28.7794 85.2533 29.0994 84.96C29.4194 84.6667 29.6194 84.2533 29.6994 83.72C29.806 83.16 29.8594 82.5333 29.8594 81.84V75.12C29.8594 74.64 29.8727 74.1067 29.8994 73.52C29.926 72.9067 29.966 72.3067 30.0194 71.72C29.5927 71.7467 29.086 71.7733 28.4994 71.8C27.9394 71.8 27.5127 71.8133 27.2194 71.84V68.8H28.8194C29.8594 68.8 30.806 68.6667 31.6594 68.4C32.5394 68.1333 33.1127 67.8667 33.3794 67.6H35.3394C35.3927 67.8667 35.4327 68.3733 35.4594 69.12C35.486 69.84 35.4994 70.48 35.4994 71.04C36.2194 70.16 36.8994 69.4533 37.5394 68.92C38.1794 68.3867 38.806 68 39.4194 67.76C40.0594 67.4933 40.6994 67.36 41.3394 67.36C42.2727 67.36 43.086 67.6267 43.7794 68.16C44.4727 68.6667 44.8194 69.5067 44.8194 70.68C44.8194 71.08 44.726 71.5067 44.5394 71.96C44.3527 72.3867 44.0594 72.7467 43.6594 73.04C43.2594 73.3333 42.7127 73.48 42.0194 73.48C41.486 73.48 40.9394 73.32 40.3794 73C39.8194 72.68 39.4994 72.0667 39.4194 71.16C38.886 71.16 38.3527 71.3867 37.8194 71.84C37.286 72.2667 36.806 72.7867 36.3794 73.4C35.9794 73.9867 35.6994 74.5333 35.5394 75.04V81.56C35.5394 81.9333 35.526 82.4667 35.4994 83.16C35.4727 83.8267 35.4327 84.4667 35.3794 85.08C35.806 85.0267 36.2727 85 36.7794 85C37.3127 84.9733 37.7127 84.96 37.9794 84.96V88H27.4994V85.4ZM54.9981 88.64C53.3981 88.64 52.1048 88.3333 51.1181 87.72C50.1581 87.1067 49.4515 86.1467 48.9981 84.84C48.5715 83.5333 48.3581 81.8533 48.3581 79.8V75.2C48.3581 74.72 48.3715 74.1733 48.3981 73.56C48.4248 72.92 48.4515 72.3067 48.4781 71.72C48.0515 71.7467 47.5448 71.7733 46.9581 71.8C46.3981 71.8 45.9715 71.8133 45.6781 71.84V68.8H46.0781C47.7315 68.8 49.0381 68.6667 49.9981 68.4C50.9581 68.1333 51.5715 67.8667 51.8381 67.6H54.0381V79.84C54.0381 81.5733 54.2648 82.8667 54.7181 83.72C55.1715 84.5467 55.8915 84.96 56.8781 84.96C57.5715 84.96 58.2648 84.7733 58.9581 84.4C59.6781 84 60.2648 83.5467 60.7181 83.04V75.2C60.7181 74.72 60.7315 74.1733 60.7581 73.56C60.7848 72.92 60.8248 72.3067 60.8781 71.72C60.4515 71.7467 59.9448 71.7733 59.3581 71.8C58.7981 71.8 58.3715 71.8133 58.0781 71.84V68.8H59.0381C60.2915 68.8 61.3981 68.6667 62.3581 68.4C63.3181 68.1067 63.9315 67.84 64.1981 67.6H66.3981V81.56C66.3981 81.9333 66.3848 82.4667 66.3581 83.16C66.3315 83.8267 66.2915 84.4667 66.2381 85.08C66.6648 85.0267 67.1315 85 67.6381 85C68.1715 84.9733 68.5715 84.96 68.8381 84.96V88H61.2381C61.2115 87.6533 61.1715 87.3067 61.1181 86.96C61.0915 86.6133 61.0515 86.2667 60.9981 85.92C60.1715 86.6133 59.2781 87.24 58.3181 87.8C57.3848 88.36 56.2781 88.64 54.9981 88.64ZM80.9247 88.64C78.978 88.64 77.258 88.2133 75.7647 87.36C74.2714 86.48 73.1114 85.2533 72.2847 83.68C71.458 82.08 71.0447 80.2 71.0447 78.04C71.0447 76.1733 71.458 74.4267 72.2847 72.8C73.1114 71.1733 74.2714 69.8667 75.7647 68.88C77.2847 67.8667 79.0447 67.36 81.0447 67.36C82.1647 67.36 83.258 67.52 84.3247 67.84C85.3914 68.1333 86.3514 68.6533 87.2047 69.4C88.0847 70.1467 88.778 71.16 89.2847 72.44C89.818 73.72 90.0714 75.32 90.0447 77.24L76.9247 77.48C76.9247 78.92 77.098 80.2133 77.4447 81.36C77.818 82.5067 78.418 83.4133 79.2447 84.08C80.0714 84.7467 81.178 85.08 82.5647 85.08C83.098 85.08 83.698 84.9867 84.3647 84.8C85.058 84.6133 85.7514 84.3067 86.4447 83.88C87.1647 83.4267 87.8314 82.8267 88.4447 82.08L90.2447 83.76C89.2847 85.12 88.258 86.16 87.1647 86.88C86.0714 87.5733 84.978 88.04 83.8847 88.28C82.818 88.52 81.8314 88.64 80.9247 88.64ZM77.1647 74.68H84.5247C84.498 73.56 84.338 72.68 84.0447 72.04C83.778 71.3733 83.4047 70.8933 82.9247 70.6C82.4447 70.3067 81.8847 70.16 81.2447 70.16C80.0714 70.16 79.1514 70.5867 78.4847 71.44C77.818 72.2667 77.378 73.3467 77.1647 74.68Z" fill="#FF0054"/>
</svg>
